M48
;DRILL file {KiCad 4.0.4-stable} date Friday, October 21, 2016 'PMt' 09:58:02 PM
;FORMAT={-:-/ absolute / inch / decimal}
FMAT,2
INCH,TZ
T1C0.013
T2C0.033
T3C0.035
T4C0.045
T5C0.128
%
G90
G05
M72
T1
X6.1026Y-4.0293
X6.1026Y-4.3206
X6.3635Y-3.988
X6.4422Y-3.988
X6.4461Y-3.9407
X6.539Y-4.0889
X6.8204Y-4.2186
X6.8261Y-3.988
X6.83Y-4.297
X6.8812Y-4.1572
X6.9875Y-4.0411
X6.9875Y-4.1986
X7.49Y-4.215
X7.5918Y-4.0194
X7.6371Y-4.0313
T2
X5.6287Y-4.0411
X5.6287Y-4.238
T3
X7.0597Y-4.0148
X7.0597Y-4.1148
X7.0597Y-4.2148
X7.0597Y-4.3148
X7.1597Y-3.9648
X7.1597Y-4.0648
X7.1597Y-4.1648
X7.1597Y-4.2648
T4
X5.5224Y-4.0018
X5.5224Y-4.2774
T5
X7.4097Y-3.9063
X7.4097Y-4.3736
T0
M30
