G04 #@! TF.FileFunction,Copper,L2,Bot,Signal*
%FSLAX46Y46*%
G04 Gerber Fmt 4.6, Leading zero omitted, Abs format (unit mm)*
G04 Created by KiCad (PCBNEW 4.0.2-stable) date Wednesday, October 12, 2016 'AMt' 12:25:19 AM*
%MOMM*%
G01*
G04 APERTURE LIST*
%ADD10C,0.100000*%
%ADD11C,0.010000*%
%ADD12C,3.649980*%
%ADD13R,1.501140X1.501140*%
%ADD14C,1.501140*%
%ADD15C,1.524000*%
%ADD16C,2.700020*%
%ADD17C,0.685800*%
%ADD18C,0.152400*%
%ADD19C,0.203200*%
%ADD20C,0.250000*%
%ADD21C,0.254000*%
G04 APERTURE END LIST*
D10*
D11*
G36*
X155798241Y-99099816D02*
X155824753Y-99086718D01*
X155857447Y-99063894D01*
X155881275Y-99039004D01*
X155897594Y-99007751D01*
X155907760Y-98965834D01*
X155913128Y-98908956D01*
X155915056Y-98832816D01*
X155915169Y-98800083D01*
X155914839Y-98728344D01*
X155913473Y-98677073D01*
X155910500Y-98641596D01*
X155905351Y-98617237D01*
X155897457Y-98599320D01*
X155889243Y-98587098D01*
X155836813Y-98535095D01*
X155775070Y-98503816D01*
X155708464Y-98494408D01*
X155641442Y-98508020D01*
X155620208Y-98517646D01*
X155569376Y-98544141D01*
X155569376Y-98128948D01*
X155606475Y-98148132D01*
X155655357Y-98162975D01*
X155715439Y-98166778D01*
X155775436Y-98159757D01*
X155820744Y-98143987D01*
X155858325Y-98113953D01*
X155890436Y-98070976D01*
X155892850Y-98066564D01*
X155903033Y-98045779D01*
X155910470Y-98024830D01*
X155915589Y-97999452D01*
X155918819Y-97965382D01*
X155920587Y-97918359D01*
X155921323Y-97854118D01*
X155921456Y-97781824D01*
X155921456Y-97551178D01*
X155783139Y-97551178D01*
X155783139Y-97976467D01*
X155744451Y-98009021D01*
X155704262Y-98035060D01*
X155666203Y-98039795D01*
X155627934Y-98027611D01*
X155607538Y-98015680D01*
X155592358Y-97998687D01*
X155581562Y-97973005D01*
X155574317Y-97935009D01*
X155569792Y-97881074D01*
X155567156Y-97807575D01*
X155566228Y-97758653D01*
X155563089Y-97557465D01*
X155497074Y-97553664D01*
X155431060Y-97549864D01*
X155431060Y-98798350D01*
X155569376Y-98798350D01*
X155572903Y-98728746D01*
X155584785Y-98680431D01*
X155606980Y-98650369D01*
X155641441Y-98635529D01*
X155676258Y-98632564D01*
X155715671Y-98635972D01*
X155741829Y-98649383D01*
X155758186Y-98667104D01*
X155771063Y-98686165D01*
X155778728Y-98707399D01*
X155782139Y-98737151D01*
X155782251Y-98781764D01*
X155781103Y-98819120D01*
X155778468Y-98875396D01*
X155774544Y-98912342D01*
X155767937Y-98935777D01*
X155757251Y-98951520D01*
X155747167Y-98960620D01*
X155705030Y-98980463D01*
X155655160Y-98983668D01*
X155626524Y-98976832D01*
X155598172Y-98952536D01*
X155579391Y-98905272D01*
X155570288Y-98835376D01*
X155569376Y-98798350D01*
X155431060Y-98798350D01*
X155431060Y-99110386D01*
X155500218Y-99110386D01*
X155541740Y-99108744D01*
X155563162Y-99102913D01*
X155569374Y-99091539D01*
X155569376Y-99091202D01*
X155572258Y-99080062D01*
X155584970Y-99081327D01*
X155610243Y-99093567D01*
X155669131Y-99112293D01*
X155735385Y-99114261D01*
X155798241Y-99099816D01*
X155798241Y-99099816D01*
G37*
X155798241Y-99099816D02*
X155824753Y-99086718D01*
X155857447Y-99063894D01*
X155881275Y-99039004D01*
X155897594Y-99007751D01*
X155907760Y-98965834D01*
X155913128Y-98908956D01*
X155915056Y-98832816D01*
X155915169Y-98800083D01*
X155914839Y-98728344D01*
X155913473Y-98677073D01*
X155910500Y-98641596D01*
X155905351Y-98617237D01*
X155897457Y-98599320D01*
X155889243Y-98587098D01*
X155836813Y-98535095D01*
X155775070Y-98503816D01*
X155708464Y-98494408D01*
X155641442Y-98508020D01*
X155620208Y-98517646D01*
X155569376Y-98544141D01*
X155569376Y-98128948D01*
X155606475Y-98148132D01*
X155655357Y-98162975D01*
X155715439Y-98166778D01*
X155775436Y-98159757D01*
X155820744Y-98143987D01*
X155858325Y-98113953D01*
X155890436Y-98070976D01*
X155892850Y-98066564D01*
X155903033Y-98045779D01*
X155910470Y-98024830D01*
X155915589Y-97999452D01*
X155918819Y-97965382D01*
X155920587Y-97918359D01*
X155921323Y-97854118D01*
X155921456Y-97781824D01*
X155921456Y-97551178D01*
X155783139Y-97551178D01*
X155783139Y-97976467D01*
X155744451Y-98009021D01*
X155704262Y-98035060D01*
X155666203Y-98039795D01*
X155627934Y-98027611D01*
X155607538Y-98015680D01*
X155592358Y-97998687D01*
X155581562Y-97973005D01*
X155574317Y-97935009D01*
X155569792Y-97881074D01*
X155567156Y-97807575D01*
X155566228Y-97758653D01*
X155563089Y-97557465D01*
X155497074Y-97553664D01*
X155431060Y-97549864D01*
X155431060Y-98798350D01*
X155569376Y-98798350D01*
X155572903Y-98728746D01*
X155584785Y-98680431D01*
X155606980Y-98650369D01*
X155641441Y-98635529D01*
X155676258Y-98632564D01*
X155715671Y-98635972D01*
X155741829Y-98649383D01*
X155758186Y-98667104D01*
X155771063Y-98686165D01*
X155778728Y-98707399D01*
X155782139Y-98737151D01*
X155782251Y-98781764D01*
X155781103Y-98819120D01*
X155778468Y-98875396D01*
X155774544Y-98912342D01*
X155767937Y-98935777D01*
X155757251Y-98951520D01*
X155747167Y-98960620D01*
X155705030Y-98980463D01*
X155655160Y-98983668D01*
X155626524Y-98976832D01*
X155598172Y-98952536D01*
X155579391Y-98905272D01*
X155570288Y-98835376D01*
X155569376Y-98798350D01*
X155431060Y-98798350D01*
X155431060Y-99110386D01*
X155500218Y-99110386D01*
X155541740Y-99108744D01*
X155563162Y-99102913D01*
X155569374Y-99091539D01*
X155569376Y-99091202D01*
X155572258Y-99080062D01*
X155584970Y-99081327D01*
X155610243Y-99093567D01*
X155669131Y-99112293D01*
X155735385Y-99114261D01*
X155798241Y-99099816D01*
G36*
X156322790Y-98162445D02*
X156381945Y-98146661D01*
X156426977Y-98118052D01*
X156458754Y-98080581D01*
X156468634Y-98064589D01*
X156475927Y-98047837D01*
X156481026Y-98026408D01*
X156484321Y-97996384D01*
X156486203Y-97953846D01*
X156487063Y-97894878D01*
X156487293Y-97815560D01*
X156487297Y-97794516D01*
X156487297Y-97551178D01*
X156426941Y-97551178D01*
X156388443Y-97553874D01*
X156359977Y-97560705D01*
X156352845Y-97564917D01*
X156333348Y-97572187D01*
X156313434Y-97564917D01*
X156280647Y-97555840D01*
X156233022Y-97552187D01*
X156180236Y-97553772D01*
X156131964Y-97560411D01*
X156103782Y-97568928D01*
X156049247Y-97603937D01*
X156015165Y-97652521D01*
X155999843Y-97717118D01*
X155999701Y-97718777D01*
X156001045Y-97747434D01*
X156122644Y-97747434D01*
X156133274Y-97714839D01*
X156150590Y-97696495D01*
X156185348Y-97682621D01*
X156231227Y-97677083D01*
X156278012Y-97679809D01*
X156315486Y-97690726D01*
X156325985Y-97697731D01*
X156344332Y-97730096D01*
X156348980Y-97766889D01*
X156348980Y-97815237D01*
X156279418Y-97815237D01*
X156213333Y-97810150D01*
X156163236Y-97795737D01*
X156132071Y-97773271D01*
X156122644Y-97747434D01*
X156001045Y-97747434D01*
X156003013Y-97789353D01*
X156026290Y-97845155D01*
X156070052Y-97887353D01*
X156076101Y-97891192D01*
X156102093Y-97903691D01*
X156134265Y-97911260D01*
X156179240Y-97914939D01*
X156232669Y-97915784D01*
X156348980Y-97915831D01*
X156348980Y-97964589D01*
X156344047Y-98002419D01*
X156331457Y-98027764D01*
X156329983Y-98029113D01*
X156301966Y-98040200D01*
X156259674Y-98044497D01*
X156212936Y-98042385D01*
X156171582Y-98034244D01*
X156147043Y-98022035D01*
X156133747Y-98012254D01*
X156119706Y-98010387D01*
X156100329Y-98018400D01*
X156071024Y-98038261D01*
X156027197Y-98071937D01*
X156023175Y-98075091D01*
X156025236Y-98086764D01*
X156042432Y-98106178D01*
X156068567Y-98127752D01*
X156097448Y-98145904D01*
X156106522Y-98150191D01*
X156139620Y-98158744D01*
X156188120Y-98164845D01*
X156242305Y-98167292D01*
X156244839Y-98167297D01*
X156322790Y-98162445D01*
X156322790Y-98162445D01*
G37*
X156322790Y-98162445D02*
X156381945Y-98146661D01*
X156426977Y-98118052D01*
X156458754Y-98080581D01*
X156468634Y-98064589D01*
X156475927Y-98047837D01*
X156481026Y-98026408D01*
X156484321Y-97996384D01*
X156486203Y-97953846D01*
X156487063Y-97894878D01*
X156487293Y-97815560D01*
X156487297Y-97794516D01*
X156487297Y-97551178D01*
X156426941Y-97551178D01*
X156388443Y-97553874D01*
X156359977Y-97560705D01*
X156352845Y-97564917D01*
X156333348Y-97572187D01*
X156313434Y-97564917D01*
X156280647Y-97555840D01*
X156233022Y-97552187D01*
X156180236Y-97553772D01*
X156131964Y-97560411D01*
X156103782Y-97568928D01*
X156049247Y-97603937D01*
X156015165Y-97652521D01*
X155999843Y-97717118D01*
X155999701Y-97718777D01*
X156001045Y-97747434D01*
X156122644Y-97747434D01*
X156133274Y-97714839D01*
X156150590Y-97696495D01*
X156185348Y-97682621D01*
X156231227Y-97677083D01*
X156278012Y-97679809D01*
X156315486Y-97690726D01*
X156325985Y-97697731D01*
X156344332Y-97730096D01*
X156348980Y-97766889D01*
X156348980Y-97815237D01*
X156279418Y-97815237D01*
X156213333Y-97810150D01*
X156163236Y-97795737D01*
X156132071Y-97773271D01*
X156122644Y-97747434D01*
X156001045Y-97747434D01*
X156003013Y-97789353D01*
X156026290Y-97845155D01*
X156070052Y-97887353D01*
X156076101Y-97891192D01*
X156102093Y-97903691D01*
X156134265Y-97911260D01*
X156179240Y-97914939D01*
X156232669Y-97915784D01*
X156348980Y-97915831D01*
X156348980Y-97964589D01*
X156344047Y-98002419D01*
X156331457Y-98027764D01*
X156329983Y-98029113D01*
X156301966Y-98040200D01*
X156259674Y-98044497D01*
X156212936Y-98042385D01*
X156171582Y-98034244D01*
X156147043Y-98022035D01*
X156133747Y-98012254D01*
X156119706Y-98010387D01*
X156100329Y-98018400D01*
X156071024Y-98038261D01*
X156027197Y-98071937D01*
X156023175Y-98075091D01*
X156025236Y-98086764D01*
X156042432Y-98106178D01*
X156068567Y-98127752D01*
X156097448Y-98145904D01*
X156106522Y-98150191D01*
X156139620Y-98158744D01*
X156188120Y-98164845D01*
X156242305Y-98167292D01*
X156244839Y-98167297D01*
X156322790Y-98162445D01*
G36*
X156713644Y-98165980D02*
X156732461Y-98160340D01*
X156738527Y-98147947D01*
X156738782Y-98142353D01*
X156739871Y-98126770D01*
X156747368Y-98124324D01*
X156767619Y-98135007D01*
X156779649Y-98142306D01*
X156817600Y-98157937D01*
X156862928Y-98165666D01*
X156910456Y-98166260D01*
X156955005Y-98160487D01*
X156991398Y-98149116D01*
X157014457Y-98132912D01*
X157019004Y-98112645D01*
X157016709Y-98107157D01*
X156999980Y-98084374D01*
X156974037Y-98056353D01*
X156969345Y-98051823D01*
X156944617Y-98030995D01*
X156923282Y-98024265D01*
X156893445Y-98028962D01*
X156881492Y-98032083D01*
X156844295Y-98039579D01*
X156818141Y-98036208D01*
X156796054Y-98024319D01*
X156775822Y-98008365D01*
X156760921Y-97988300D01*
X156750566Y-97960298D01*
X156743971Y-97920533D01*
X156740351Y-97865177D01*
X156738922Y-97790406D01*
X156738782Y-97745260D01*
X156738782Y-97551178D01*
X156613040Y-97551178D01*
X156613040Y-98167317D01*
X156675911Y-98167317D01*
X156713644Y-98165980D01*
X156713644Y-98165980D01*
G37*
X156713644Y-98165980D02*
X156732461Y-98160340D01*
X156738527Y-98147947D01*
X156738782Y-98142353D01*
X156739871Y-98126770D01*
X156747368Y-98124324D01*
X156767619Y-98135007D01*
X156779649Y-98142306D01*
X156817600Y-98157937D01*
X156862928Y-98165666D01*
X156910456Y-98166260D01*
X156955005Y-98160487D01*
X156991398Y-98149116D01*
X157014457Y-98132912D01*
X157019004Y-98112645D01*
X157016709Y-98107157D01*
X156999980Y-98084374D01*
X156974037Y-98056353D01*
X156969345Y-98051823D01*
X156944617Y-98030995D01*
X156923282Y-98024265D01*
X156893445Y-98028962D01*
X156881492Y-98032083D01*
X156844295Y-98039579D01*
X156818141Y-98036208D01*
X156796054Y-98024319D01*
X156775822Y-98008365D01*
X156760921Y-97988300D01*
X156750566Y-97960298D01*
X156743971Y-97920533D01*
X156740351Y-97865177D01*
X156738922Y-97790406D01*
X156738782Y-97745260D01*
X156738782Y-97551178D01*
X156613040Y-97551178D01*
X156613040Y-98167317D01*
X156675911Y-98167317D01*
X156713644Y-98165980D01*
G36*
X157505812Y-97551178D02*
X157436654Y-97551178D01*
X157396512Y-97552355D01*
X157375606Y-97557228D01*
X157368078Y-97567814D01*
X157367495Y-97574971D01*
X157366226Y-97589324D01*
X157358221Y-97592077D01*
X157337185Y-97583229D01*
X157320827Y-97574971D01*
X157258023Y-97555403D01*
X157189752Y-97554271D01*
X157134248Y-97568865D01*
X157082562Y-97604123D01*
X157043162Y-97656165D01*
X157021587Y-97717550D01*
X157021038Y-97720982D01*
X157017833Y-97758429D01*
X157016239Y-97812187D01*
X157016367Y-97852845D01*
X157153721Y-97852845D01*
X157156903Y-97798806D01*
X157164141Y-97754265D01*
X157173940Y-97729112D01*
X157211011Y-97694740D01*
X157255026Y-97682418D01*
X157300416Y-97692382D01*
X157339203Y-97722105D01*
X157353892Y-97742095D01*
X157362481Y-97765950D01*
X157366504Y-97800770D01*
X157367495Y-97853070D01*
X157365722Y-97904861D01*
X157361037Y-97950366D01*
X157354397Y-97980819D01*
X157353290Y-97983548D01*
X157326509Y-98016000D01*
X157287421Y-98033817D01*
X157243685Y-98036694D01*
X157202962Y-98024326D01*
X157172913Y-97996407D01*
X157169796Y-97990852D01*
X157160039Y-97956978D01*
X157154723Y-97908272D01*
X157153721Y-97852845D01*
X157016367Y-97852845D01*
X157016432Y-97873460D01*
X157017336Y-97906437D01*
X157023486Y-97988019D01*
X157036267Y-98049270D01*
X157057529Y-98094551D01*
X157089122Y-98128221D01*
X157119793Y-98147986D01*
X157162646Y-98161880D01*
X157215944Y-98166646D01*
X157270520Y-98162764D01*
X157317208Y-98150718D01*
X157341876Y-98136307D01*
X157367495Y-98113122D01*
X157367495Y-98406227D01*
X157505812Y-98406227D01*
X157505812Y-97551178D01*
X157505812Y-97551178D01*
G37*
X157505812Y-97551178D02*
X157436654Y-97551178D01*
X157396512Y-97552355D01*
X157375606Y-97557228D01*
X157368078Y-97567814D01*
X157367495Y-97574971D01*
X157366226Y-97589324D01*
X157358221Y-97592077D01*
X157337185Y-97583229D01*
X157320827Y-97574971D01*
X157258023Y-97555403D01*
X157189752Y-97554271D01*
X157134248Y-97568865D01*
X157082562Y-97604123D01*
X157043162Y-97656165D01*
X157021587Y-97717550D01*
X157021038Y-97720982D01*
X157017833Y-97758429D01*
X157016239Y-97812187D01*
X157016367Y-97852845D01*
X157153721Y-97852845D01*
X157156903Y-97798806D01*
X157164141Y-97754265D01*
X157173940Y-97729112D01*
X157211011Y-97694740D01*
X157255026Y-97682418D01*
X157300416Y-97692382D01*
X157339203Y-97722105D01*
X157353892Y-97742095D01*
X157362481Y-97765950D01*
X157366504Y-97800770D01*
X157367495Y-97853070D01*
X157365722Y-97904861D01*
X157361037Y-97950366D01*
X157354397Y-97980819D01*
X157353290Y-97983548D01*
X157326509Y-98016000D01*
X157287421Y-98033817D01*
X157243685Y-98036694D01*
X157202962Y-98024326D01*
X157172913Y-97996407D01*
X157169796Y-97990852D01*
X157160039Y-97956978D01*
X157154723Y-97908272D01*
X157153721Y-97852845D01*
X157016367Y-97852845D01*
X157016432Y-97873460D01*
X157017336Y-97906437D01*
X157023486Y-97988019D01*
X157036267Y-98049270D01*
X157057529Y-98094551D01*
X157089122Y-98128221D01*
X157119793Y-98147986D01*
X157162646Y-98161880D01*
X157215944Y-98166646D01*
X157270520Y-98162764D01*
X157317208Y-98150718D01*
X157341876Y-98136307D01*
X157367495Y-98113122D01*
X157367495Y-98406227D01*
X157505812Y-98406227D01*
X157505812Y-97551178D01*
G36*
X157988524Y-98164763D02*
X158038255Y-98161029D01*
X158168291Y-97771227D01*
X158188678Y-97840386D01*
X158200946Y-97883126D01*
X158217085Y-97940885D01*
X158234512Y-98004375D01*
X158243726Y-98038430D01*
X158278388Y-98167317D01*
X158421391Y-98167317D01*
X158378646Y-98032143D01*
X158357596Y-97965658D01*
X158332167Y-97885461D01*
X158305610Y-97801807D01*
X158281902Y-97727218D01*
X158227902Y-97557465D01*
X158169598Y-97553672D01*
X158111295Y-97549878D01*
X158079679Y-97654266D01*
X158060182Y-97719111D01*
X158038904Y-97790600D01*
X158020308Y-97853737D01*
X158019574Y-97856250D01*
X158005684Y-97899031D01*
X157993429Y-97928221D01*
X157984846Y-97939259D01*
X157983082Y-97937982D01*
X157976891Y-97920870D01*
X157965128Y-97884213D01*
X157949225Y-97832622D01*
X157930614Y-97770706D01*
X157920543Y-97736648D01*
X157866007Y-97551178D01*
X157750264Y-97551178D01*
X157657737Y-97843529D01*
X157631744Y-97925538D01*
X157608066Y-98000013D01*
X157587820Y-98063456D01*
X157572126Y-98112368D01*
X157562102Y-98143251D01*
X157559055Y-98152274D01*
X157561467Y-98161513D01*
X157580408Y-98165559D01*
X157619823Y-98165154D01*
X157625993Y-98164848D01*
X157699086Y-98161029D01*
X157746957Y-97984990D01*
X157764553Y-97920789D01*
X157780277Y-97864351D01*
X157792746Y-97820578D01*
X157800574Y-97794370D01*
X157802020Y-97790097D01*
X157808014Y-97795010D01*
X157820101Y-97820468D01*
X157836893Y-97863003D01*
X157857003Y-97919150D01*
X157874003Y-97969870D01*
X157938794Y-98168496D01*
X157988524Y-98164763D01*
X157988524Y-98164763D01*
G37*
X157988524Y-98164763D02*
X158038255Y-98161029D01*
X158168291Y-97771227D01*
X158188678Y-97840386D01*
X158200946Y-97883126D01*
X158217085Y-97940885D01*
X158234512Y-98004375D01*
X158243726Y-98038430D01*
X158278388Y-98167317D01*
X158421391Y-98167317D01*
X158378646Y-98032143D01*
X158357596Y-97965658D01*
X158332167Y-97885461D01*
X158305610Y-97801807D01*
X158281902Y-97727218D01*
X158227902Y-97557465D01*
X158169598Y-97553672D01*
X158111295Y-97549878D01*
X158079679Y-97654266D01*
X158060182Y-97719111D01*
X158038904Y-97790600D01*
X158020308Y-97853737D01*
X158019574Y-97856250D01*
X158005684Y-97899031D01*
X157993429Y-97928221D01*
X157984846Y-97939259D01*
X157983082Y-97937982D01*
X157976891Y-97920870D01*
X157965128Y-97884213D01*
X157949225Y-97832622D01*
X157930614Y-97770706D01*
X157920543Y-97736648D01*
X157866007Y-97551178D01*
X157750264Y-97551178D01*
X157657737Y-97843529D01*
X157631744Y-97925538D01*
X157608066Y-98000013D01*
X157587820Y-98063456D01*
X157572126Y-98112368D01*
X157562102Y-98143251D01*
X157559055Y-98152274D01*
X157561467Y-98161513D01*
X157580408Y-98165559D01*
X157619823Y-98165154D01*
X157625993Y-98164848D01*
X157699086Y-98161029D01*
X157746957Y-97984990D01*
X157764553Y-97920789D01*
X157780277Y-97864351D01*
X157792746Y-97820578D01*
X157800574Y-97794370D01*
X157802020Y-97790097D01*
X157808014Y-97795010D01*
X157820101Y-97820468D01*
X157836893Y-97863003D01*
X157857003Y-97919150D01*
X157874003Y-97969870D01*
X157938794Y-98168496D01*
X157988524Y-98164763D01*
G36*
X158745411Y-98163583D02*
X158798411Y-98150710D01*
X158813731Y-98143890D01*
X158843428Y-98126026D01*
X158866220Y-98105907D01*
X158883083Y-98080038D01*
X158894998Y-98044927D01*
X158902942Y-97997080D01*
X158907894Y-97933004D01*
X158910831Y-97849206D01*
X158911947Y-97793232D01*
X158916052Y-97551178D01*
X158845932Y-97551178D01*
X158803393Y-97552962D01*
X158781476Y-97559058D01*
X158775812Y-97569294D01*
X158772821Y-97580363D01*
X158759451Y-97578246D01*
X158741233Y-97569371D01*
X158695624Y-97555767D01*
X158637007Y-97552101D01*
X158575354Y-97558097D01*
X158520638Y-97573479D01*
X158515730Y-97575614D01*
X158465723Y-97610745D01*
X158432756Y-97659581D01*
X158417587Y-97716667D01*
X158418746Y-97737176D01*
X158542508Y-97737176D01*
X158553413Y-97709575D01*
X158585745Y-97689796D01*
X158637910Y-97679181D01*
X158665787Y-97677772D01*
X158712247Y-97681380D01*
X158743129Y-97695403D01*
X158750664Y-97702069D01*
X158771076Y-97738334D01*
X158775812Y-97771227D01*
X158775812Y-97815237D01*
X158714513Y-97815237D01*
X158643256Y-97811605D01*
X158593276Y-97800182D01*
X158561696Y-97780176D01*
X158554626Y-97771257D01*
X158542508Y-97737176D01*
X158418746Y-97737176D01*
X158420971Y-97776544D01*
X158443663Y-97833756D01*
X158474624Y-97872420D01*
X158493376Y-97889136D01*
X158511733Y-97900122D01*
X158535619Y-97906820D01*
X158570957Y-97910674D01*
X158623669Y-97913127D01*
X158644577Y-97913832D01*
X158775812Y-97918121D01*
X158775620Y-97957842D01*
X158770537Y-97999595D01*
X158752162Y-98024842D01*
X158715039Y-98040970D01*
X158714043Y-98041258D01*
X158661410Y-98047600D01*
X158609906Y-98039316D01*
X158571630Y-98019173D01*
X158556272Y-98009227D01*
X158539730Y-98010603D01*
X158514275Y-98025013D01*
X158499328Y-98035183D01*
X158470091Y-98056912D01*
X158451980Y-98073200D01*
X158449074Y-98077863D01*
X158461040Y-98101995D01*
X158496396Y-98130815D01*
X158511753Y-98140539D01*
X158555901Y-98157286D01*
X158615398Y-98166773D01*
X158681487Y-98168905D01*
X158745411Y-98163583D01*
X158745411Y-98163583D01*
G37*
X158745411Y-98163583D02*
X158798411Y-98150710D01*
X158813731Y-98143890D01*
X158843428Y-98126026D01*
X158866220Y-98105907D01*
X158883083Y-98080038D01*
X158894998Y-98044927D01*
X158902942Y-97997080D01*
X158907894Y-97933004D01*
X158910831Y-97849206D01*
X158911947Y-97793232D01*
X158916052Y-97551178D01*
X158845932Y-97551178D01*
X158803393Y-97552962D01*
X158781476Y-97559058D01*
X158775812Y-97569294D01*
X158772821Y-97580363D01*
X158759451Y-97578246D01*
X158741233Y-97569371D01*
X158695624Y-97555767D01*
X158637007Y-97552101D01*
X158575354Y-97558097D01*
X158520638Y-97573479D01*
X158515730Y-97575614D01*
X158465723Y-97610745D01*
X158432756Y-97659581D01*
X158417587Y-97716667D01*
X158418746Y-97737176D01*
X158542508Y-97737176D01*
X158553413Y-97709575D01*
X158585745Y-97689796D01*
X158637910Y-97679181D01*
X158665787Y-97677772D01*
X158712247Y-97681380D01*
X158743129Y-97695403D01*
X158750664Y-97702069D01*
X158771076Y-97738334D01*
X158775812Y-97771227D01*
X158775812Y-97815237D01*
X158714513Y-97815237D01*
X158643256Y-97811605D01*
X158593276Y-97800182D01*
X158561696Y-97780176D01*
X158554626Y-97771257D01*
X158542508Y-97737176D01*
X158418746Y-97737176D01*
X158420971Y-97776544D01*
X158443663Y-97833756D01*
X158474624Y-97872420D01*
X158493376Y-97889136D01*
X158511733Y-97900122D01*
X158535619Y-97906820D01*
X158570957Y-97910674D01*
X158623669Y-97913127D01*
X158644577Y-97913832D01*
X158775812Y-97918121D01*
X158775620Y-97957842D01*
X158770537Y-97999595D01*
X158752162Y-98024842D01*
X158715039Y-98040970D01*
X158714043Y-98041258D01*
X158661410Y-98047600D01*
X158609906Y-98039316D01*
X158571630Y-98019173D01*
X158556272Y-98009227D01*
X158539730Y-98010603D01*
X158514275Y-98025013D01*
X158499328Y-98035183D01*
X158470091Y-98056912D01*
X158451980Y-98073200D01*
X158449074Y-98077863D01*
X158461040Y-98101995D01*
X158496396Y-98130815D01*
X158511753Y-98140539D01*
X158555901Y-98157286D01*
X158615398Y-98166773D01*
X158681487Y-98168905D01*
X158745411Y-98163583D01*
G36*
X159342255Y-98167514D02*
X159390595Y-98157985D01*
X159418114Y-98143875D01*
X159447064Y-98120432D01*
X159405876Y-98068429D01*
X159380482Y-98036936D01*
X159363238Y-98021572D01*
X159346102Y-98019224D01*
X159321027Y-98026783D01*
X159309257Y-98031059D01*
X159261270Y-98037369D01*
X159217324Y-98023844D01*
X159185060Y-97993290D01*
X159179819Y-97983548D01*
X159174112Y-97957742D01*
X159169706Y-97910183D01*
X159166811Y-97844242D01*
X159165631Y-97763290D01*
X159165614Y-97751774D01*
X159165614Y-97551178D01*
X159027297Y-97551178D01*
X159027297Y-98167317D01*
X159096456Y-98167317D01*
X159136333Y-98166275D01*
X159157107Y-98161642D01*
X159164789Y-98151151D01*
X159165614Y-98141255D01*
X159165614Y-98115194D01*
X159198745Y-98141255D01*
X159236735Y-98159035D01*
X159287770Y-98167826D01*
X159342255Y-98167514D01*
X159342255Y-98167514D01*
G37*
X159342255Y-98167514D02*
X159390595Y-98157985D01*
X159418114Y-98143875D01*
X159447064Y-98120432D01*
X159405876Y-98068429D01*
X159380482Y-98036936D01*
X159363238Y-98021572D01*
X159346102Y-98019224D01*
X159321027Y-98026783D01*
X159309257Y-98031059D01*
X159261270Y-98037369D01*
X159217324Y-98023844D01*
X159185060Y-97993290D01*
X159179819Y-97983548D01*
X159174112Y-97957742D01*
X159169706Y-97910183D01*
X159166811Y-97844242D01*
X159165631Y-97763290D01*
X159165614Y-97751774D01*
X159165614Y-97551178D01*
X159027297Y-97551178D01*
X159027297Y-98167317D01*
X159096456Y-98167317D01*
X159136333Y-98166275D01*
X159157107Y-98161642D01*
X159164789Y-98151151D01*
X159165614Y-98141255D01*
X159165614Y-98115194D01*
X159198745Y-98141255D01*
X159236735Y-98159035D01*
X159287770Y-98167826D01*
X159342255Y-98167514D01*
G36*
X159739581Y-98164030D02*
X159799685Y-98148403D01*
X159850021Y-98116152D01*
X159874393Y-98092060D01*
X159914345Y-98035105D01*
X159937242Y-97969035D01*
X159945108Y-97887818D01*
X159945148Y-97881252D01*
X159945218Y-97815237D01*
X159565264Y-97815237D01*
X159573363Y-97780658D01*
X159587987Y-97749341D01*
X159613581Y-97716709D01*
X159618935Y-97711500D01*
X159664943Y-97683306D01*
X159717410Y-97678525D01*
X159777803Y-97697074D01*
X159788040Y-97702069D01*
X159819439Y-97717255D01*
X159840470Y-97725906D01*
X159844139Y-97726707D01*
X159856948Y-97718937D01*
X159881378Y-97699928D01*
X159893779Y-97689540D01*
X159919476Y-97665679D01*
X159927915Y-97649923D01*
X159922058Y-97635429D01*
X159918928Y-97631466D01*
X159897725Y-97614121D01*
X159862738Y-97593041D01*
X159838337Y-97580735D01*
X159769072Y-97559054D01*
X159692388Y-97552029D01*
X159619765Y-97560353D01*
X159599426Y-97566314D01*
X159536476Y-97600048D01*
X159489815Y-97651955D01*
X159459173Y-97722541D01*
X159444282Y-97812308D01*
X159442647Y-97859247D01*
X159447421Y-97927587D01*
X159567990Y-97927587D01*
X159579652Y-97922535D01*
X159610998Y-97918571D01*
X159656571Y-97916232D01*
X159687446Y-97915831D01*
X159742981Y-97916217D01*
X159778033Y-97918025D01*
X159797262Y-97922227D01*
X159805330Y-97929797D01*
X159806901Y-97940782D01*
X159796121Y-97974619D01*
X159768980Y-98008060D01*
X159733277Y-98033728D01*
X159697560Y-98044228D01*
X159649048Y-98034914D01*
X159607053Y-98007987D01*
X159577936Y-97969173D01*
X159567990Y-97927587D01*
X159447421Y-97927587D01*
X159449599Y-97958764D01*
X159471055Y-98038051D01*
X159507470Y-98097737D01*
X159559297Y-98138451D01*
X159626990Y-98160821D01*
X159663662Y-98165129D01*
X159739581Y-98164030D01*
X159739581Y-98164030D01*
G37*
X159739581Y-98164030D02*
X159799685Y-98148403D01*
X159850021Y-98116152D01*
X159874393Y-98092060D01*
X159914345Y-98035105D01*
X159937242Y-97969035D01*
X159945108Y-97887818D01*
X159945148Y-97881252D01*
X159945218Y-97815237D01*
X159565264Y-97815237D01*
X159573363Y-97780658D01*
X159587987Y-97749341D01*
X159613581Y-97716709D01*
X159618935Y-97711500D01*
X159664943Y-97683306D01*
X159717410Y-97678525D01*
X159777803Y-97697074D01*
X159788040Y-97702069D01*
X159819439Y-97717255D01*
X159840470Y-97725906D01*
X159844139Y-97726707D01*
X159856948Y-97718937D01*
X159881378Y-97699928D01*
X159893779Y-97689540D01*
X159919476Y-97665679D01*
X159927915Y-97649923D01*
X159922058Y-97635429D01*
X159918928Y-97631466D01*
X159897725Y-97614121D01*
X159862738Y-97593041D01*
X159838337Y-97580735D01*
X159769072Y-97559054D01*
X159692388Y-97552029D01*
X159619765Y-97560353D01*
X159599426Y-97566314D01*
X159536476Y-97600048D01*
X159489815Y-97651955D01*
X159459173Y-97722541D01*
X159444282Y-97812308D01*
X159442647Y-97859247D01*
X159447421Y-97927587D01*
X159567990Y-97927587D01*
X159579652Y-97922535D01*
X159610998Y-97918571D01*
X159656571Y-97916232D01*
X159687446Y-97915831D01*
X159742981Y-97916217D01*
X159778033Y-97918025D01*
X159797262Y-97922227D01*
X159805330Y-97929797D01*
X159806901Y-97940782D01*
X159796121Y-97974619D01*
X159768980Y-98008060D01*
X159733277Y-98033728D01*
X159697560Y-98044228D01*
X159649048Y-98034914D01*
X159607053Y-98007987D01*
X159577936Y-97969173D01*
X159567990Y-97927587D01*
X159447421Y-97927587D01*
X159449599Y-97958764D01*
X159471055Y-98038051D01*
X159507470Y-98097737D01*
X159559297Y-98138451D01*
X159626990Y-98160821D01*
X159663662Y-98165129D01*
X159739581Y-98164030D01*
G36*
X155168739Y-99103852D02*
X155234521Y-99074769D01*
X155284460Y-99026207D01*
X155318626Y-98958092D01*
X155337093Y-98870349D01*
X155338417Y-98856649D01*
X155339454Y-98760061D01*
X155326007Y-98675398D01*
X155298892Y-98606779D01*
X155284373Y-98584706D01*
X155233799Y-98537989D01*
X155169391Y-98507732D01*
X155097334Y-98495176D01*
X155023815Y-98501561D01*
X154967928Y-98521228D01*
X154919868Y-98554371D01*
X154880588Y-98597825D01*
X154879908Y-98598842D01*
X154863956Y-98625662D01*
X154853590Y-98652632D01*
X154847312Y-98686668D01*
X154843627Y-98734690D01*
X154842003Y-98774069D01*
X154841328Y-98809781D01*
X154967045Y-98809781D01*
X154968274Y-98774230D01*
X154972734Y-98726906D01*
X154980603Y-98696535D01*
X154994793Y-98674928D01*
X155008083Y-98662306D01*
X155055198Y-98635878D01*
X155104495Y-98632347D01*
X155150407Y-98651361D01*
X155173362Y-98672669D01*
X155189904Y-98694141D01*
X155199579Y-98714687D01*
X155203826Y-98741426D01*
X155204080Y-98781477D01*
X155202772Y-98818362D01*
X155199957Y-98871053D01*
X155195495Y-98905228D01*
X155187452Y-98927520D01*
X155173897Y-98944558D01*
X155163155Y-98954297D01*
X155118223Y-98979877D01*
X155069751Y-98981153D01*
X155029106Y-98966001D01*
X154994433Y-98934358D01*
X154973776Y-98882380D01*
X154967045Y-98809781D01*
X154841328Y-98809781D01*
X154840521Y-98852379D01*
X154843052Y-98910944D01*
X154850638Y-98954993D01*
X154864319Y-98989752D01*
X154885135Y-99020449D01*
X154892853Y-99029564D01*
X154941111Y-99074979D01*
X154992872Y-99101507D01*
X155056172Y-99112621D01*
X155087039Y-99113529D01*
X155168739Y-99103852D01*
X155168739Y-99103852D01*
G37*
X155168739Y-99103852D02*
X155234521Y-99074769D01*
X155284460Y-99026207D01*
X155318626Y-98958092D01*
X155337093Y-98870349D01*
X155338417Y-98856649D01*
X155339454Y-98760061D01*
X155326007Y-98675398D01*
X155298892Y-98606779D01*
X155284373Y-98584706D01*
X155233799Y-98537989D01*
X155169391Y-98507732D01*
X155097334Y-98495176D01*
X155023815Y-98501561D01*
X154967928Y-98521228D01*
X154919868Y-98554371D01*
X154880588Y-98597825D01*
X154879908Y-98598842D01*
X154863956Y-98625662D01*
X154853590Y-98652632D01*
X154847312Y-98686668D01*
X154843627Y-98734690D01*
X154842003Y-98774069D01*
X154841328Y-98809781D01*
X154967045Y-98809781D01*
X154968274Y-98774230D01*
X154972734Y-98726906D01*
X154980603Y-98696535D01*
X154994793Y-98674928D01*
X155008083Y-98662306D01*
X155055198Y-98635878D01*
X155104495Y-98632347D01*
X155150407Y-98651361D01*
X155173362Y-98672669D01*
X155189904Y-98694141D01*
X155199579Y-98714687D01*
X155203826Y-98741426D01*
X155204080Y-98781477D01*
X155202772Y-98818362D01*
X155199957Y-98871053D01*
X155195495Y-98905228D01*
X155187452Y-98927520D01*
X155173897Y-98944558D01*
X155163155Y-98954297D01*
X155118223Y-98979877D01*
X155069751Y-98981153D01*
X155029106Y-98966001D01*
X154994433Y-98934358D01*
X154973776Y-98882380D01*
X154967045Y-98809781D01*
X154841328Y-98809781D01*
X154840521Y-98852379D01*
X154843052Y-98910944D01*
X154850638Y-98954993D01*
X154864319Y-98989752D01*
X154885135Y-99020449D01*
X154892853Y-99029564D01*
X154941111Y-99074979D01*
X154992872Y-99101507D01*
X155056172Y-99112621D01*
X155087039Y-99113529D01*
X155168739Y-99103852D01*
G36*
X156350301Y-99096386D02*
X156362832Y-99090486D01*
X156406201Y-99058717D01*
X156447210Y-99012354D01*
X156477832Y-98961304D01*
X156486541Y-98937834D01*
X156494488Y-98895909D01*
X156499226Y-98845243D01*
X156499801Y-98824321D01*
X156499871Y-98758307D01*
X156119917Y-98758307D01*
X156128017Y-98723727D01*
X156147896Y-98682830D01*
X156182653Y-98647486D01*
X156224002Y-98624718D01*
X156250351Y-98619990D01*
X156286084Y-98625727D01*
X156328718Y-98640118D01*
X156343201Y-98646738D01*
X156396760Y-98673487D01*
X156442467Y-98638624D01*
X156468842Y-98615045D01*
X156482876Y-98595583D01*
X156483586Y-98589871D01*
X156471049Y-98576027D01*
X156443572Y-98554988D01*
X156418634Y-98538575D01*
X156351336Y-98509070D01*
X156275890Y-98495716D01*
X156201112Y-98499188D01*
X156141505Y-98517337D01*
X156080059Y-98556216D01*
X156036392Y-98607405D01*
X156009074Y-98673633D01*
X155996678Y-98757629D01*
X155995579Y-98796064D01*
X155999978Y-98884139D01*
X156000518Y-98886701D01*
X156126418Y-98886701D01*
X156129885Y-98878442D01*
X156144137Y-98873887D01*
X156173530Y-98871935D01*
X156222425Y-98871483D01*
X156241252Y-98871475D01*
X156298533Y-98872157D01*
X156334859Y-98874636D01*
X156354396Y-98879557D01*
X156361310Y-98887566D01*
X156361555Y-98890138D01*
X156353664Y-98910577D01*
X156333915Y-98939211D01*
X156325425Y-98949237D01*
X156293906Y-98977592D01*
X156261051Y-98988741D01*
X156243349Y-98989673D01*
X156195461Y-98978019D01*
X156155301Y-98946715D01*
X156129827Y-98901248D01*
X156129375Y-98899767D01*
X156126418Y-98886701D01*
X156000518Y-98886701D01*
X156014608Y-98953490D01*
X156040962Y-99008975D01*
X156073193Y-99048361D01*
X156132783Y-99091069D01*
X156202832Y-99113891D01*
X156277339Y-99115954D01*
X156350301Y-99096386D01*
X156350301Y-99096386D01*
G37*
X156350301Y-99096386D02*
X156362832Y-99090486D01*
X156406201Y-99058717D01*
X156447210Y-99012354D01*
X156477832Y-98961304D01*
X156486541Y-98937834D01*
X156494488Y-98895909D01*
X156499226Y-98845243D01*
X156499801Y-98824321D01*
X156499871Y-98758307D01*
X156119917Y-98758307D01*
X156128017Y-98723727D01*
X156147896Y-98682830D01*
X156182653Y-98647486D01*
X156224002Y-98624718D01*
X156250351Y-98619990D01*
X156286084Y-98625727D01*
X156328718Y-98640118D01*
X156343201Y-98646738D01*
X156396760Y-98673487D01*
X156442467Y-98638624D01*
X156468842Y-98615045D01*
X156482876Y-98595583D01*
X156483586Y-98589871D01*
X156471049Y-98576027D01*
X156443572Y-98554988D01*
X156418634Y-98538575D01*
X156351336Y-98509070D01*
X156275890Y-98495716D01*
X156201112Y-98499188D01*
X156141505Y-98517337D01*
X156080059Y-98556216D01*
X156036392Y-98607405D01*
X156009074Y-98673633D01*
X155996678Y-98757629D01*
X155995579Y-98796064D01*
X155999978Y-98884139D01*
X156000518Y-98886701D01*
X156126418Y-98886701D01*
X156129885Y-98878442D01*
X156144137Y-98873887D01*
X156173530Y-98871935D01*
X156222425Y-98871483D01*
X156241252Y-98871475D01*
X156298533Y-98872157D01*
X156334859Y-98874636D01*
X156354396Y-98879557D01*
X156361310Y-98887566D01*
X156361555Y-98890138D01*
X156353664Y-98910577D01*
X156333915Y-98939211D01*
X156325425Y-98949237D01*
X156293906Y-98977592D01*
X156261051Y-98988741D01*
X156243349Y-98989673D01*
X156195461Y-98978019D01*
X156155301Y-98946715D01*
X156129827Y-98901248D01*
X156129375Y-98899767D01*
X156126418Y-98886701D01*
X156000518Y-98886701D01*
X156014608Y-98953490D01*
X156040962Y-99008975D01*
X156073193Y-99048361D01*
X156132783Y-99091069D01*
X156202832Y-99113891D01*
X156277339Y-99115954D01*
X156350301Y-99096386D01*
G36*
X157721017Y-99112548D02*
X157768634Y-99103518D01*
X157818034Y-99084630D01*
X157823312Y-99082223D01*
X157860774Y-99062524D01*
X157886717Y-99044219D01*
X157895103Y-99032492D01*
X157887117Y-99013368D01*
X157867720Y-98985150D01*
X157859110Y-98974616D01*
X157823628Y-98933153D01*
X157777885Y-98960142D01*
X157734350Y-98978122D01*
X157684050Y-98987733D01*
X157635812Y-98988340D01*
X157598467Y-98979309D01*
X157589505Y-98973673D01*
X157572437Y-98947829D01*
X157570363Y-98918059D01*
X157583134Y-98894803D01*
X157590688Y-98890292D01*
X157613325Y-98884691D01*
X157653115Y-98878108D01*
X157702166Y-98871817D01*
X157711215Y-98870830D01*
X157789996Y-98857202D01*
X157847136Y-98834054D01*
X157885030Y-98799248D01*
X157906079Y-98750646D01*
X157912635Y-98691282D01*
X157903577Y-98623802D01*
X157874164Y-98570812D01*
X157824278Y-98532217D01*
X157753800Y-98507919D01*
X157675565Y-98498333D01*
X157611766Y-98498448D01*
X157560016Y-98507155D01*
X157524673Y-98519175D01*
X157480017Y-98540120D01*
X157438747Y-98564426D01*
X157424079Y-98575124D01*
X157386357Y-98605916D01*
X157431852Y-98651951D01*
X157477347Y-98697987D01*
X157529072Y-98663757D01*
X157580952Y-98638048D01*
X157636351Y-98624601D01*
X157689605Y-98623182D01*
X157735049Y-98633557D01*
X157767016Y-98655493D01*
X157777338Y-98674002D01*
X157775789Y-98703686D01*
X157750140Y-98726385D01*
X157700460Y-98742060D01*
X157646031Y-98749305D01*
X157562264Y-98763127D01*
X157500033Y-98789204D01*
X157458507Y-98828301D01*
X157436853Y-98881180D01*
X157433853Y-98943874D01*
X157448671Y-99009358D01*
X157482454Y-99058856D01*
X157535505Y-99092592D01*
X157608126Y-99110793D01*
X157661928Y-99114361D01*
X157721017Y-99112548D01*
X157721017Y-99112548D01*
G37*
X157721017Y-99112548D02*
X157768634Y-99103518D01*
X157818034Y-99084630D01*
X157823312Y-99082223D01*
X157860774Y-99062524D01*
X157886717Y-99044219D01*
X157895103Y-99032492D01*
X157887117Y-99013368D01*
X157867720Y-98985150D01*
X157859110Y-98974616D01*
X157823628Y-98933153D01*
X157777885Y-98960142D01*
X157734350Y-98978122D01*
X157684050Y-98987733D01*
X157635812Y-98988340D01*
X157598467Y-98979309D01*
X157589505Y-98973673D01*
X157572437Y-98947829D01*
X157570363Y-98918059D01*
X157583134Y-98894803D01*
X157590688Y-98890292D01*
X157613325Y-98884691D01*
X157653115Y-98878108D01*
X157702166Y-98871817D01*
X157711215Y-98870830D01*
X157789996Y-98857202D01*
X157847136Y-98834054D01*
X157885030Y-98799248D01*
X157906079Y-98750646D01*
X157912635Y-98691282D01*
X157903577Y-98623802D01*
X157874164Y-98570812D01*
X157824278Y-98532217D01*
X157753800Y-98507919D01*
X157675565Y-98498333D01*
X157611766Y-98498448D01*
X157560016Y-98507155D01*
X157524673Y-98519175D01*
X157480017Y-98540120D01*
X157438747Y-98564426D01*
X157424079Y-98575124D01*
X157386357Y-98605916D01*
X157431852Y-98651951D01*
X157477347Y-98697987D01*
X157529072Y-98663757D01*
X157580952Y-98638048D01*
X157636351Y-98624601D01*
X157689605Y-98623182D01*
X157735049Y-98633557D01*
X157767016Y-98655493D01*
X157777338Y-98674002D01*
X157775789Y-98703686D01*
X157750140Y-98726385D01*
X157700460Y-98742060D01*
X157646031Y-98749305D01*
X157562264Y-98763127D01*
X157500033Y-98789204D01*
X157458507Y-98828301D01*
X157436853Y-98881180D01*
X157433853Y-98943874D01*
X157448671Y-99009358D01*
X157482454Y-99058856D01*
X157535505Y-99092592D01*
X157608126Y-99110793D01*
X157661928Y-99114361D01*
X157721017Y-99112548D01*
G36*
X158317762Y-99102945D02*
X158381363Y-99068308D01*
X158431123Y-99013628D01*
X158454568Y-98969158D01*
X158464634Y-98929879D01*
X158471156Y-98873884D01*
X158473951Y-98809379D01*
X158472836Y-98744571D01*
X158467626Y-98687666D01*
X158461541Y-98657273D01*
X158441014Y-98615694D01*
X158405463Y-98571532D01*
X158362619Y-98532913D01*
X158320211Y-98507966D01*
X158319177Y-98507570D01*
X158266553Y-98496669D01*
X158204188Y-98496399D01*
X158144924Y-98506324D01*
X158122040Y-98514278D01*
X158063102Y-98547700D01*
X158020890Y-98591489D01*
X157993156Y-98649462D01*
X157977651Y-98725435D01*
X157974143Y-98765229D01*
X157974590Y-98815234D01*
X158109376Y-98815234D01*
X158113917Y-98742268D01*
X158126986Y-98686666D01*
X158147756Y-98651139D01*
X158162552Y-98640980D01*
X158200464Y-98633896D01*
X158245527Y-98635993D01*
X158284487Y-98646188D01*
X158294704Y-98651796D01*
X158321659Y-98684462D01*
X158339451Y-98734455D01*
X158347024Y-98795295D01*
X158343325Y-98860503D01*
X158335057Y-98899747D01*
X158311320Y-98945195D01*
X158273849Y-98973604D01*
X158228720Y-98983427D01*
X158182011Y-98973113D01*
X158146132Y-98947888D01*
X158127277Y-98927075D01*
X158116272Y-98906561D01*
X158111026Y-98878797D01*
X158109449Y-98836238D01*
X158109376Y-98815234D01*
X157974590Y-98815234D01*
X157975094Y-98871420D01*
X157992388Y-98958499D01*
X158026029Y-99026470D01*
X158076018Y-99075336D01*
X158142356Y-99105101D01*
X158156601Y-99108552D01*
X158242210Y-99116655D01*
X158317762Y-99102945D01*
X158317762Y-99102945D01*
G37*
X158317762Y-99102945D02*
X158381363Y-99068308D01*
X158431123Y-99013628D01*
X158454568Y-98969158D01*
X158464634Y-98929879D01*
X158471156Y-98873884D01*
X158473951Y-98809379D01*
X158472836Y-98744571D01*
X158467626Y-98687666D01*
X158461541Y-98657273D01*
X158441014Y-98615694D01*
X158405463Y-98571532D01*
X158362619Y-98532913D01*
X158320211Y-98507966D01*
X158319177Y-98507570D01*
X158266553Y-98496669D01*
X158204188Y-98496399D01*
X158144924Y-98506324D01*
X158122040Y-98514278D01*
X158063102Y-98547700D01*
X158020890Y-98591489D01*
X157993156Y-98649462D01*
X157977651Y-98725435D01*
X157974143Y-98765229D01*
X157974590Y-98815234D01*
X158109376Y-98815234D01*
X158113917Y-98742268D01*
X158126986Y-98686666D01*
X158147756Y-98651139D01*
X158162552Y-98640980D01*
X158200464Y-98633896D01*
X158245527Y-98635993D01*
X158284487Y-98646188D01*
X158294704Y-98651796D01*
X158321659Y-98684462D01*
X158339451Y-98734455D01*
X158347024Y-98795295D01*
X158343325Y-98860503D01*
X158335057Y-98899747D01*
X158311320Y-98945195D01*
X158273849Y-98973604D01*
X158228720Y-98983427D01*
X158182011Y-98973113D01*
X158146132Y-98947888D01*
X158127277Y-98927075D01*
X158116272Y-98906561D01*
X158111026Y-98878797D01*
X158109449Y-98836238D01*
X158109376Y-98815234D01*
X157974590Y-98815234D01*
X157975094Y-98871420D01*
X157992388Y-98958499D01*
X158026029Y-99026470D01*
X158076018Y-99075336D01*
X158142356Y-99105101D01*
X158156601Y-99108552D01*
X158242210Y-99116655D01*
X158317762Y-99102945D01*
G36*
X158700367Y-98914658D02*
X158701555Y-98822437D01*
X158705897Y-98752390D01*
X158714558Y-98701619D01*
X158728704Y-98667228D01*
X158749500Y-98646321D01*
X158778110Y-98636000D01*
X158813535Y-98633364D01*
X158850636Y-98636318D01*
X158878818Y-98647111D01*
X158899243Y-98668640D01*
X158913079Y-98703801D01*
X158921491Y-98755490D01*
X158925643Y-98826606D01*
X158926703Y-98914658D01*
X158926703Y-99110386D01*
X159065020Y-99110386D01*
X159065020Y-98506821D01*
X158995862Y-98506821D01*
X158954170Y-98508511D01*
X158932701Y-98514444D01*
X158926703Y-98525707D01*
X158923091Y-98535739D01*
X158908714Y-98533617D01*
X158879736Y-98519420D01*
X158813319Y-98497520D01*
X158742875Y-98499072D01*
X158675377Y-98522853D01*
X158643233Y-98541638D01*
X158618715Y-98561978D01*
X158600804Y-98587427D01*
X158588479Y-98621542D01*
X158580723Y-98667879D01*
X158576516Y-98729993D01*
X158574840Y-98811439D01*
X158574624Y-98874422D01*
X158574624Y-99110386D01*
X158700367Y-99110386D01*
X158700367Y-98914658D01*
X158700367Y-98914658D01*
G37*
X158700367Y-98914658D02*
X158701555Y-98822437D01*
X158705897Y-98752390D01*
X158714558Y-98701619D01*
X158728704Y-98667228D01*
X158749500Y-98646321D01*
X158778110Y-98636000D01*
X158813535Y-98633364D01*
X158850636Y-98636318D01*
X158878818Y-98647111D01*
X158899243Y-98668640D01*
X158913079Y-98703801D01*
X158921491Y-98755490D01*
X158925643Y-98826606D01*
X158926703Y-98914658D01*
X158926703Y-99110386D01*
X159065020Y-99110386D01*
X159065020Y-98506821D01*
X158995862Y-98506821D01*
X158954170Y-98508511D01*
X158932701Y-98514444D01*
X158926703Y-98525707D01*
X158923091Y-98535739D01*
X158908714Y-98533617D01*
X158879736Y-98519420D01*
X158813319Y-98497520D01*
X158742875Y-98499072D01*
X158675377Y-98522853D01*
X158643233Y-98541638D01*
X158618715Y-98561978D01*
X158600804Y-98587427D01*
X158588479Y-98621542D01*
X158580723Y-98667879D01*
X158576516Y-98729993D01*
X158574840Y-98811439D01*
X158574624Y-98874422D01*
X158574624Y-99110386D01*
X158700367Y-99110386D01*
X158700367Y-98914658D01*
G36*
X159924226Y-99105120D02*
X159997080Y-99074170D01*
X160020027Y-99059105D01*
X160049354Y-99035952D01*
X160067764Y-99017747D01*
X160070961Y-99011817D01*
X160061935Y-98998660D01*
X160038837Y-98976333D01*
X160020344Y-98960750D01*
X159969728Y-98920074D01*
X159929760Y-98953705D01*
X159898874Y-98975416D01*
X159868759Y-98982910D01*
X159834292Y-98981080D01*
X159779561Y-98967472D01*
X159741886Y-98939228D01*
X159718991Y-98893567D01*
X159708597Y-98827711D01*
X159708595Y-98827669D01*
X159709494Y-98754061D01*
X159723463Y-98700054D01*
X159751328Y-98663284D01*
X159770325Y-98650832D01*
X159820776Y-98635327D01*
X159874663Y-98635317D01*
X159921546Y-98650362D01*
X159932644Y-98657713D01*
X159960476Y-98676489D01*
X159982236Y-98679566D01*
X160005704Y-98665591D01*
X160031649Y-98640490D01*
X160072716Y-98598120D01*
X160027121Y-98560536D01*
X159956674Y-98518118D01*
X159877233Y-98497215D01*
X159794215Y-98498728D01*
X159739694Y-98512589D01*
X159675970Y-98546865D01*
X159625005Y-98600788D01*
X159601851Y-98638851D01*
X159583099Y-98693464D01*
X159573715Y-98762631D01*
X159573643Y-98837593D01*
X159582824Y-98909591D01*
X159601199Y-98969863D01*
X159604093Y-98976042D01*
X159646952Y-99036649D01*
X159704979Y-99080776D01*
X159773591Y-99107507D01*
X159848201Y-99115927D01*
X159924226Y-99105120D01*
X159924226Y-99105120D01*
G37*
X159924226Y-99105120D02*
X159997080Y-99074170D01*
X160020027Y-99059105D01*
X160049354Y-99035952D01*
X160067764Y-99017747D01*
X160070961Y-99011817D01*
X160061935Y-98998660D01*
X160038837Y-98976333D01*
X160020344Y-98960750D01*
X159969728Y-98920074D01*
X159929760Y-98953705D01*
X159898874Y-98975416D01*
X159868759Y-98982910D01*
X159834292Y-98981080D01*
X159779561Y-98967472D01*
X159741886Y-98939228D01*
X159718991Y-98893567D01*
X159708597Y-98827711D01*
X159708595Y-98827669D01*
X159709494Y-98754061D01*
X159723463Y-98700054D01*
X159751328Y-98663284D01*
X159770325Y-98650832D01*
X159820776Y-98635327D01*
X159874663Y-98635317D01*
X159921546Y-98650362D01*
X159932644Y-98657713D01*
X159960476Y-98676489D01*
X159982236Y-98679566D01*
X160005704Y-98665591D01*
X160031649Y-98640490D01*
X160072716Y-98598120D01*
X160027121Y-98560536D01*
X159956674Y-98518118D01*
X159877233Y-98497215D01*
X159794215Y-98498728D01*
X159739694Y-98512589D01*
X159675970Y-98546865D01*
X159625005Y-98600788D01*
X159601851Y-98638851D01*
X159583099Y-98693464D01*
X159573715Y-98762631D01*
X159573643Y-98837593D01*
X159582824Y-98909591D01*
X159601199Y-98969863D01*
X159604093Y-98976042D01*
X159646952Y-99036649D01*
X159704979Y-99080776D01*
X159773591Y-99107507D01*
X159848201Y-99115927D01*
X159924226Y-99105120D01*
G36*
X160384898Y-99112543D02*
X160417096Y-99104721D01*
X160478825Y-99076079D01*
X160531610Y-99032333D01*
X160568141Y-98979883D01*
X160573160Y-98968107D01*
X160580045Y-98937260D01*
X160584864Y-98891629D01*
X160586505Y-98845508D01*
X160586505Y-98758307D01*
X160404178Y-98758307D01*
X160328979Y-98758022D01*
X160276003Y-98756296D01*
X160242325Y-98751819D01*
X160225020Y-98743280D01*
X160221163Y-98729370D01*
X160227829Y-98708778D01*
X160239770Y-98684685D01*
X160273080Y-98644475D01*
X160319368Y-98624442D01*
X160375944Y-98625095D01*
X160440031Y-98646899D01*
X160495417Y-98673807D01*
X160541375Y-98637468D01*
X160587333Y-98601128D01*
X160544096Y-98561181D01*
X160486374Y-98523437D01*
X160415386Y-98500680D01*
X160339029Y-98494312D01*
X160265199Y-98505732D01*
X160253287Y-98509607D01*
X160188399Y-98543494D01*
X160140130Y-98594014D01*
X160107465Y-98662675D01*
X160089385Y-98750986D01*
X160089175Y-98752879D01*
X160087556Y-98849122D01*
X160094100Y-98883458D01*
X160221852Y-98883458D01*
X160233584Y-98878178D01*
X160265438Y-98874133D01*
X160312397Y-98871824D01*
X160342154Y-98871475D01*
X160397648Y-98871694D01*
X160432346Y-98873084D01*
X160450601Y-98876749D01*
X160456766Y-98883790D01*
X160455195Y-98895310D01*
X160453878Y-98899767D01*
X160431382Y-98941645D01*
X160396003Y-98975396D01*
X160364780Y-98990227D01*
X160323301Y-98989332D01*
X160281269Y-98970836D01*
X160246012Y-98940214D01*
X160224854Y-98902938D01*
X160221852Y-98883458D01*
X160094100Y-98883458D01*
X160103690Y-98933771D01*
X160135698Y-99004809D01*
X160181701Y-99060221D01*
X160239821Y-99097991D01*
X160308180Y-99116104D01*
X160384898Y-99112543D01*
X160384898Y-99112543D01*
G37*
X160384898Y-99112543D02*
X160417096Y-99104721D01*
X160478825Y-99076079D01*
X160531610Y-99032333D01*
X160568141Y-98979883D01*
X160573160Y-98968107D01*
X160580045Y-98937260D01*
X160584864Y-98891629D01*
X160586505Y-98845508D01*
X160586505Y-98758307D01*
X160404178Y-98758307D01*
X160328979Y-98758022D01*
X160276003Y-98756296D01*
X160242325Y-98751819D01*
X160225020Y-98743280D01*
X160221163Y-98729370D01*
X160227829Y-98708778D01*
X160239770Y-98684685D01*
X160273080Y-98644475D01*
X160319368Y-98624442D01*
X160375944Y-98625095D01*
X160440031Y-98646899D01*
X160495417Y-98673807D01*
X160541375Y-98637468D01*
X160587333Y-98601128D01*
X160544096Y-98561181D01*
X160486374Y-98523437D01*
X160415386Y-98500680D01*
X160339029Y-98494312D01*
X160265199Y-98505732D01*
X160253287Y-98509607D01*
X160188399Y-98543494D01*
X160140130Y-98594014D01*
X160107465Y-98662675D01*
X160089385Y-98750986D01*
X160089175Y-98752879D01*
X160087556Y-98849122D01*
X160094100Y-98883458D01*
X160221852Y-98883458D01*
X160233584Y-98878178D01*
X160265438Y-98874133D01*
X160312397Y-98871824D01*
X160342154Y-98871475D01*
X160397648Y-98871694D01*
X160432346Y-98873084D01*
X160450601Y-98876749D01*
X160456766Y-98883790D01*
X160455195Y-98895310D01*
X160453878Y-98899767D01*
X160431382Y-98941645D01*
X160396003Y-98975396D01*
X160364780Y-98990227D01*
X160323301Y-98989332D01*
X160281269Y-98970836D01*
X160246012Y-98940214D01*
X160224854Y-98902938D01*
X160221852Y-98883458D01*
X160094100Y-98883458D01*
X160103690Y-98933771D01*
X160135698Y-99004809D01*
X160181701Y-99060221D01*
X160239821Y-99097991D01*
X160308180Y-99116104D01*
X160384898Y-99112543D01*
G36*
X156952988Y-99099998D02*
X156984283Y-99085050D01*
X157014591Y-99063459D01*
X157037682Y-99038609D01*
X157054500Y-99006913D01*
X157065994Y-98964786D01*
X157073109Y-98908642D01*
X157076793Y-98834894D01*
X157077992Y-98739956D01*
X157078011Y-98730015D01*
X157078287Y-98506821D01*
X156939970Y-98506821D01*
X156939970Y-98712582D01*
X156939872Y-98788811D01*
X156939191Y-98844061D01*
X156937349Y-98882499D01*
X156933767Y-98908294D01*
X156927868Y-98925616D01*
X156919073Y-98938632D01*
X156906820Y-98951493D01*
X156863953Y-98979127D01*
X156817157Y-98984255D01*
X156772576Y-98966783D01*
X156757072Y-98953779D01*
X156745690Y-98941553D01*
X156737519Y-98928460D01*
X156732026Y-98910385D01*
X156728680Y-98883213D01*
X156726949Y-98842830D01*
X156726303Y-98785121D01*
X156726208Y-98714868D01*
X156726208Y-98506821D01*
X156587891Y-98506821D01*
X156587891Y-99110386D01*
X156657050Y-99110386D01*
X156698572Y-99108744D01*
X156719994Y-99102913D01*
X156726205Y-99091539D01*
X156726208Y-99091202D01*
X156729090Y-99080062D01*
X156741801Y-99081326D01*
X156767074Y-99093566D01*
X156824395Y-99111576D01*
X156889963Y-99113579D01*
X156952988Y-99099998D01*
X156952988Y-99099998D01*
G37*
X156952988Y-99099998D02*
X156984283Y-99085050D01*
X157014591Y-99063459D01*
X157037682Y-99038609D01*
X157054500Y-99006913D01*
X157065994Y-98964786D01*
X157073109Y-98908642D01*
X157076793Y-98834894D01*
X157077992Y-98739956D01*
X157078011Y-98730015D01*
X157078287Y-98506821D01*
X156939970Y-98506821D01*
X156939970Y-98712582D01*
X156939872Y-98788811D01*
X156939191Y-98844061D01*
X156937349Y-98882499D01*
X156933767Y-98908294D01*
X156927868Y-98925616D01*
X156919073Y-98938632D01*
X156906820Y-98951493D01*
X156863953Y-98979127D01*
X156817157Y-98984255D01*
X156772576Y-98966783D01*
X156757072Y-98953779D01*
X156745690Y-98941553D01*
X156737519Y-98928460D01*
X156732026Y-98910385D01*
X156728680Y-98883213D01*
X156726949Y-98842830D01*
X156726303Y-98785121D01*
X156726208Y-98714868D01*
X156726208Y-98506821D01*
X156587891Y-98506821D01*
X156587891Y-99110386D01*
X156657050Y-99110386D01*
X156698572Y-99108744D01*
X156719994Y-99102913D01*
X156726205Y-99091539D01*
X156726208Y-99091202D01*
X156729090Y-99080062D01*
X156741801Y-99081326D01*
X156767074Y-99093566D01*
X156824395Y-99111576D01*
X156889963Y-99113579D01*
X156952988Y-99099998D01*
G36*
X159506460Y-99110970D02*
X159549711Y-99097755D01*
X159577558Y-99081059D01*
X159586629Y-99067855D01*
X159584132Y-99052203D01*
X159567931Y-99027615D01*
X159554232Y-99010200D01*
X159525992Y-98978717D01*
X159504775Y-98965471D01*
X159486688Y-98966336D01*
X159433035Y-98979990D01*
X159393630Y-98979370D01*
X159361632Y-98963896D01*
X159350890Y-98954839D01*
X159316505Y-98922973D01*
X159316505Y-98506821D01*
X159178188Y-98506821D01*
X159178188Y-99110386D01*
X159247347Y-99110386D01*
X159288869Y-99108744D01*
X159310291Y-99102913D01*
X159316502Y-99091539D01*
X159316505Y-99091202D01*
X159319439Y-99079287D01*
X159332704Y-99080841D01*
X159351084Y-99089437D01*
X159389046Y-99105432D01*
X159419872Y-99115055D01*
X159459536Y-99117522D01*
X159506460Y-99110970D01*
X159506460Y-99110970D01*
G37*
X159506460Y-99110970D02*
X159549711Y-99097755D01*
X159577558Y-99081059D01*
X159586629Y-99067855D01*
X159584132Y-99052203D01*
X159567931Y-99027615D01*
X159554232Y-99010200D01*
X159525992Y-98978717D01*
X159504775Y-98965471D01*
X159486688Y-98966336D01*
X159433035Y-98979990D01*
X159393630Y-98979370D01*
X159361632Y-98963896D01*
X159350890Y-98954839D01*
X159316505Y-98922973D01*
X159316505Y-98506821D01*
X159178188Y-98506821D01*
X159178188Y-99110386D01*
X159247347Y-99110386D01*
X159288869Y-99108744D01*
X159310291Y-99102913D01*
X159316502Y-99091539D01*
X159316505Y-99091202D01*
X159319439Y-99079287D01*
X159332704Y-99080841D01*
X159351084Y-99089437D01*
X159389046Y-99105432D01*
X159419872Y-99115055D01*
X159459536Y-99117522D01*
X159506460Y-99110970D01*
G36*
X158083964Y-103278982D02*
X158140812Y-102977430D01*
X158560338Y-102804488D01*
X158811984Y-102975605D01*
X158882458Y-103023250D01*
X158946163Y-103065790D01*
X159000126Y-103101285D01*
X159041373Y-103127790D01*
X159066934Y-103143364D01*
X159073895Y-103146722D01*
X159086435Y-103138086D01*
X159113231Y-103114208D01*
X159151280Y-103078141D01*
X159197579Y-103032933D01*
X159249123Y-102981636D01*
X159302909Y-102927299D01*
X159355935Y-102872972D01*
X159405195Y-102821705D01*
X159447687Y-102776549D01*
X159480407Y-102740554D01*
X159500351Y-102716770D01*
X159505119Y-102708810D01*
X159498257Y-102694135D01*
X159479020Y-102661986D01*
X159449430Y-102615508D01*
X159411510Y-102557844D01*
X159367282Y-102492140D01*
X159341654Y-102454664D01*
X159294941Y-102386232D01*
X159253432Y-102324480D01*
X159219140Y-102272481D01*
X159194080Y-102233308D01*
X159180264Y-102210035D01*
X159178188Y-102205145D01*
X159182895Y-102191245D01*
X159195723Y-102158850D01*
X159214738Y-102112515D01*
X159238003Y-102056794D01*
X159263584Y-101996242D01*
X159289545Y-101935414D01*
X159313950Y-101878864D01*
X159334863Y-101831148D01*
X159350349Y-101796819D01*
X159358472Y-101780432D01*
X159358952Y-101779788D01*
X159371707Y-101776659D01*
X159405677Y-101769679D01*
X159457340Y-101759533D01*
X159523176Y-101746908D01*
X159599664Y-101732491D01*
X159644290Y-101724177D01*
X159726021Y-101708616D01*
X159799843Y-101693808D01*
X159862021Y-101680564D01*
X159908822Y-101669695D01*
X159936509Y-101662011D01*
X159942074Y-101659573D01*
X159947526Y-101643070D01*
X159951924Y-101605800D01*
X159955272Y-101552120D01*
X159957574Y-101486388D01*
X159958832Y-101412963D01*
X159959048Y-101336204D01*
X159958227Y-101260468D01*
X159956371Y-101190114D01*
X159953482Y-101129500D01*
X159949565Y-101082984D01*
X159944622Y-101054925D01*
X159941657Y-101049084D01*
X159923934Y-101042083D01*
X159886381Y-101032073D01*
X159833964Y-101020231D01*
X159771652Y-101007733D01*
X159749900Y-101003690D01*
X159645024Y-100984480D01*
X159562180Y-100969009D01*
X159498630Y-100956663D01*
X159451637Y-100946827D01*
X159418463Y-100938886D01*
X159396371Y-100932224D01*
X159382624Y-100926227D01*
X159374484Y-100920281D01*
X159373345Y-100919106D01*
X159361977Y-100900174D01*
X159344635Y-100863331D01*
X159323050Y-100813087D01*
X159298954Y-100753954D01*
X159274079Y-100690444D01*
X159250157Y-100627068D01*
X159228919Y-100568338D01*
X159212097Y-100518765D01*
X159201422Y-100482861D01*
X159198627Y-100465138D01*
X159198860Y-100464517D01*
X159208331Y-100450030D01*
X159229818Y-100418156D01*
X159261063Y-100372211D01*
X159299807Y-100315515D01*
X159343793Y-100251383D01*
X159356319Y-100233158D01*
X159400984Y-100167086D01*
X159440288Y-100106800D01*
X159472088Y-100055765D01*
X159494245Y-100017440D01*
X159504617Y-99995289D01*
X159505119Y-99992568D01*
X159496405Y-99978264D01*
X159472325Y-99949928D01*
X159435976Y-99910604D01*
X159390453Y-99863339D01*
X159338852Y-99811177D01*
X159284267Y-99757165D01*
X159229794Y-99704347D01*
X159178529Y-99655769D01*
X159133567Y-99614477D01*
X159098004Y-99583515D01*
X159074935Y-99565930D01*
X159068554Y-99563059D01*
X159053699Y-99569822D01*
X159023286Y-99588061D01*
X158982268Y-99614703D01*
X158950709Y-99636148D01*
X158893525Y-99675497D01*
X158825806Y-99721829D01*
X158757880Y-99768087D01*
X158721361Y-99792845D01*
X158597752Y-99876453D01*
X158493991Y-99820350D01*
X158446720Y-99795772D01*
X158406523Y-99776669D01*
X158379326Y-99765773D01*
X158372402Y-99764257D01*
X158364077Y-99775451D01*
X158347654Y-99807083D01*
X158324357Y-99856235D01*
X158295414Y-99919990D01*
X158262050Y-99995429D01*
X158225491Y-100079636D01*
X158186964Y-100169692D01*
X158147694Y-100262679D01*
X158108908Y-100355680D01*
X158071830Y-100445777D01*
X158037689Y-100530052D01*
X158007708Y-100605587D01*
X157983116Y-100669466D01*
X157965136Y-100718769D01*
X157954997Y-100750579D01*
X157953366Y-100761504D01*
X157966291Y-100775439D01*
X157994589Y-100798060D01*
X158032346Y-100824667D01*
X158035515Y-100826772D01*
X158133100Y-100904886D01*
X158211786Y-100996018D01*
X158270891Y-101097255D01*
X158309732Y-101205682D01*
X158327628Y-101318386D01*
X158323897Y-101432452D01*
X158297857Y-101544966D01*
X158248825Y-101653015D01*
X158234400Y-101676655D01*
X158159369Y-101772113D01*
X158070730Y-101848768D01*
X157971549Y-101906220D01*
X157864895Y-101944071D01*
X157753836Y-101961922D01*
X157641439Y-101959375D01*
X157530773Y-101936030D01*
X157424906Y-101891490D01*
X157326905Y-101825355D01*
X157296590Y-101798513D01*
X157219438Y-101714488D01*
X157163218Y-101626034D01*
X157124653Y-101526885D01*
X157103174Y-101428697D01*
X157097872Y-101318303D01*
X157115552Y-101207360D01*
X157154419Y-101099619D01*
X157212677Y-100998831D01*
X157288531Y-100908744D01*
X157380183Y-100833108D01*
X157392228Y-100825136D01*
X157430389Y-100799026D01*
X157459399Y-100776405D01*
X157473268Y-100761961D01*
X157473469Y-100761504D01*
X157470492Y-100745879D01*
X157458689Y-100710418D01*
X157439286Y-100658038D01*
X157413512Y-100591655D01*
X157382591Y-100514186D01*
X157347751Y-100428550D01*
X157310217Y-100337663D01*
X157271217Y-100244441D01*
X157231977Y-100151803D01*
X157193724Y-100062665D01*
X157157683Y-99979945D01*
X157125083Y-99906559D01*
X157097148Y-99845425D01*
X157075105Y-99799459D01*
X157060182Y-99771579D01*
X157054172Y-99764257D01*
X157035809Y-99769959D01*
X157001448Y-99785251D01*
X156957016Y-99807401D01*
X156932583Y-99820350D01*
X156828822Y-99876453D01*
X156705213Y-99792845D01*
X156642114Y-99750013D01*
X156573030Y-99702878D01*
X156508293Y-99658497D01*
X156475866Y-99636148D01*
X156430259Y-99605523D01*
X156391640Y-99581253D01*
X156365048Y-99566413D01*
X156356410Y-99563276D01*
X156343839Y-99571739D01*
X156316016Y-99595364D01*
X156275639Y-99631698D01*
X156225405Y-99678289D01*
X156168012Y-99732683D01*
X156131714Y-99767608D01*
X156068210Y-99830004D01*
X156013327Y-99885812D01*
X155969286Y-99932646D01*
X155938305Y-99968118D01*
X155922602Y-99989839D01*
X155921095Y-99994248D01*
X155928086Y-100011015D01*
X155947406Y-100044918D01*
X155976909Y-100092524D01*
X156014455Y-100150401D01*
X156057900Y-100215116D01*
X156070255Y-100233158D01*
X156115273Y-100298733D01*
X156155660Y-100357772D01*
X156189160Y-100406958D01*
X156213514Y-100442972D01*
X156226464Y-100462498D01*
X156227715Y-100464517D01*
X156225844Y-100480078D01*
X156215913Y-100514291D01*
X156199653Y-100562645D01*
X156178795Y-100620629D01*
X156155073Y-100683730D01*
X156130216Y-100747437D01*
X156105958Y-100807239D01*
X156084029Y-100858624D01*
X156066162Y-100897081D01*
X156054087Y-100918098D01*
X156053229Y-100919106D01*
X156045846Y-100925112D01*
X156033375Y-100931052D01*
X156013080Y-100937540D01*
X155982222Y-100945191D01*
X155938066Y-100954620D01*
X155877874Y-100966441D01*
X155798907Y-100981271D01*
X155698430Y-100999723D01*
X155676675Y-101003690D01*
X155612198Y-101016147D01*
X155555989Y-101028334D01*
X155513013Y-101039074D01*
X155488240Y-101047191D01*
X155484918Y-101049084D01*
X155479444Y-101065862D01*
X155474994Y-101103355D01*
X155471572Y-101157206D01*
X155469181Y-101223056D01*
X155467823Y-101296547D01*
X155467501Y-101373320D01*
X155468219Y-101449017D01*
X155469979Y-101519280D01*
X155472784Y-101579750D01*
X155476638Y-101626070D01*
X155481543Y-101653881D01*
X155484500Y-101659573D01*
X155500963Y-101665314D01*
X155538449Y-101674655D01*
X155593225Y-101686785D01*
X155661555Y-101700893D01*
X155739706Y-101716170D01*
X155782284Y-101724177D01*
X155863071Y-101739279D01*
X155935113Y-101752960D01*
X155994889Y-101764533D01*
X156038879Y-101773313D01*
X156063561Y-101778613D01*
X156067623Y-101779788D01*
X156074489Y-101793035D01*
X156089002Y-101824943D01*
X156109229Y-101870953D01*
X156133234Y-101926508D01*
X156159082Y-101987047D01*
X156184840Y-102048014D01*
X156208573Y-102104849D01*
X156228346Y-102152994D01*
X156242224Y-102187890D01*
X156248274Y-102204979D01*
X156248386Y-102205726D01*
X156241528Y-102219207D01*
X156222302Y-102250230D01*
X156192728Y-102295711D01*
X156154827Y-102352568D01*
X156110620Y-102417717D01*
X156084921Y-102455138D01*
X156038093Y-102523753D01*
X155996501Y-102586048D01*
X155962175Y-102638871D01*
X155937143Y-102679073D01*
X155923435Y-102703500D01*
X155921456Y-102708976D01*
X155929966Y-102721722D01*
X155953493Y-102748937D01*
X155989032Y-102787572D01*
X156033577Y-102834577D01*
X156084123Y-102886905D01*
X156137664Y-102941505D01*
X156191195Y-102995330D01*
X156241711Y-103045330D01*
X156286206Y-103088457D01*
X156321675Y-103121661D01*
X156345113Y-103141894D01*
X156352954Y-103146722D01*
X156365720Y-103139933D01*
X156396256Y-103120858D01*
X156441590Y-103091439D01*
X156498756Y-103053619D01*
X156564784Y-103009339D01*
X156614590Y-102975605D01*
X156866236Y-102804488D01*
X157075999Y-102890959D01*
X157285763Y-102977430D01*
X157342611Y-103278982D01*
X157399460Y-103580534D01*
X158027115Y-103580534D01*
X158083964Y-103278982D01*
X158083964Y-103278982D01*
G37*
X158083964Y-103278982D02*
X158140812Y-102977430D01*
X158560338Y-102804488D01*
X158811984Y-102975605D01*
X158882458Y-103023250D01*
X158946163Y-103065790D01*
X159000126Y-103101285D01*
X159041373Y-103127790D01*
X159066934Y-103143364D01*
X159073895Y-103146722D01*
X159086435Y-103138086D01*
X159113231Y-103114208D01*
X159151280Y-103078141D01*
X159197579Y-103032933D01*
X159249123Y-102981636D01*
X159302909Y-102927299D01*
X159355935Y-102872972D01*
X159405195Y-102821705D01*
X159447687Y-102776549D01*
X159480407Y-102740554D01*
X159500351Y-102716770D01*
X159505119Y-102708810D01*
X159498257Y-102694135D01*
X159479020Y-102661986D01*
X159449430Y-102615508D01*
X159411510Y-102557844D01*
X159367282Y-102492140D01*
X159341654Y-102454664D01*
X159294941Y-102386232D01*
X159253432Y-102324480D01*
X159219140Y-102272481D01*
X159194080Y-102233308D01*
X159180264Y-102210035D01*
X159178188Y-102205145D01*
X159182895Y-102191245D01*
X159195723Y-102158850D01*
X159214738Y-102112515D01*
X159238003Y-102056794D01*
X159263584Y-101996242D01*
X159289545Y-101935414D01*
X159313950Y-101878864D01*
X159334863Y-101831148D01*
X159350349Y-101796819D01*
X159358472Y-101780432D01*
X159358952Y-101779788D01*
X159371707Y-101776659D01*
X159405677Y-101769679D01*
X159457340Y-101759533D01*
X159523176Y-101746908D01*
X159599664Y-101732491D01*
X159644290Y-101724177D01*
X159726021Y-101708616D01*
X159799843Y-101693808D01*
X159862021Y-101680564D01*
X159908822Y-101669695D01*
X159936509Y-101662011D01*
X159942074Y-101659573D01*
X159947526Y-101643070D01*
X159951924Y-101605800D01*
X159955272Y-101552120D01*
X159957574Y-101486388D01*
X159958832Y-101412963D01*
X159959048Y-101336204D01*
X159958227Y-101260468D01*
X159956371Y-101190114D01*
X159953482Y-101129500D01*
X159949565Y-101082984D01*
X159944622Y-101054925D01*
X159941657Y-101049084D01*
X159923934Y-101042083D01*
X159886381Y-101032073D01*
X159833964Y-101020231D01*
X159771652Y-101007733D01*
X159749900Y-101003690D01*
X159645024Y-100984480D01*
X159562180Y-100969009D01*
X159498630Y-100956663D01*
X159451637Y-100946827D01*
X159418463Y-100938886D01*
X159396371Y-100932224D01*
X159382624Y-100926227D01*
X159374484Y-100920281D01*
X159373345Y-100919106D01*
X159361977Y-100900174D01*
X159344635Y-100863331D01*
X159323050Y-100813087D01*
X159298954Y-100753954D01*
X159274079Y-100690444D01*
X159250157Y-100627068D01*
X159228919Y-100568338D01*
X159212097Y-100518765D01*
X159201422Y-100482861D01*
X159198627Y-100465138D01*
X159198860Y-100464517D01*
X159208331Y-100450030D01*
X159229818Y-100418156D01*
X159261063Y-100372211D01*
X159299807Y-100315515D01*
X159343793Y-100251383D01*
X159356319Y-100233158D01*
X159400984Y-100167086D01*
X159440288Y-100106800D01*
X159472088Y-100055765D01*
X159494245Y-100017440D01*
X159504617Y-99995289D01*
X159505119Y-99992568D01*
X159496405Y-99978264D01*
X159472325Y-99949928D01*
X159435976Y-99910604D01*
X159390453Y-99863339D01*
X159338852Y-99811177D01*
X159284267Y-99757165D01*
X159229794Y-99704347D01*
X159178529Y-99655769D01*
X159133567Y-99614477D01*
X159098004Y-99583515D01*
X159074935Y-99565930D01*
X159068554Y-99563059D01*
X159053699Y-99569822D01*
X159023286Y-99588061D01*
X158982268Y-99614703D01*
X158950709Y-99636148D01*
X158893525Y-99675497D01*
X158825806Y-99721829D01*
X158757880Y-99768087D01*
X158721361Y-99792845D01*
X158597752Y-99876453D01*
X158493991Y-99820350D01*
X158446720Y-99795772D01*
X158406523Y-99776669D01*
X158379326Y-99765773D01*
X158372402Y-99764257D01*
X158364077Y-99775451D01*
X158347654Y-99807083D01*
X158324357Y-99856235D01*
X158295414Y-99919990D01*
X158262050Y-99995429D01*
X158225491Y-100079636D01*
X158186964Y-100169692D01*
X158147694Y-100262679D01*
X158108908Y-100355680D01*
X158071830Y-100445777D01*
X158037689Y-100530052D01*
X158007708Y-100605587D01*
X157983116Y-100669466D01*
X157965136Y-100718769D01*
X157954997Y-100750579D01*
X157953366Y-100761504D01*
X157966291Y-100775439D01*
X157994589Y-100798060D01*
X158032346Y-100824667D01*
X158035515Y-100826772D01*
X158133100Y-100904886D01*
X158211786Y-100996018D01*
X158270891Y-101097255D01*
X158309732Y-101205682D01*
X158327628Y-101318386D01*
X158323897Y-101432452D01*
X158297857Y-101544966D01*
X158248825Y-101653015D01*
X158234400Y-101676655D01*
X158159369Y-101772113D01*
X158070730Y-101848768D01*
X157971549Y-101906220D01*
X157864895Y-101944071D01*
X157753836Y-101961922D01*
X157641439Y-101959375D01*
X157530773Y-101936030D01*
X157424906Y-101891490D01*
X157326905Y-101825355D01*
X157296590Y-101798513D01*
X157219438Y-101714488D01*
X157163218Y-101626034D01*
X157124653Y-101526885D01*
X157103174Y-101428697D01*
X157097872Y-101318303D01*
X157115552Y-101207360D01*
X157154419Y-101099619D01*
X157212677Y-100998831D01*
X157288531Y-100908744D01*
X157380183Y-100833108D01*
X157392228Y-100825136D01*
X157430389Y-100799026D01*
X157459399Y-100776405D01*
X157473268Y-100761961D01*
X157473469Y-100761504D01*
X157470492Y-100745879D01*
X157458689Y-100710418D01*
X157439286Y-100658038D01*
X157413512Y-100591655D01*
X157382591Y-100514186D01*
X157347751Y-100428550D01*
X157310217Y-100337663D01*
X157271217Y-100244441D01*
X157231977Y-100151803D01*
X157193724Y-100062665D01*
X157157683Y-99979945D01*
X157125083Y-99906559D01*
X157097148Y-99845425D01*
X157075105Y-99799459D01*
X157060182Y-99771579D01*
X157054172Y-99764257D01*
X157035809Y-99769959D01*
X157001448Y-99785251D01*
X156957016Y-99807401D01*
X156932583Y-99820350D01*
X156828822Y-99876453D01*
X156705213Y-99792845D01*
X156642114Y-99750013D01*
X156573030Y-99702878D01*
X156508293Y-99658497D01*
X156475866Y-99636148D01*
X156430259Y-99605523D01*
X156391640Y-99581253D01*
X156365048Y-99566413D01*
X156356410Y-99563276D01*
X156343839Y-99571739D01*
X156316016Y-99595364D01*
X156275639Y-99631698D01*
X156225405Y-99678289D01*
X156168012Y-99732683D01*
X156131714Y-99767608D01*
X156068210Y-99830004D01*
X156013327Y-99885812D01*
X155969286Y-99932646D01*
X155938305Y-99968118D01*
X155922602Y-99989839D01*
X155921095Y-99994248D01*
X155928086Y-100011015D01*
X155947406Y-100044918D01*
X155976909Y-100092524D01*
X156014455Y-100150401D01*
X156057900Y-100215116D01*
X156070255Y-100233158D01*
X156115273Y-100298733D01*
X156155660Y-100357772D01*
X156189160Y-100406958D01*
X156213514Y-100442972D01*
X156226464Y-100462498D01*
X156227715Y-100464517D01*
X156225844Y-100480078D01*
X156215913Y-100514291D01*
X156199653Y-100562645D01*
X156178795Y-100620629D01*
X156155073Y-100683730D01*
X156130216Y-100747437D01*
X156105958Y-100807239D01*
X156084029Y-100858624D01*
X156066162Y-100897081D01*
X156054087Y-100918098D01*
X156053229Y-100919106D01*
X156045846Y-100925112D01*
X156033375Y-100931052D01*
X156013080Y-100937540D01*
X155982222Y-100945191D01*
X155938066Y-100954620D01*
X155877874Y-100966441D01*
X155798907Y-100981271D01*
X155698430Y-100999723D01*
X155676675Y-101003690D01*
X155612198Y-101016147D01*
X155555989Y-101028334D01*
X155513013Y-101039074D01*
X155488240Y-101047191D01*
X155484918Y-101049084D01*
X155479444Y-101065862D01*
X155474994Y-101103355D01*
X155471572Y-101157206D01*
X155469181Y-101223056D01*
X155467823Y-101296547D01*
X155467501Y-101373320D01*
X155468219Y-101449017D01*
X155469979Y-101519280D01*
X155472784Y-101579750D01*
X155476638Y-101626070D01*
X155481543Y-101653881D01*
X155484500Y-101659573D01*
X155500963Y-101665314D01*
X155538449Y-101674655D01*
X155593225Y-101686785D01*
X155661555Y-101700893D01*
X155739706Y-101716170D01*
X155782284Y-101724177D01*
X155863071Y-101739279D01*
X155935113Y-101752960D01*
X155994889Y-101764533D01*
X156038879Y-101773313D01*
X156063561Y-101778613D01*
X156067623Y-101779788D01*
X156074489Y-101793035D01*
X156089002Y-101824943D01*
X156109229Y-101870953D01*
X156133234Y-101926508D01*
X156159082Y-101987047D01*
X156184840Y-102048014D01*
X156208573Y-102104849D01*
X156228346Y-102152994D01*
X156242224Y-102187890D01*
X156248274Y-102204979D01*
X156248386Y-102205726D01*
X156241528Y-102219207D01*
X156222302Y-102250230D01*
X156192728Y-102295711D01*
X156154827Y-102352568D01*
X156110620Y-102417717D01*
X156084921Y-102455138D01*
X156038093Y-102523753D01*
X155996501Y-102586048D01*
X155962175Y-102638871D01*
X155937143Y-102679073D01*
X155923435Y-102703500D01*
X155921456Y-102708976D01*
X155929966Y-102721722D01*
X155953493Y-102748937D01*
X155989032Y-102787572D01*
X156033577Y-102834577D01*
X156084123Y-102886905D01*
X156137664Y-102941505D01*
X156191195Y-102995330D01*
X156241711Y-103045330D01*
X156286206Y-103088457D01*
X156321675Y-103121661D01*
X156345113Y-103141894D01*
X156352954Y-103146722D01*
X156365720Y-103139933D01*
X156396256Y-103120858D01*
X156441590Y-103091439D01*
X156498756Y-103053619D01*
X156564784Y-103009339D01*
X156614590Y-102975605D01*
X156866236Y-102804488D01*
X157075999Y-102890959D01*
X157285763Y-102977430D01*
X157342611Y-103278982D01*
X157399460Y-103580534D01*
X158027115Y-103580534D01*
X158083964Y-103278982D01*
D12*
X188207000Y-111088420D03*
X188207000Y-99219000D03*
D13*
X181857000Y-100704900D03*
D14*
X179317000Y-101974900D03*
X181857000Y-103244900D03*
X179317000Y-104514900D03*
X181857000Y-105784900D03*
X179317000Y-107054900D03*
X181857000Y-108324900D03*
X179317000Y-109594900D03*
D15*
X151831000Y-106538480D03*
X151831000Y-103998480D03*
X149832020Y-103998480D03*
X149832020Y-106538480D03*
D16*
X147132000Y-111267960D03*
X147132000Y-99269000D03*
D17*
X155007000Y-102344000D03*
X155007000Y-109744000D03*
X166091688Y-103859114D03*
X173237602Y-107152149D03*
X177482000Y-102644000D03*
X177482000Y-106644000D03*
X190246000Y-107061000D03*
X146050000Y-104267000D03*
X161632000Y-101294000D03*
X174782000Y-105594000D03*
X173382000Y-101294000D03*
X192832000Y-102094000D03*
X193982000Y-102394000D03*
X173482000Y-109144000D03*
D18*
X161632000Y-101294000D02*
X165932000Y-105594000D01*
X165932000Y-105594000D02*
X174782000Y-105594000D01*
X181864000Y-103251000D02*
X181864000Y-104312466D01*
X181864000Y-104312466D02*
X180582466Y-105594000D01*
X180582466Y-105594000D02*
X174782000Y-105594000D01*
X192832000Y-102094000D02*
X180660174Y-102094000D01*
X180660174Y-102094000D02*
X179794003Y-102960171D01*
X179794003Y-102960171D02*
X178853997Y-102960171D01*
X178853997Y-102960171D02*
X177187826Y-101294000D01*
X177187826Y-101294000D02*
X173382000Y-101294000D01*
X189605829Y-106770171D02*
X181962555Y-106770171D01*
X181962555Y-106770171D02*
X180116997Y-108615729D01*
X180116997Y-108615729D02*
X174010271Y-108615729D01*
X174010271Y-108615729D02*
X173824899Y-108801101D01*
X173824899Y-108801101D02*
X173482000Y-109144000D01*
X193982000Y-102394000D02*
X189605829Y-106770171D01*
D19*
X193834429Y-102246429D02*
X193982000Y-102394000D01*
D20*
X149829520Y-106553000D02*
X149829520Y-106649520D01*
D21*
G36*
X146155006Y-97804059D02*
X145668766Y-98289450D01*
X145405291Y-98923969D01*
X145404691Y-99611016D01*
X145667059Y-100245994D01*
X146152450Y-100732234D01*
X146786969Y-100995709D01*
X147474016Y-100996309D01*
X148108994Y-100733941D01*
X148595234Y-100248550D01*
X148858709Y-99614031D01*
X148859309Y-98926984D01*
X148596941Y-98292006D01*
X148111550Y-97805766D01*
X147572661Y-97582000D01*
X155049060Y-97582000D01*
X155049060Y-98115931D01*
X154990763Y-98120994D01*
X154944601Y-98134417D01*
X154897009Y-98141222D01*
X154841122Y-98160889D01*
X154797554Y-98186693D01*
X154751062Y-98206755D01*
X154703002Y-98239898D01*
X154672090Y-98271731D01*
X154636486Y-98298210D01*
X154597206Y-98341664D01*
X154582841Y-98365702D01*
X154563033Y-98385498D01*
X154562353Y-98386514D01*
X154558434Y-98395966D01*
X154551592Y-98403567D01*
X154535640Y-98430386D01*
X154524774Y-98461082D01*
X154507387Y-98488613D01*
X154497021Y-98515584D01*
X154491014Y-98550456D01*
X154477927Y-98583340D01*
X154471649Y-98617376D01*
X154471934Y-98637786D01*
X154466432Y-98657441D01*
X154462747Y-98705463D01*
X154463567Y-98712276D01*
X154461951Y-98718950D01*
X154460327Y-98758329D01*
X154460997Y-98762614D01*
X154460071Y-98766850D01*
X154459396Y-98802562D01*
X154459397Y-98802565D01*
X154458590Y-98845143D01*
X154460712Y-98856982D01*
X154458877Y-98868872D01*
X154461408Y-98927438D01*
X154467227Y-98951263D01*
X154466594Y-98975777D01*
X154474180Y-99019825D01*
X154488223Y-99056368D01*
X154495180Y-99094900D01*
X154508861Y-99129658D01*
X154527575Y-99158770D01*
X154527646Y-99158954D01*
X154527793Y-99159109D01*
X154531715Y-99165210D01*
X154548156Y-99204146D01*
X154568972Y-99234843D01*
X154583624Y-99249296D01*
X154593605Y-99267298D01*
X154601323Y-99276413D01*
X154618395Y-99289989D01*
X154631057Y-99307749D01*
X154679315Y-99353164D01*
X154724821Y-99381612D01*
X154766882Y-99414932D01*
X154818643Y-99441460D01*
X154873565Y-99457090D01*
X154926812Y-99477752D01*
X154990112Y-99488866D01*
X155017875Y-99488240D01*
X155044940Y-99494456D01*
X155075806Y-99495364D01*
X155103737Y-99490657D01*
X155131971Y-99492877D01*
X155213671Y-99483200D01*
X155267725Y-99465632D01*
X155283181Y-99462176D01*
X155284875Y-99463308D01*
X155431060Y-99492386D01*
X155500218Y-99492386D01*
X155507738Y-99490890D01*
X155515313Y-99492088D01*
X155556834Y-99490446D01*
X155595793Y-99481082D01*
X155606090Y-99482235D01*
X155657789Y-99494125D01*
X155724043Y-99496093D01*
X155772169Y-99487997D01*
X155820943Y-99486556D01*
X155883798Y-99472112D01*
X155891448Y-99468675D01*
X155866856Y-99492337D01*
X155865691Y-99494010D01*
X155863987Y-99495127D01*
X155800483Y-99557523D01*
X155798606Y-99560279D01*
X155795847Y-99562156D01*
X155740964Y-99617964D01*
X155738580Y-99621597D01*
X155735042Y-99624122D01*
X155691001Y-99670957D01*
X155687223Y-99677005D01*
X155681573Y-99681359D01*
X155650592Y-99716831D01*
X155641744Y-99732227D01*
X155637523Y-99736148D01*
X155635929Y-99737366D01*
X155635599Y-99737936D01*
X155628731Y-99744314D01*
X155613028Y-99766035D01*
X155591113Y-99813870D01*
X155567833Y-99848887D01*
X155566093Y-99857741D01*
X155561134Y-99866289D01*
X155559627Y-99870698D01*
X155557379Y-99887501D01*
X155550947Y-99901540D01*
X155549433Y-99942528D01*
X155539096Y-99995139D01*
X155541428Y-100006720D01*
X155539861Y-100018430D01*
X155545805Y-100040800D01*
X155545447Y-100050488D01*
X155553979Y-100073446D01*
X155556212Y-100080150D01*
X155568515Y-100141256D01*
X155575506Y-100158023D01*
X155577896Y-100161581D01*
X155578135Y-100162482D01*
X155581156Y-100166436D01*
X155588707Y-100177681D01*
X155596193Y-100200148D01*
X155615513Y-100234050D01*
X155620196Y-100239451D01*
X155622704Y-100246146D01*
X155652207Y-100293752D01*
X155654949Y-100296689D01*
X155656436Y-100300421D01*
X155693982Y-100358298D01*
X155696118Y-100360493D01*
X155697296Y-100363319D01*
X155740741Y-100428033D01*
X155742012Y-100429298D01*
X155742718Y-100430950D01*
X155755073Y-100448992D01*
X155755236Y-100449151D01*
X155755326Y-100449361D01*
X155799985Y-100514413D01*
X155806851Y-100524450D01*
X155798364Y-100547026D01*
X155779136Y-100596306D01*
X155729093Y-100605704D01*
X155629520Y-100623990D01*
X155608148Y-100627887D01*
X155606252Y-100628637D01*
X155604212Y-100628626D01*
X155539735Y-100641083D01*
X155535658Y-100642745D01*
X155531255Y-100642821D01*
X155475046Y-100655008D01*
X155469459Y-100657435D01*
X155463373Y-100657731D01*
X155420397Y-100668471D01*
X155407848Y-100674398D01*
X155394071Y-100676063D01*
X155369298Y-100684180D01*
X155340211Y-100700564D01*
X155311906Y-100708510D01*
X155306339Y-100712887D01*
X155299113Y-100715295D01*
X155295791Y-100717188D01*
X155268145Y-100741157D01*
X155239434Y-100757330D01*
X155222712Y-100778650D01*
X155194744Y-100800643D01*
X155190196Y-100808742D01*
X155183176Y-100814828D01*
X155163531Y-100854103D01*
X155147448Y-100874608D01*
X155146084Y-100879490D01*
X155140059Y-100898014D01*
X155121758Y-100930600D01*
X155116284Y-100947377D01*
X155111797Y-100984901D01*
X155100107Y-101020839D01*
X155095657Y-101058332D01*
X155096484Y-101068891D01*
X155093763Y-101079129D01*
X155090341Y-101132980D01*
X155091040Y-101138211D01*
X155089824Y-101143345D01*
X155087433Y-101209195D01*
X155087985Y-101212612D01*
X155087246Y-101215998D01*
X155085888Y-101289489D01*
X155086379Y-101292223D01*
X155085826Y-101294945D01*
X155085504Y-101371718D01*
X155086012Y-101374330D01*
X155085518Y-101376943D01*
X155086236Y-101452640D01*
X155086855Y-101455603D01*
X155086339Y-101458583D01*
X155088099Y-101528846D01*
X155089008Y-101532885D01*
X155088389Y-101536981D01*
X155091194Y-101597451D01*
X155092904Y-101604356D01*
X155092099Y-101611424D01*
X155095953Y-101657744D01*
X155100829Y-101674742D01*
X155100444Y-101692419D01*
X155105349Y-101720230D01*
X155126373Y-101774287D01*
X155133913Y-101800235D01*
X155140506Y-101825683D01*
X155141809Y-101827410D01*
X155142557Y-101829985D01*
X155145514Y-101835676D01*
X155154717Y-101847162D01*
X155159376Y-101859142D01*
X155189385Y-101890488D01*
X155230259Y-101944679D01*
X155235157Y-101947561D01*
X155238710Y-101951996D01*
X155258891Y-101963090D01*
X155262449Y-101966806D01*
X155272835Y-101971375D01*
X155273782Y-101972418D01*
X155288386Y-101979303D01*
X155299213Y-101985255D01*
X155358717Y-102020270D01*
X155375180Y-102026011D01*
X155392645Y-102028458D01*
X155408598Y-102035979D01*
X155446084Y-102045320D01*
X155451182Y-102045564D01*
X155455857Y-102047620D01*
X155510633Y-102059750D01*
X155513419Y-102059810D01*
X155515983Y-102060894D01*
X155584313Y-102075002D01*
X155586368Y-102075017D01*
X155588269Y-102075797D01*
X155666419Y-102091074D01*
X155667814Y-102091069D01*
X155669107Y-102091589D01*
X155711684Y-102099596D01*
X155711895Y-102099594D01*
X155712090Y-102099672D01*
X155792154Y-102114639D01*
X155798730Y-102115888D01*
X155807549Y-102136544D01*
X155819913Y-102165808D01*
X155795166Y-102202277D01*
X155770027Y-102238884D01*
X155769803Y-102239406D01*
X155769399Y-102239802D01*
X155722571Y-102308417D01*
X155721796Y-102310237D01*
X155720396Y-102311638D01*
X155678804Y-102373934D01*
X155677879Y-102376169D01*
X155676191Y-102377901D01*
X155641865Y-102430724D01*
X155640471Y-102434215D01*
X155637898Y-102436959D01*
X155612866Y-102477160D01*
X155609751Y-102485422D01*
X155604014Y-102492127D01*
X155590306Y-102516554D01*
X155580512Y-102546605D01*
X155564176Y-102573665D01*
X155562197Y-102579142D01*
X155557873Y-102607664D01*
X155546822Y-102634317D01*
X155546816Y-102649999D01*
X155544122Y-102658267D01*
X155546185Y-102684772D01*
X155539858Y-102726507D01*
X155546779Y-102754516D01*
X155546769Y-102783366D01*
X155555499Y-102804463D01*
X155555686Y-102806867D01*
X155560026Y-102815403D01*
X155564492Y-102826197D01*
X155566355Y-102833736D01*
X155567376Y-102841939D01*
X155569158Y-102845076D01*
X155575614Y-102871204D01*
X155592729Y-102894435D01*
X155603759Y-102921090D01*
X155612269Y-102933836D01*
X155629172Y-102950751D01*
X155640981Y-102971545D01*
X155664508Y-102998761D01*
X155669232Y-103002440D01*
X155672348Y-103007552D01*
X155707888Y-103046187D01*
X155710219Y-103047889D01*
X155711759Y-103050334D01*
X155756304Y-103097339D01*
X155757819Y-103098411D01*
X155758824Y-103099973D01*
X155809371Y-103152301D01*
X155810573Y-103153135D01*
X155811376Y-103154362D01*
X155864917Y-103208962D01*
X155866052Y-103209737D01*
X155866811Y-103210879D01*
X155920341Y-103264704D01*
X155921612Y-103265558D01*
X155922470Y-103266828D01*
X155972986Y-103316828D01*
X155974687Y-103317952D01*
X155975846Y-103319629D01*
X156020341Y-103362756D01*
X156023176Y-103364587D01*
X156025142Y-103367329D01*
X156060612Y-103400533D01*
X156067247Y-103404657D01*
X156072055Y-103410822D01*
X156095493Y-103431055D01*
X156106609Y-103437358D01*
X156109994Y-103441500D01*
X156127018Y-103450646D01*
X156144824Y-103467176D01*
X156152665Y-103472004D01*
X156196284Y-103488202D01*
X156225151Y-103504569D01*
X156228060Y-103504929D01*
X156241295Y-103512039D01*
X156267603Y-103514686D01*
X156292391Y-103523891D01*
X156341099Y-103522081D01*
X156389595Y-103526961D01*
X156414914Y-103519339D01*
X156441338Y-103518357D01*
X156485644Y-103498046D01*
X156532317Y-103483995D01*
X156545083Y-103477206D01*
X156555511Y-103468685D01*
X156568103Y-103463916D01*
X156598639Y-103444841D01*
X156601084Y-103442542D01*
X156604202Y-103441299D01*
X156649536Y-103411880D01*
X156650769Y-103410680D01*
X156652363Y-103410028D01*
X156709529Y-103372208D01*
X156710396Y-103371349D01*
X156711520Y-103370881D01*
X156777548Y-103326601D01*
X156778179Y-103325968D01*
X156779004Y-103325620D01*
X156828810Y-103291886D01*
X156829062Y-103291631D01*
X156829390Y-103291492D01*
X156910883Y-103236078D01*
X156930411Y-103244128D01*
X156930413Y-103244128D01*
X156948735Y-103251681D01*
X156967223Y-103349749D01*
X156967223Y-103349751D01*
X157024072Y-103651303D01*
X157038829Y-103687963D01*
X157046538Y-103726719D01*
X157066387Y-103756426D01*
X157079729Y-103789570D01*
X157107390Y-103817790D01*
X157129345Y-103850649D01*
X157159053Y-103870499D01*
X157184062Y-103896014D01*
X157220417Y-103911501D01*
X157253275Y-103933456D01*
X157288316Y-103940426D01*
X157321187Y-103954429D01*
X157360703Y-103954825D01*
X157399460Y-103962534D01*
X158027115Y-103962534D01*
X158065872Y-103954825D01*
X158105388Y-103954429D01*
X158138259Y-103940426D01*
X158173300Y-103933456D01*
X158206158Y-103911501D01*
X158242513Y-103896014D01*
X158267522Y-103870499D01*
X158297230Y-103850649D01*
X158319185Y-103817790D01*
X158346846Y-103789570D01*
X158360188Y-103756426D01*
X158380037Y-103726719D01*
X158387746Y-103687963D01*
X158402503Y-103651303D01*
X158459352Y-103349750D01*
X158459352Y-103349749D01*
X158477840Y-103251681D01*
X158515690Y-103236078D01*
X158597184Y-103291493D01*
X158597666Y-103291697D01*
X158598034Y-103292069D01*
X158668508Y-103339714D01*
X158669534Y-103340146D01*
X158670321Y-103340932D01*
X158734026Y-103383472D01*
X158735275Y-103383989D01*
X158736238Y-103384938D01*
X158790201Y-103420433D01*
X158792124Y-103421213D01*
X158793617Y-103422654D01*
X158834864Y-103449159D01*
X158839190Y-103450861D01*
X158842612Y-103454008D01*
X158868174Y-103469582D01*
X158885890Y-103476066D01*
X158900959Y-103487423D01*
X158907921Y-103490781D01*
X158957274Y-103503547D01*
X159004637Y-103522391D01*
X159028811Y-103522052D01*
X159052220Y-103528107D01*
X159102703Y-103521014D01*
X159153671Y-103520299D01*
X159175876Y-103510734D01*
X159199820Y-103507370D01*
X159243745Y-103481499D01*
X159290560Y-103461333D01*
X159303100Y-103452697D01*
X159317110Y-103438288D01*
X159328248Y-103431728D01*
X159329868Y-103429578D01*
X159340575Y-103423283D01*
X159367370Y-103399405D01*
X159370972Y-103394633D01*
X159376028Y-103391447D01*
X159414078Y-103355380D01*
X159415742Y-103353028D01*
X159418155Y-103351457D01*
X159464454Y-103306249D01*
X159465501Y-103304722D01*
X159467044Y-103303696D01*
X159518588Y-103252399D01*
X159519401Y-103251188D01*
X159520611Y-103250371D01*
X159574396Y-103196034D01*
X159575149Y-103194895D01*
X159576277Y-103194121D01*
X159629303Y-103139793D01*
X159630135Y-103138515D01*
X159631388Y-103137641D01*
X159680647Y-103086375D01*
X159681740Y-103084666D01*
X159683391Y-103083489D01*
X159725883Y-103038333D01*
X159727660Y-103035491D01*
X159730355Y-103033498D01*
X159763075Y-102997503D01*
X159767070Y-102990860D01*
X159773116Y-102986004D01*
X159793059Y-102962220D01*
X159807662Y-102935582D01*
X159828059Y-102913065D01*
X159832827Y-102905105D01*
X159845195Y-102870509D01*
X159864220Y-102839081D01*
X159870038Y-102801014D01*
X159883000Y-102764755D01*
X159881187Y-102728063D01*
X159886738Y-102691743D01*
X159877545Y-102654348D01*
X159875645Y-102615887D01*
X159859927Y-102582678D01*
X159851157Y-102547003D01*
X159844295Y-102532328D01*
X159832661Y-102516496D01*
X159826055Y-102497991D01*
X159806818Y-102465842D01*
X159803207Y-102461852D01*
X159801258Y-102456835D01*
X159771668Y-102410357D01*
X159769681Y-102408280D01*
X159768602Y-102405620D01*
X159730682Y-102347956D01*
X159729212Y-102346464D01*
X159728403Y-102344530D01*
X159684175Y-102278826D01*
X159683162Y-102277820D01*
X159682602Y-102276508D01*
X159656974Y-102239032D01*
X159611239Y-102172033D01*
X159606799Y-102165428D01*
X159615220Y-102145494D01*
X159627849Y-102115905D01*
X159670215Y-102107920D01*
X159714254Y-102099715D01*
X159714967Y-102099430D01*
X159715737Y-102099436D01*
X159797467Y-102083875D01*
X159799239Y-102083158D01*
X159801150Y-102083155D01*
X159874973Y-102068347D01*
X159877109Y-102067458D01*
X159879424Y-102067427D01*
X159941602Y-102054183D01*
X159944877Y-102052774D01*
X159948436Y-102052661D01*
X159995238Y-102041792D01*
X160002753Y-102038395D01*
X160010978Y-102037782D01*
X160038664Y-102030098D01*
X160063082Y-102017784D01*
X160089797Y-102011907D01*
X160095362Y-102009468D01*
X160103848Y-102003546D01*
X160113823Y-102000786D01*
X160144930Y-101976510D01*
X160171749Y-101962986D01*
X160186476Y-101945887D01*
X160217593Y-101924174D01*
X160223169Y-101915453D01*
X160231326Y-101909087D01*
X160256599Y-101864475D01*
X160269021Y-101850053D01*
X160272534Y-101839391D01*
X160280885Y-101829607D01*
X160283805Y-101820610D01*
X160297879Y-101798596D01*
X160299693Y-101788405D01*
X160304793Y-101779402D01*
X160310245Y-101762900D01*
X160314973Y-101724571D01*
X160326894Y-101687837D01*
X160331292Y-101650566D01*
X160330450Y-101639911D01*
X160333183Y-101629579D01*
X160336531Y-101575899D01*
X160335823Y-101570648D01*
X160337038Y-101565490D01*
X160339340Y-101499758D01*
X160338782Y-101496328D01*
X160339518Y-101492932D01*
X160340483Y-101436569D01*
X160911975Y-101436569D01*
X161021342Y-101701258D01*
X161223677Y-101903946D01*
X161488175Y-102013775D01*
X161711048Y-102013970D01*
X165611539Y-105914461D01*
X165758568Y-106012702D01*
X165932000Y-106047200D01*
X174217204Y-106047200D01*
X174373677Y-106203946D01*
X174638175Y-106313775D01*
X174924569Y-106314025D01*
X175189258Y-106204658D01*
X175346991Y-106047200D01*
X178803118Y-106047200D01*
X178679118Y-106098436D01*
X178361650Y-106415349D01*
X178189627Y-106829629D01*
X178189235Y-107278203D01*
X178360536Y-107692782D01*
X178677449Y-108010250D01*
X179044180Y-108162529D01*
X174010276Y-108162529D01*
X174010271Y-108162528D01*
X173836839Y-108197027D01*
X173689810Y-108295268D01*
X173560910Y-108424168D01*
X173339431Y-108423975D01*
X173074742Y-108533342D01*
X172872054Y-108735677D01*
X172762225Y-109000175D01*
X172761975Y-109286569D01*
X172871342Y-109551258D01*
X173073677Y-109753946D01*
X173338175Y-109863775D01*
X173624569Y-109864025D01*
X173889258Y-109754658D01*
X174091946Y-109552323D01*
X174201775Y-109287825D01*
X174201966Y-109068929D01*
X178314488Y-109068929D01*
X178189627Y-109369629D01*
X178189235Y-109818203D01*
X178360536Y-110232782D01*
X178677449Y-110550250D01*
X179091729Y-110722273D01*
X179540303Y-110722665D01*
X179954882Y-110551364D01*
X180272350Y-110234451D01*
X180444373Y-109820171D01*
X180444765Y-109371597D01*
X180302201Y-109026566D01*
X180437458Y-108936190D01*
X180757365Y-108616283D01*
X180900536Y-108962782D01*
X181217449Y-109280250D01*
X181631729Y-109452273D01*
X182080303Y-109452665D01*
X182494882Y-109281364D01*
X182812350Y-108964451D01*
X182984373Y-108550171D01*
X182984765Y-108101597D01*
X182813464Y-107687018D01*
X182496551Y-107369550D01*
X182148585Y-107225063D01*
X182150277Y-107223371D01*
X189605829Y-107223371D01*
X189779261Y-107188873D01*
X189926290Y-107090632D01*
X193903090Y-103113832D01*
X194124569Y-103114025D01*
X194389258Y-103004658D01*
X194591946Y-102802323D01*
X194701775Y-102537825D01*
X194702025Y-102251431D01*
X194592658Y-101986742D01*
X194390323Y-101784054D01*
X194125825Y-101674225D01*
X193839431Y-101673975D01*
X193574742Y-101783342D01*
X193509488Y-101848483D01*
X193442658Y-101686742D01*
X193240323Y-101484054D01*
X192975825Y-101374225D01*
X192689431Y-101373975D01*
X192424742Y-101483342D01*
X192267009Y-101640800D01*
X182937221Y-101640800D01*
X182961671Y-101605017D01*
X182991955Y-101455470D01*
X182991955Y-99954330D01*
X182965667Y-99814622D01*
X182883100Y-99686310D01*
X182757117Y-99600229D01*
X182607570Y-99569945D01*
X181106430Y-99569945D01*
X180966722Y-99596233D01*
X180838410Y-99678800D01*
X180752329Y-99804783D01*
X180722045Y-99954330D01*
X180722045Y-101455470D01*
X180748333Y-101595178D01*
X180777690Y-101640800D01*
X180660174Y-101640800D01*
X180486742Y-101675298D01*
X180429141Y-101713785D01*
X180273464Y-101337018D01*
X179956551Y-101019550D01*
X179542271Y-100847527D01*
X179093697Y-100847135D01*
X178679118Y-101018436D01*
X178361650Y-101335349D01*
X178217427Y-101682679D01*
X177508287Y-100973539D01*
X177361258Y-100875298D01*
X177187826Y-100840800D01*
X173946796Y-100840800D01*
X173790323Y-100684054D01*
X173525825Y-100574225D01*
X173239431Y-100573975D01*
X172974742Y-100683342D01*
X172772054Y-100885677D01*
X172662225Y-101150175D01*
X172661975Y-101436569D01*
X172771342Y-101701258D01*
X172973677Y-101903946D01*
X173238175Y-102013775D01*
X173524569Y-102014025D01*
X173789258Y-101904658D01*
X173946991Y-101747200D01*
X177000104Y-101747200D01*
X178533536Y-103280632D01*
X178680565Y-103378873D01*
X178853997Y-103413372D01*
X178854002Y-103413371D01*
X179030201Y-103413371D01*
X178679118Y-103558436D01*
X178361650Y-103875349D01*
X178189627Y-104289629D01*
X178189235Y-104738203D01*
X178355585Y-105140800D01*
X175346796Y-105140800D01*
X175190323Y-104984054D01*
X174925825Y-104874225D01*
X174639431Y-104873975D01*
X174374742Y-104983342D01*
X174217009Y-105140800D01*
X166119722Y-105140800D01*
X162351832Y-101372910D01*
X162352025Y-101151431D01*
X162242658Y-100886742D01*
X162040323Y-100684054D01*
X161775825Y-100574225D01*
X161489431Y-100573975D01*
X161224742Y-100683342D01*
X161022054Y-100885677D01*
X160912225Y-101150175D01*
X160911975Y-101436569D01*
X160340483Y-101436569D01*
X160340776Y-101419507D01*
X160340279Y-101416766D01*
X160340830Y-101414038D01*
X160341046Y-101337279D01*
X160340536Y-101334675D01*
X160341026Y-101332063D01*
X160340205Y-101256327D01*
X160339583Y-101253369D01*
X160340094Y-101250394D01*
X160338238Y-101180040D01*
X160337326Y-101176013D01*
X160337938Y-101171928D01*
X160335049Y-101111314D01*
X160333344Y-101104463D01*
X160334135Y-101097447D01*
X160330218Y-101050930D01*
X160325389Y-101034158D01*
X160325772Y-101016710D01*
X160320829Y-100988651D01*
X160300733Y-100936950D01*
X160292121Y-100897099D01*
X160287679Y-100890683D01*
X160285249Y-100882016D01*
X160282284Y-100876175D01*
X160272047Y-100863149D01*
X160266830Y-100849727D01*
X160239695Y-100821372D01*
X160207281Y-100774552D01*
X160197429Y-100768202D01*
X160190186Y-100758985D01*
X160168127Y-100746587D01*
X160163778Y-100742043D01*
X160154859Y-100738117D01*
X160140481Y-100731050D01*
X160135100Y-100728025D01*
X160082003Y-100693800D01*
X160064280Y-100686798D01*
X160060532Y-100686117D01*
X160060252Y-100685959D01*
X160058530Y-100685753D01*
X160042336Y-100682808D01*
X160022323Y-100672971D01*
X159984770Y-100662961D01*
X159977351Y-100662484D01*
X159970561Y-100659464D01*
X159918144Y-100647622D01*
X159913437Y-100647500D01*
X159909086Y-100645690D01*
X159846774Y-100633192D01*
X159844017Y-100633188D01*
X159841458Y-100632165D01*
X159819706Y-100628122D01*
X159819199Y-100628128D01*
X159818726Y-100627941D01*
X159714345Y-100608822D01*
X159647475Y-100596334D01*
X159630622Y-100553305D01*
X159619727Y-100524441D01*
X159658605Y-100467756D01*
X159658607Y-100467754D01*
X159671133Y-100449528D01*
X159671725Y-100448151D01*
X159672792Y-100447095D01*
X159717457Y-100381023D01*
X159718715Y-100378032D01*
X159720983Y-100375712D01*
X159760287Y-100315426D01*
X159761771Y-100311725D01*
X159764500Y-100308817D01*
X159796300Y-100257782D01*
X159798566Y-100251778D01*
X159802797Y-100246959D01*
X159824954Y-100208634D01*
X159830321Y-100192855D01*
X159840198Y-100179429D01*
X159850570Y-100157278D01*
X159860582Y-100116642D01*
X159876329Y-100082718D01*
X159876713Y-100073549D01*
X159880277Y-100064595D01*
X159880779Y-100061874D01*
X159880421Y-100036119D01*
X159886226Y-100012557D01*
X159880771Y-99976737D01*
X159882571Y-99933799D01*
X159878856Y-99923648D01*
X159878706Y-99912839D01*
X159866846Y-99885297D01*
X159863787Y-99865207D01*
X159847787Y-99838746D01*
X159831350Y-99793828D01*
X159822636Y-99779524D01*
X159820124Y-99776792D01*
X159819758Y-99775942D01*
X159815824Y-99772116D01*
X159802188Y-99757286D01*
X159787494Y-99730896D01*
X159763414Y-99702560D01*
X159757070Y-99697534D01*
X159752842Y-99690633D01*
X159716493Y-99651309D01*
X159713268Y-99648966D01*
X159711114Y-99645607D01*
X159665590Y-99598342D01*
X159663456Y-99596857D01*
X159662024Y-99594689D01*
X159610423Y-99542527D01*
X159608702Y-99541364D01*
X159607538Y-99539641D01*
X159556987Y-99489621D01*
X159559286Y-99489300D01*
X159587917Y-99479330D01*
X159618083Y-99476298D01*
X159650889Y-99466274D01*
X159683631Y-99472069D01*
X159730753Y-99487097D01*
X159805363Y-99495517D01*
X159853611Y-99491456D01*
X159901962Y-99494125D01*
X159977987Y-99483318D01*
X160024908Y-99466849D01*
X160073589Y-99456709D01*
X160098685Y-99446048D01*
X160141979Y-99467248D01*
X160210338Y-99485361D01*
X160268382Y-99489003D01*
X160325892Y-99497693D01*
X160402611Y-99494132D01*
X160438321Y-99485290D01*
X160475076Y-99483746D01*
X160507274Y-99475924D01*
X160541357Y-99460100D01*
X160577878Y-99451237D01*
X160639607Y-99422595D01*
X160679323Y-99393589D01*
X160722580Y-99370200D01*
X160775365Y-99326454D01*
X160807897Y-99286423D01*
X160845072Y-99250657D01*
X160881603Y-99198207D01*
X160897359Y-99162155D01*
X160919555Y-99129658D01*
X160924574Y-99117882D01*
X160931783Y-99083474D01*
X160945986Y-99051321D01*
X160952871Y-99020474D01*
X160953384Y-98998431D01*
X160959932Y-98977379D01*
X160964751Y-98931748D01*
X160963525Y-98918328D01*
X160966622Y-98905212D01*
X160968263Y-98859091D01*
X160967158Y-98852279D01*
X160968505Y-98845508D01*
X160968505Y-98758307D01*
X160953942Y-98685092D01*
X160966751Y-98645470D01*
X160964357Y-98615615D01*
X160969035Y-98586031D01*
X160958456Y-98542017D01*
X160954838Y-98496897D01*
X160941201Y-98470230D01*
X160934202Y-98441110D01*
X160907589Y-98404500D01*
X160886977Y-98364193D01*
X160864171Y-98344773D01*
X160846562Y-98320549D01*
X160803325Y-98280602D01*
X160776021Y-98263880D01*
X160753156Y-98241465D01*
X160695434Y-98203721D01*
X160647843Y-98184560D01*
X160602988Y-98159672D01*
X160532000Y-98136915D01*
X160488864Y-98131981D01*
X160447134Y-98120002D01*
X160370777Y-98113634D01*
X160325834Y-98118741D01*
X160290180Y-98117211D01*
X160298182Y-98094121D01*
X160304381Y-98049238D01*
X160317463Y-98005860D01*
X160325329Y-97924643D01*
X160323588Y-97907259D01*
X160327101Y-97890145D01*
X160327141Y-97883579D01*
X160326956Y-97882618D01*
X160327148Y-97881657D01*
X160327218Y-97815642D01*
X160327178Y-97815439D01*
X160327218Y-97815237D01*
X160312717Y-97742334D01*
X160304325Y-97699911D01*
X160308044Y-97687689D01*
X160306348Y-97670319D01*
X160309901Y-97653233D01*
X160299157Y-97596664D01*
X160298936Y-97594397D01*
X160299030Y-97593424D01*
X160298752Y-97592512D01*
X160297725Y-97582000D01*
X186730054Y-97582000D01*
X186341332Y-97970044D01*
X186005393Y-98779075D01*
X186004628Y-99655081D01*
X186339155Y-100464698D01*
X186958044Y-101084668D01*
X187767075Y-101420607D01*
X188643081Y-101421372D01*
X189452698Y-101086845D01*
X190072668Y-100467956D01*
X190408607Y-99658925D01*
X190409372Y-98782919D01*
X190074845Y-97973302D01*
X189684225Y-97582000D01*
X195326000Y-97582000D01*
X195326000Y-112522000D01*
X189887721Y-112522000D01*
X190072668Y-112337376D01*
X190408607Y-111528345D01*
X190409372Y-110652339D01*
X190074845Y-109842722D01*
X189455956Y-109222752D01*
X188646925Y-108886813D01*
X187770919Y-108886048D01*
X186961302Y-109220575D01*
X186341332Y-109839464D01*
X186005393Y-110648495D01*
X186004628Y-111524501D01*
X186339155Y-112334118D01*
X186526709Y-112522000D01*
X148320264Y-112522000D01*
X148595234Y-112247510D01*
X148858709Y-111612991D01*
X148859309Y-110925944D01*
X148596941Y-110290966D01*
X148111550Y-109804726D01*
X147477031Y-109541251D01*
X146789984Y-109540651D01*
X146155006Y-109803019D01*
X145668766Y-110288410D01*
X145405291Y-110922929D01*
X145404691Y-111609976D01*
X145667059Y-112244954D01*
X145943621Y-112522000D01*
X137922000Y-112522000D01*
X137922000Y-106764047D01*
X148692823Y-106764047D01*
X148865860Y-107182829D01*
X149185986Y-107503514D01*
X149604465Y-107677282D01*
X150057587Y-107677677D01*
X150476369Y-107504640D01*
X150797054Y-107184514D01*
X150831380Y-107101849D01*
X150864840Y-107182829D01*
X151184966Y-107503514D01*
X151603445Y-107677282D01*
X152056567Y-107677677D01*
X152475349Y-107504640D01*
X152796034Y-107184514D01*
X152969802Y-106766035D01*
X152970197Y-106312913D01*
X152797160Y-105894131D01*
X152477034Y-105573446D01*
X152058555Y-105399678D01*
X151786791Y-105399441D01*
X152178368Y-105379842D01*
X152562143Y-105220877D01*
X152631608Y-104978693D01*
X151831000Y-104178085D01*
X151030392Y-104978693D01*
X151099857Y-105220877D01*
X151602880Y-105400338D01*
X151186651Y-105572320D01*
X150865966Y-105892446D01*
X150831640Y-105975111D01*
X150798180Y-105894131D01*
X150478054Y-105573446D01*
X150059575Y-105399678D01*
X149606453Y-105399283D01*
X149187671Y-105572320D01*
X148866986Y-105892446D01*
X148693218Y-106310925D01*
X148692823Y-106764047D01*
X137922000Y-106764047D01*
X137922000Y-104224047D01*
X148692823Y-104224047D01*
X148865860Y-104642829D01*
X149185986Y-104963514D01*
X149604465Y-105137282D01*
X150057587Y-105137677D01*
X150476369Y-104964640D01*
X150688764Y-104752615D01*
X150850787Y-104799088D01*
X151651395Y-103998480D01*
X152010605Y-103998480D01*
X152811213Y-104799088D01*
X153053397Y-104729623D01*
X153240144Y-104206178D01*
X153212362Y-103651112D01*
X153053397Y-103267337D01*
X152811213Y-103197872D01*
X152010605Y-103998480D01*
X151651395Y-103998480D01*
X150850787Y-103197872D01*
X150688625Y-103244385D01*
X150478054Y-103033446D01*
X150441499Y-103018267D01*
X151030392Y-103018267D01*
X151831000Y-103818875D01*
X152631608Y-103018267D01*
X152562143Y-102776083D01*
X152038698Y-102589336D01*
X151483632Y-102617118D01*
X151099857Y-102776083D01*
X151030392Y-103018267D01*
X150441499Y-103018267D01*
X150059575Y-102859678D01*
X149606453Y-102859283D01*
X149187671Y-103032320D01*
X148866986Y-103352446D01*
X148693218Y-103770925D01*
X148692823Y-104224047D01*
X137922000Y-104224047D01*
X137922000Y-97582000D01*
X146692429Y-97582000D01*
X146155006Y-97804059D01*
X146155006Y-97804059D01*
G37*
X146155006Y-97804059D02*
X145668766Y-98289450D01*
X145405291Y-98923969D01*
X145404691Y-99611016D01*
X145667059Y-100245994D01*
X146152450Y-100732234D01*
X146786969Y-100995709D01*
X147474016Y-100996309D01*
X148108994Y-100733941D01*
X148595234Y-100248550D01*
X148858709Y-99614031D01*
X148859309Y-98926984D01*
X148596941Y-98292006D01*
X148111550Y-97805766D01*
X147572661Y-97582000D01*
X155049060Y-97582000D01*
X155049060Y-98115931D01*
X154990763Y-98120994D01*
X154944601Y-98134417D01*
X154897009Y-98141222D01*
X154841122Y-98160889D01*
X154797554Y-98186693D01*
X154751062Y-98206755D01*
X154703002Y-98239898D01*
X154672090Y-98271731D01*
X154636486Y-98298210D01*
X154597206Y-98341664D01*
X154582841Y-98365702D01*
X154563033Y-98385498D01*
X154562353Y-98386514D01*
X154558434Y-98395966D01*
X154551592Y-98403567D01*
X154535640Y-98430386D01*
X154524774Y-98461082D01*
X154507387Y-98488613D01*
X154497021Y-98515584D01*
X154491014Y-98550456D01*
X154477927Y-98583340D01*
X154471649Y-98617376D01*
X154471934Y-98637786D01*
X154466432Y-98657441D01*
X154462747Y-98705463D01*
X154463567Y-98712276D01*
X154461951Y-98718950D01*
X154460327Y-98758329D01*
X154460997Y-98762614D01*
X154460071Y-98766850D01*
X154459396Y-98802562D01*
X154459397Y-98802565D01*
X154458590Y-98845143D01*
X154460712Y-98856982D01*
X154458877Y-98868872D01*
X154461408Y-98927438D01*
X154467227Y-98951263D01*
X154466594Y-98975777D01*
X154474180Y-99019825D01*
X154488223Y-99056368D01*
X154495180Y-99094900D01*
X154508861Y-99129658D01*
X154527575Y-99158770D01*
X154527646Y-99158954D01*
X154527793Y-99159109D01*
X154531715Y-99165210D01*
X154548156Y-99204146D01*
X154568972Y-99234843D01*
X154583624Y-99249296D01*
X154593605Y-99267298D01*
X154601323Y-99276413D01*
X154618395Y-99289989D01*
X154631057Y-99307749D01*
X154679315Y-99353164D01*
X154724821Y-99381612D01*
X154766882Y-99414932D01*
X154818643Y-99441460D01*
X154873565Y-99457090D01*
X154926812Y-99477752D01*
X154990112Y-99488866D01*
X155017875Y-99488240D01*
X155044940Y-99494456D01*
X155075806Y-99495364D01*
X155103737Y-99490657D01*
X155131971Y-99492877D01*
X155213671Y-99483200D01*
X155267725Y-99465632D01*
X155283181Y-99462176D01*
X155284875Y-99463308D01*
X155431060Y-99492386D01*
X155500218Y-99492386D01*
X155507738Y-99490890D01*
X155515313Y-99492088D01*
X155556834Y-99490446D01*
X155595793Y-99481082D01*
X155606090Y-99482235D01*
X155657789Y-99494125D01*
X155724043Y-99496093D01*
X155772169Y-99487997D01*
X155820943Y-99486556D01*
X155883798Y-99472112D01*
X155891448Y-99468675D01*
X155866856Y-99492337D01*
X155865691Y-99494010D01*
X155863987Y-99495127D01*
X155800483Y-99557523D01*
X155798606Y-99560279D01*
X155795847Y-99562156D01*
X155740964Y-99617964D01*
X155738580Y-99621597D01*
X155735042Y-99624122D01*
X155691001Y-99670957D01*
X155687223Y-99677005D01*
X155681573Y-99681359D01*
X155650592Y-99716831D01*
X155641744Y-99732227D01*
X155637523Y-99736148D01*
X155635929Y-99737366D01*
X155635599Y-99737936D01*
X155628731Y-99744314D01*
X155613028Y-99766035D01*
X155591113Y-99813870D01*
X155567833Y-99848887D01*
X155566093Y-99857741D01*
X155561134Y-99866289D01*
X155559627Y-99870698D01*
X155557379Y-99887501D01*
X155550947Y-99901540D01*
X155549433Y-99942528D01*
X155539096Y-99995139D01*
X155541428Y-100006720D01*
X155539861Y-100018430D01*
X155545805Y-100040800D01*
X155545447Y-100050488D01*
X155553979Y-100073446D01*
X155556212Y-100080150D01*
X155568515Y-100141256D01*
X155575506Y-100158023D01*
X155577896Y-100161581D01*
X155578135Y-100162482D01*
X155581156Y-100166436D01*
X155588707Y-100177681D01*
X155596193Y-100200148D01*
X155615513Y-100234050D01*
X155620196Y-100239451D01*
X155622704Y-100246146D01*
X155652207Y-100293752D01*
X155654949Y-100296689D01*
X155656436Y-100300421D01*
X155693982Y-100358298D01*
X155696118Y-100360493D01*
X155697296Y-100363319D01*
X155740741Y-100428033D01*
X155742012Y-100429298D01*
X155742718Y-100430950D01*
X155755073Y-100448992D01*
X155755236Y-100449151D01*
X155755326Y-100449361D01*
X155799985Y-100514413D01*
X155806851Y-100524450D01*
X155798364Y-100547026D01*
X155779136Y-100596306D01*
X155729093Y-100605704D01*
X155629520Y-100623990D01*
X155608148Y-100627887D01*
X155606252Y-100628637D01*
X155604212Y-100628626D01*
X155539735Y-100641083D01*
X155535658Y-100642745D01*
X155531255Y-100642821D01*
X155475046Y-100655008D01*
X155469459Y-100657435D01*
X155463373Y-100657731D01*
X155420397Y-100668471D01*
X155407848Y-100674398D01*
X155394071Y-100676063D01*
X155369298Y-100684180D01*
X155340211Y-100700564D01*
X155311906Y-100708510D01*
X155306339Y-100712887D01*
X155299113Y-100715295D01*
X155295791Y-100717188D01*
X155268145Y-100741157D01*
X155239434Y-100757330D01*
X155222712Y-100778650D01*
X155194744Y-100800643D01*
X155190196Y-100808742D01*
X155183176Y-100814828D01*
X155163531Y-100854103D01*
X155147448Y-100874608D01*
X155146084Y-100879490D01*
X155140059Y-100898014D01*
X155121758Y-100930600D01*
X155116284Y-100947377D01*
X155111797Y-100984901D01*
X155100107Y-101020839D01*
X155095657Y-101058332D01*
X155096484Y-101068891D01*
X155093763Y-101079129D01*
X155090341Y-101132980D01*
X155091040Y-101138211D01*
X155089824Y-101143345D01*
X155087433Y-101209195D01*
X155087985Y-101212612D01*
X155087246Y-101215998D01*
X155085888Y-101289489D01*
X155086379Y-101292223D01*
X155085826Y-101294945D01*
X155085504Y-101371718D01*
X155086012Y-101374330D01*
X155085518Y-101376943D01*
X155086236Y-101452640D01*
X155086855Y-101455603D01*
X155086339Y-101458583D01*
X155088099Y-101528846D01*
X155089008Y-101532885D01*
X155088389Y-101536981D01*
X155091194Y-101597451D01*
X155092904Y-101604356D01*
X155092099Y-101611424D01*
X155095953Y-101657744D01*
X155100829Y-101674742D01*
X155100444Y-101692419D01*
X155105349Y-101720230D01*
X155126373Y-101774287D01*
X155133913Y-101800235D01*
X155140506Y-101825683D01*
X155141809Y-101827410D01*
X155142557Y-101829985D01*
X155145514Y-101835676D01*
X155154717Y-101847162D01*
X155159376Y-101859142D01*
X155189385Y-101890488D01*
X155230259Y-101944679D01*
X155235157Y-101947561D01*
X155238710Y-101951996D01*
X155258891Y-101963090D01*
X155262449Y-101966806D01*
X155272835Y-101971375D01*
X155273782Y-101972418D01*
X155288386Y-101979303D01*
X155299213Y-101985255D01*
X155358717Y-102020270D01*
X155375180Y-102026011D01*
X155392645Y-102028458D01*
X155408598Y-102035979D01*
X155446084Y-102045320D01*
X155451182Y-102045564D01*
X155455857Y-102047620D01*
X155510633Y-102059750D01*
X155513419Y-102059810D01*
X155515983Y-102060894D01*
X155584313Y-102075002D01*
X155586368Y-102075017D01*
X155588269Y-102075797D01*
X155666419Y-102091074D01*
X155667814Y-102091069D01*
X155669107Y-102091589D01*
X155711684Y-102099596D01*
X155711895Y-102099594D01*
X155712090Y-102099672D01*
X155792154Y-102114639D01*
X155798730Y-102115888D01*
X155807549Y-102136544D01*
X155819913Y-102165808D01*
X155795166Y-102202277D01*
X155770027Y-102238884D01*
X155769803Y-102239406D01*
X155769399Y-102239802D01*
X155722571Y-102308417D01*
X155721796Y-102310237D01*
X155720396Y-102311638D01*
X155678804Y-102373934D01*
X155677879Y-102376169D01*
X155676191Y-102377901D01*
X155641865Y-102430724D01*
X155640471Y-102434215D01*
X155637898Y-102436959D01*
X155612866Y-102477160D01*
X155609751Y-102485422D01*
X155604014Y-102492127D01*
X155590306Y-102516554D01*
X155580512Y-102546605D01*
X155564176Y-102573665D01*
X155562197Y-102579142D01*
X155557873Y-102607664D01*
X155546822Y-102634317D01*
X155546816Y-102649999D01*
X155544122Y-102658267D01*
X155546185Y-102684772D01*
X155539858Y-102726507D01*
X155546779Y-102754516D01*
X155546769Y-102783366D01*
X155555499Y-102804463D01*
X155555686Y-102806867D01*
X155560026Y-102815403D01*
X155564492Y-102826197D01*
X155566355Y-102833736D01*
X155567376Y-102841939D01*
X155569158Y-102845076D01*
X155575614Y-102871204D01*
X155592729Y-102894435D01*
X155603759Y-102921090D01*
X155612269Y-102933836D01*
X155629172Y-102950751D01*
X155640981Y-102971545D01*
X155664508Y-102998761D01*
X155669232Y-103002440D01*
X155672348Y-103007552D01*
X155707888Y-103046187D01*
X155710219Y-103047889D01*
X155711759Y-103050334D01*
X155756304Y-103097339D01*
X155757819Y-103098411D01*
X155758824Y-103099973D01*
X155809371Y-103152301D01*
X155810573Y-103153135D01*
X155811376Y-103154362D01*
X155864917Y-103208962D01*
X155866052Y-103209737D01*
X155866811Y-103210879D01*
X155920341Y-103264704D01*
X155921612Y-103265558D01*
X155922470Y-103266828D01*
X155972986Y-103316828D01*
X155974687Y-103317952D01*
X155975846Y-103319629D01*
X156020341Y-103362756D01*
X156023176Y-103364587D01*
X156025142Y-103367329D01*
X156060612Y-103400533D01*
X156067247Y-103404657D01*
X156072055Y-103410822D01*
X156095493Y-103431055D01*
X156106609Y-103437358D01*
X156109994Y-103441500D01*
X156127018Y-103450646D01*
X156144824Y-103467176D01*
X156152665Y-103472004D01*
X156196284Y-103488202D01*
X156225151Y-103504569D01*
X156228060Y-103504929D01*
X156241295Y-103512039D01*
X156267603Y-103514686D01*
X156292391Y-103523891D01*
X156341099Y-103522081D01*
X156389595Y-103526961D01*
X156414914Y-103519339D01*
X156441338Y-103518357D01*
X156485644Y-103498046D01*
X156532317Y-103483995D01*
X156545083Y-103477206D01*
X156555511Y-103468685D01*
X156568103Y-103463916D01*
X156598639Y-103444841D01*
X156601084Y-103442542D01*
X156604202Y-103441299D01*
X156649536Y-103411880D01*
X156650769Y-103410680D01*
X156652363Y-103410028D01*
X156709529Y-103372208D01*
X156710396Y-103371349D01*
X156711520Y-103370881D01*
X156777548Y-103326601D01*
X156778179Y-103325968D01*
X156779004Y-103325620D01*
X156828810Y-103291886D01*
X156829062Y-103291631D01*
X156829390Y-103291492D01*
X156910883Y-103236078D01*
X156930411Y-103244128D01*
X156930413Y-103244128D01*
X156948735Y-103251681D01*
X156967223Y-103349749D01*
X156967223Y-103349751D01*
X157024072Y-103651303D01*
X157038829Y-103687963D01*
X157046538Y-103726719D01*
X157066387Y-103756426D01*
X157079729Y-103789570D01*
X157107390Y-103817790D01*
X157129345Y-103850649D01*
X157159053Y-103870499D01*
X157184062Y-103896014D01*
X157220417Y-103911501D01*
X157253275Y-103933456D01*
X157288316Y-103940426D01*
X157321187Y-103954429D01*
X157360703Y-103954825D01*
X157399460Y-103962534D01*
X158027115Y-103962534D01*
X158065872Y-103954825D01*
X158105388Y-103954429D01*
X158138259Y-103940426D01*
X158173300Y-103933456D01*
X158206158Y-103911501D01*
X158242513Y-103896014D01*
X158267522Y-103870499D01*
X158297230Y-103850649D01*
X158319185Y-103817790D01*
X158346846Y-103789570D01*
X158360188Y-103756426D01*
X158380037Y-103726719D01*
X158387746Y-103687963D01*
X158402503Y-103651303D01*
X158459352Y-103349750D01*
X158459352Y-103349749D01*
X158477840Y-103251681D01*
X158515690Y-103236078D01*
X158597184Y-103291493D01*
X158597666Y-103291697D01*
X158598034Y-103292069D01*
X158668508Y-103339714D01*
X158669534Y-103340146D01*
X158670321Y-103340932D01*
X158734026Y-103383472D01*
X158735275Y-103383989D01*
X158736238Y-103384938D01*
X158790201Y-103420433D01*
X158792124Y-103421213D01*
X158793617Y-103422654D01*
X158834864Y-103449159D01*
X158839190Y-103450861D01*
X158842612Y-103454008D01*
X158868174Y-103469582D01*
X158885890Y-103476066D01*
X158900959Y-103487423D01*
X158907921Y-103490781D01*
X158957274Y-103503547D01*
X159004637Y-103522391D01*
X159028811Y-103522052D01*
X159052220Y-103528107D01*
X159102703Y-103521014D01*
X159153671Y-103520299D01*
X159175876Y-103510734D01*
X159199820Y-103507370D01*
X159243745Y-103481499D01*
X159290560Y-103461333D01*
X159303100Y-103452697D01*
X159317110Y-103438288D01*
X159328248Y-103431728D01*
X159329868Y-103429578D01*
X159340575Y-103423283D01*
X159367370Y-103399405D01*
X159370972Y-103394633D01*
X159376028Y-103391447D01*
X159414078Y-103355380D01*
X159415742Y-103353028D01*
X159418155Y-103351457D01*
X159464454Y-103306249D01*
X159465501Y-103304722D01*
X159467044Y-103303696D01*
X159518588Y-103252399D01*
X159519401Y-103251188D01*
X159520611Y-103250371D01*
X159574396Y-103196034D01*
X159575149Y-103194895D01*
X159576277Y-103194121D01*
X159629303Y-103139793D01*
X159630135Y-103138515D01*
X159631388Y-103137641D01*
X159680647Y-103086375D01*
X159681740Y-103084666D01*
X159683391Y-103083489D01*
X159725883Y-103038333D01*
X159727660Y-103035491D01*
X159730355Y-103033498D01*
X159763075Y-102997503D01*
X159767070Y-102990860D01*
X159773116Y-102986004D01*
X159793059Y-102962220D01*
X159807662Y-102935582D01*
X159828059Y-102913065D01*
X159832827Y-102905105D01*
X159845195Y-102870509D01*
X159864220Y-102839081D01*
X159870038Y-102801014D01*
X159883000Y-102764755D01*
X159881187Y-102728063D01*
X159886738Y-102691743D01*
X159877545Y-102654348D01*
X159875645Y-102615887D01*
X159859927Y-102582678D01*
X159851157Y-102547003D01*
X159844295Y-102532328D01*
X159832661Y-102516496D01*
X159826055Y-102497991D01*
X159806818Y-102465842D01*
X159803207Y-102461852D01*
X159801258Y-102456835D01*
X159771668Y-102410357D01*
X159769681Y-102408280D01*
X159768602Y-102405620D01*
X159730682Y-102347956D01*
X159729212Y-102346464D01*
X159728403Y-102344530D01*
X159684175Y-102278826D01*
X159683162Y-102277820D01*
X159682602Y-102276508D01*
X159656974Y-102239032D01*
X159611239Y-102172033D01*
X159606799Y-102165428D01*
X159615220Y-102145494D01*
X159627849Y-102115905D01*
X159670215Y-102107920D01*
X159714254Y-102099715D01*
X159714967Y-102099430D01*
X159715737Y-102099436D01*
X159797467Y-102083875D01*
X159799239Y-102083158D01*
X159801150Y-102083155D01*
X159874973Y-102068347D01*
X159877109Y-102067458D01*
X159879424Y-102067427D01*
X159941602Y-102054183D01*
X159944877Y-102052774D01*
X159948436Y-102052661D01*
X159995238Y-102041792D01*
X160002753Y-102038395D01*
X160010978Y-102037782D01*
X160038664Y-102030098D01*
X160063082Y-102017784D01*
X160089797Y-102011907D01*
X160095362Y-102009468D01*
X160103848Y-102003546D01*
X160113823Y-102000786D01*
X160144930Y-101976510D01*
X160171749Y-101962986D01*
X160186476Y-101945887D01*
X160217593Y-101924174D01*
X160223169Y-101915453D01*
X160231326Y-101909087D01*
X160256599Y-101864475D01*
X160269021Y-101850053D01*
X160272534Y-101839391D01*
X160280885Y-101829607D01*
X160283805Y-101820610D01*
X160297879Y-101798596D01*
X160299693Y-101788405D01*
X160304793Y-101779402D01*
X160310245Y-101762900D01*
X160314973Y-101724571D01*
X160326894Y-101687837D01*
X160331292Y-101650566D01*
X160330450Y-101639911D01*
X160333183Y-101629579D01*
X160336531Y-101575899D01*
X160335823Y-101570648D01*
X160337038Y-101565490D01*
X160339340Y-101499758D01*
X160338782Y-101496328D01*
X160339518Y-101492932D01*
X160340483Y-101436569D01*
X160911975Y-101436569D01*
X161021342Y-101701258D01*
X161223677Y-101903946D01*
X161488175Y-102013775D01*
X161711048Y-102013970D01*
X165611539Y-105914461D01*
X165758568Y-106012702D01*
X165932000Y-106047200D01*
X174217204Y-106047200D01*
X174373677Y-106203946D01*
X174638175Y-106313775D01*
X174924569Y-106314025D01*
X175189258Y-106204658D01*
X175346991Y-106047200D01*
X178803118Y-106047200D01*
X178679118Y-106098436D01*
X178361650Y-106415349D01*
X178189627Y-106829629D01*
X178189235Y-107278203D01*
X178360536Y-107692782D01*
X178677449Y-108010250D01*
X179044180Y-108162529D01*
X174010276Y-108162529D01*
X174010271Y-108162528D01*
X173836839Y-108197027D01*
X173689810Y-108295268D01*
X173560910Y-108424168D01*
X173339431Y-108423975D01*
X173074742Y-108533342D01*
X172872054Y-108735677D01*
X172762225Y-109000175D01*
X172761975Y-109286569D01*
X172871342Y-109551258D01*
X173073677Y-109753946D01*
X173338175Y-109863775D01*
X173624569Y-109864025D01*
X173889258Y-109754658D01*
X174091946Y-109552323D01*
X174201775Y-109287825D01*
X174201966Y-109068929D01*
X178314488Y-109068929D01*
X178189627Y-109369629D01*
X178189235Y-109818203D01*
X178360536Y-110232782D01*
X178677449Y-110550250D01*
X179091729Y-110722273D01*
X179540303Y-110722665D01*
X179954882Y-110551364D01*
X180272350Y-110234451D01*
X180444373Y-109820171D01*
X180444765Y-109371597D01*
X180302201Y-109026566D01*
X180437458Y-108936190D01*
X180757365Y-108616283D01*
X180900536Y-108962782D01*
X181217449Y-109280250D01*
X181631729Y-109452273D01*
X182080303Y-109452665D01*
X182494882Y-109281364D01*
X182812350Y-108964451D01*
X182984373Y-108550171D01*
X182984765Y-108101597D01*
X182813464Y-107687018D01*
X182496551Y-107369550D01*
X182148585Y-107225063D01*
X182150277Y-107223371D01*
X189605829Y-107223371D01*
X189779261Y-107188873D01*
X189926290Y-107090632D01*
X193903090Y-103113832D01*
X194124569Y-103114025D01*
X194389258Y-103004658D01*
X194591946Y-102802323D01*
X194701775Y-102537825D01*
X194702025Y-102251431D01*
X194592658Y-101986742D01*
X194390323Y-101784054D01*
X194125825Y-101674225D01*
X193839431Y-101673975D01*
X193574742Y-101783342D01*
X193509488Y-101848483D01*
X193442658Y-101686742D01*
X193240323Y-101484054D01*
X192975825Y-101374225D01*
X192689431Y-101373975D01*
X192424742Y-101483342D01*
X192267009Y-101640800D01*
X182937221Y-101640800D01*
X182961671Y-101605017D01*
X182991955Y-101455470D01*
X182991955Y-99954330D01*
X182965667Y-99814622D01*
X182883100Y-99686310D01*
X182757117Y-99600229D01*
X182607570Y-99569945D01*
X181106430Y-99569945D01*
X180966722Y-99596233D01*
X180838410Y-99678800D01*
X180752329Y-99804783D01*
X180722045Y-99954330D01*
X180722045Y-101455470D01*
X180748333Y-101595178D01*
X180777690Y-101640800D01*
X180660174Y-101640800D01*
X180486742Y-101675298D01*
X180429141Y-101713785D01*
X180273464Y-101337018D01*
X179956551Y-101019550D01*
X179542271Y-100847527D01*
X179093697Y-100847135D01*
X178679118Y-101018436D01*
X178361650Y-101335349D01*
X178217427Y-101682679D01*
X177508287Y-100973539D01*
X177361258Y-100875298D01*
X177187826Y-100840800D01*
X173946796Y-100840800D01*
X173790323Y-100684054D01*
X173525825Y-100574225D01*
X173239431Y-100573975D01*
X172974742Y-100683342D01*
X172772054Y-100885677D01*
X172662225Y-101150175D01*
X172661975Y-101436569D01*
X172771342Y-101701258D01*
X172973677Y-101903946D01*
X173238175Y-102013775D01*
X173524569Y-102014025D01*
X173789258Y-101904658D01*
X173946991Y-101747200D01*
X177000104Y-101747200D01*
X178533536Y-103280632D01*
X178680565Y-103378873D01*
X178853997Y-103413372D01*
X178854002Y-103413371D01*
X179030201Y-103413371D01*
X178679118Y-103558436D01*
X178361650Y-103875349D01*
X178189627Y-104289629D01*
X178189235Y-104738203D01*
X178355585Y-105140800D01*
X175346796Y-105140800D01*
X175190323Y-104984054D01*
X174925825Y-104874225D01*
X174639431Y-104873975D01*
X174374742Y-104983342D01*
X174217009Y-105140800D01*
X166119722Y-105140800D01*
X162351832Y-101372910D01*
X162352025Y-101151431D01*
X162242658Y-100886742D01*
X162040323Y-100684054D01*
X161775825Y-100574225D01*
X161489431Y-100573975D01*
X161224742Y-100683342D01*
X161022054Y-100885677D01*
X160912225Y-101150175D01*
X160911975Y-101436569D01*
X160340483Y-101436569D01*
X160340776Y-101419507D01*
X160340279Y-101416766D01*
X160340830Y-101414038D01*
X160341046Y-101337279D01*
X160340536Y-101334675D01*
X160341026Y-101332063D01*
X160340205Y-101256327D01*
X160339583Y-101253369D01*
X160340094Y-101250394D01*
X160338238Y-101180040D01*
X160337326Y-101176013D01*
X160337938Y-101171928D01*
X160335049Y-101111314D01*
X160333344Y-101104463D01*
X160334135Y-101097447D01*
X160330218Y-101050930D01*
X160325389Y-101034158D01*
X160325772Y-101016710D01*
X160320829Y-100988651D01*
X160300733Y-100936950D01*
X160292121Y-100897099D01*
X160287679Y-100890683D01*
X160285249Y-100882016D01*
X160282284Y-100876175D01*
X160272047Y-100863149D01*
X160266830Y-100849727D01*
X160239695Y-100821372D01*
X160207281Y-100774552D01*
X160197429Y-100768202D01*
X160190186Y-100758985D01*
X160168127Y-100746587D01*
X160163778Y-100742043D01*
X160154859Y-100738117D01*
X160140481Y-100731050D01*
X160135100Y-100728025D01*
X160082003Y-100693800D01*
X160064280Y-100686798D01*
X160060532Y-100686117D01*
X160060252Y-100685959D01*
X160058530Y-100685753D01*
X160042336Y-100682808D01*
X160022323Y-100672971D01*
X159984770Y-100662961D01*
X159977351Y-100662484D01*
X159970561Y-100659464D01*
X159918144Y-100647622D01*
X159913437Y-100647500D01*
X159909086Y-100645690D01*
X159846774Y-100633192D01*
X159844017Y-100633188D01*
X159841458Y-100632165D01*
X159819706Y-100628122D01*
X159819199Y-100628128D01*
X159818726Y-100627941D01*
X159714345Y-100608822D01*
X159647475Y-100596334D01*
X159630622Y-100553305D01*
X159619727Y-100524441D01*
X159658605Y-100467756D01*
X159658607Y-100467754D01*
X159671133Y-100449528D01*
X159671725Y-100448151D01*
X159672792Y-100447095D01*
X159717457Y-100381023D01*
X159718715Y-100378032D01*
X159720983Y-100375712D01*
X159760287Y-100315426D01*
X159761771Y-100311725D01*
X159764500Y-100308817D01*
X159796300Y-100257782D01*
X159798566Y-100251778D01*
X159802797Y-100246959D01*
X159824954Y-100208634D01*
X159830321Y-100192855D01*
X159840198Y-100179429D01*
X159850570Y-100157278D01*
X159860582Y-100116642D01*
X159876329Y-100082718D01*
X159876713Y-100073549D01*
X159880277Y-100064595D01*
X159880779Y-100061874D01*
X159880421Y-100036119D01*
X159886226Y-100012557D01*
X159880771Y-99976737D01*
X159882571Y-99933799D01*
X159878856Y-99923648D01*
X159878706Y-99912839D01*
X159866846Y-99885297D01*
X159863787Y-99865207D01*
X159847787Y-99838746D01*
X159831350Y-99793828D01*
X159822636Y-99779524D01*
X159820124Y-99776792D01*
X159819758Y-99775942D01*
X159815824Y-99772116D01*
X159802188Y-99757286D01*
X159787494Y-99730896D01*
X159763414Y-99702560D01*
X159757070Y-99697534D01*
X159752842Y-99690633D01*
X159716493Y-99651309D01*
X159713268Y-99648966D01*
X159711114Y-99645607D01*
X159665590Y-99598342D01*
X159663456Y-99596857D01*
X159662024Y-99594689D01*
X159610423Y-99542527D01*
X159608702Y-99541364D01*
X159607538Y-99539641D01*
X159556987Y-99489621D01*
X159559286Y-99489300D01*
X159587917Y-99479330D01*
X159618083Y-99476298D01*
X159650889Y-99466274D01*
X159683631Y-99472069D01*
X159730753Y-99487097D01*
X159805363Y-99495517D01*
X159853611Y-99491456D01*
X159901962Y-99494125D01*
X159977987Y-99483318D01*
X160024908Y-99466849D01*
X160073589Y-99456709D01*
X160098685Y-99446048D01*
X160141979Y-99467248D01*
X160210338Y-99485361D01*
X160268382Y-99489003D01*
X160325892Y-99497693D01*
X160402611Y-99494132D01*
X160438321Y-99485290D01*
X160475076Y-99483746D01*
X160507274Y-99475924D01*
X160541357Y-99460100D01*
X160577878Y-99451237D01*
X160639607Y-99422595D01*
X160679323Y-99393589D01*
X160722580Y-99370200D01*
X160775365Y-99326454D01*
X160807897Y-99286423D01*
X160845072Y-99250657D01*
X160881603Y-99198207D01*
X160897359Y-99162155D01*
X160919555Y-99129658D01*
X160924574Y-99117882D01*
X160931783Y-99083474D01*
X160945986Y-99051321D01*
X160952871Y-99020474D01*
X160953384Y-98998431D01*
X160959932Y-98977379D01*
X160964751Y-98931748D01*
X160963525Y-98918328D01*
X160966622Y-98905212D01*
X160968263Y-98859091D01*
X160967158Y-98852279D01*
X160968505Y-98845508D01*
X160968505Y-98758307D01*
X160953942Y-98685092D01*
X160966751Y-98645470D01*
X160964357Y-98615615D01*
X160969035Y-98586031D01*
X160958456Y-98542017D01*
X160954838Y-98496897D01*
X160941201Y-98470230D01*
X160934202Y-98441110D01*
X160907589Y-98404500D01*
X160886977Y-98364193D01*
X160864171Y-98344773D01*
X160846562Y-98320549D01*
X160803325Y-98280602D01*
X160776021Y-98263880D01*
X160753156Y-98241465D01*
X160695434Y-98203721D01*
X160647843Y-98184560D01*
X160602988Y-98159672D01*
X160532000Y-98136915D01*
X160488864Y-98131981D01*
X160447134Y-98120002D01*
X160370777Y-98113634D01*
X160325834Y-98118741D01*
X160290180Y-98117211D01*
X160298182Y-98094121D01*
X160304381Y-98049238D01*
X160317463Y-98005860D01*
X160325329Y-97924643D01*
X160323588Y-97907259D01*
X160327101Y-97890145D01*
X160327141Y-97883579D01*
X160326956Y-97882618D01*
X160327148Y-97881657D01*
X160327218Y-97815642D01*
X160327178Y-97815439D01*
X160327218Y-97815237D01*
X160312717Y-97742334D01*
X160304325Y-97699911D01*
X160308044Y-97687689D01*
X160306348Y-97670319D01*
X160309901Y-97653233D01*
X160299157Y-97596664D01*
X160298936Y-97594397D01*
X160299030Y-97593424D01*
X160298752Y-97592512D01*
X160297725Y-97582000D01*
X186730054Y-97582000D01*
X186341332Y-97970044D01*
X186005393Y-98779075D01*
X186004628Y-99655081D01*
X186339155Y-100464698D01*
X186958044Y-101084668D01*
X187767075Y-101420607D01*
X188643081Y-101421372D01*
X189452698Y-101086845D01*
X190072668Y-100467956D01*
X190408607Y-99658925D01*
X190409372Y-98782919D01*
X190074845Y-97973302D01*
X189684225Y-97582000D01*
X195326000Y-97582000D01*
X195326000Y-112522000D01*
X189887721Y-112522000D01*
X190072668Y-112337376D01*
X190408607Y-111528345D01*
X190409372Y-110652339D01*
X190074845Y-109842722D01*
X189455956Y-109222752D01*
X188646925Y-108886813D01*
X187770919Y-108886048D01*
X186961302Y-109220575D01*
X186341332Y-109839464D01*
X186005393Y-110648495D01*
X186004628Y-111524501D01*
X186339155Y-112334118D01*
X186526709Y-112522000D01*
X148320264Y-112522000D01*
X148595234Y-112247510D01*
X148858709Y-111612991D01*
X148859309Y-110925944D01*
X148596941Y-110290966D01*
X148111550Y-109804726D01*
X147477031Y-109541251D01*
X146789984Y-109540651D01*
X146155006Y-109803019D01*
X145668766Y-110288410D01*
X145405291Y-110922929D01*
X145404691Y-111609976D01*
X145667059Y-112244954D01*
X145943621Y-112522000D01*
X137922000Y-112522000D01*
X137922000Y-106764047D01*
X148692823Y-106764047D01*
X148865860Y-107182829D01*
X149185986Y-107503514D01*
X149604465Y-107677282D01*
X150057587Y-107677677D01*
X150476369Y-107504640D01*
X150797054Y-107184514D01*
X150831380Y-107101849D01*
X150864840Y-107182829D01*
X151184966Y-107503514D01*
X151603445Y-107677282D01*
X152056567Y-107677677D01*
X152475349Y-107504640D01*
X152796034Y-107184514D01*
X152969802Y-106766035D01*
X152970197Y-106312913D01*
X152797160Y-105894131D01*
X152477034Y-105573446D01*
X152058555Y-105399678D01*
X151786791Y-105399441D01*
X152178368Y-105379842D01*
X152562143Y-105220877D01*
X152631608Y-104978693D01*
X151831000Y-104178085D01*
X151030392Y-104978693D01*
X151099857Y-105220877D01*
X151602880Y-105400338D01*
X151186651Y-105572320D01*
X150865966Y-105892446D01*
X150831640Y-105975111D01*
X150798180Y-105894131D01*
X150478054Y-105573446D01*
X150059575Y-105399678D01*
X149606453Y-105399283D01*
X149187671Y-105572320D01*
X148866986Y-105892446D01*
X148693218Y-106310925D01*
X148692823Y-106764047D01*
X137922000Y-106764047D01*
X137922000Y-104224047D01*
X148692823Y-104224047D01*
X148865860Y-104642829D01*
X149185986Y-104963514D01*
X149604465Y-105137282D01*
X150057587Y-105137677D01*
X150476369Y-104964640D01*
X150688764Y-104752615D01*
X150850787Y-104799088D01*
X151651395Y-103998480D01*
X152010605Y-103998480D01*
X152811213Y-104799088D01*
X153053397Y-104729623D01*
X153240144Y-104206178D01*
X153212362Y-103651112D01*
X153053397Y-103267337D01*
X152811213Y-103197872D01*
X152010605Y-103998480D01*
X151651395Y-103998480D01*
X150850787Y-103197872D01*
X150688625Y-103244385D01*
X150478054Y-103033446D01*
X150441499Y-103018267D01*
X151030392Y-103018267D01*
X151831000Y-103818875D01*
X152631608Y-103018267D01*
X152562143Y-102776083D01*
X152038698Y-102589336D01*
X151483632Y-102617118D01*
X151099857Y-102776083D01*
X151030392Y-103018267D01*
X150441499Y-103018267D01*
X150059575Y-102859678D01*
X149606453Y-102859283D01*
X149187671Y-103032320D01*
X148866986Y-103352446D01*
X148693218Y-103770925D01*
X148692823Y-104224047D01*
X137922000Y-104224047D01*
X137922000Y-97582000D01*
X146692429Y-97582000D01*
X146155006Y-97804059D01*
M02*
