G04 #@! TF.FileFunction,Copper,L2,Bot,Signal*
%FSLAX46Y46*%
G04 Gerber Fmt 4.6, Leading zero omitted, Abs format (unit mm)*
G04 Created by KiCad (PCBNEW 4.0.4-stable) date Friday, October 21, 2016 'PMt' 10:36:38 PM*
%MOMM*%
%LPD*%
G01*
G04 APERTURE LIST*
%ADD10C,0.100000*%
%ADD11C,0.010000*%
%ADD12C,3.649980*%
%ADD13R,1.501140X1.501140*%
%ADD14C,1.501140*%
%ADD15R,1.350000X0.400000*%
%ADD16O,1.250000X1.250000*%
%ADD17O,1.550000X1.550000*%
%ADD18C,0.685800*%
%ADD19C,0.203200*%
%ADD20C,0.152400*%
%ADD21C,0.254000*%
G04 APERTURE END LIST*
D10*
D11*
G36*
X166623241Y-99174816D02*
X166649753Y-99161718D01*
X166682447Y-99138894D01*
X166706275Y-99114004D01*
X166722594Y-99082751D01*
X166732760Y-99040834D01*
X166738128Y-98983956D01*
X166740056Y-98907816D01*
X166740169Y-98875083D01*
X166739839Y-98803344D01*
X166738473Y-98752073D01*
X166735500Y-98716596D01*
X166730351Y-98692237D01*
X166722457Y-98674320D01*
X166714243Y-98662098D01*
X166661813Y-98610095D01*
X166600070Y-98578816D01*
X166533464Y-98569408D01*
X166466442Y-98583020D01*
X166445208Y-98592646D01*
X166394376Y-98619141D01*
X166394376Y-98203948D01*
X166431475Y-98223132D01*
X166480357Y-98237975D01*
X166540439Y-98241778D01*
X166600436Y-98234757D01*
X166645744Y-98218987D01*
X166683325Y-98188953D01*
X166715436Y-98145976D01*
X166717850Y-98141564D01*
X166728033Y-98120779D01*
X166735470Y-98099830D01*
X166740589Y-98074452D01*
X166743819Y-98040382D01*
X166745587Y-97993359D01*
X166746323Y-97929118D01*
X166746456Y-97856824D01*
X166746456Y-97626178D01*
X166608139Y-97626178D01*
X166608139Y-98051467D01*
X166569451Y-98084021D01*
X166529262Y-98110060D01*
X166491203Y-98114795D01*
X166452934Y-98102611D01*
X166432538Y-98090680D01*
X166417358Y-98073687D01*
X166406562Y-98048005D01*
X166399317Y-98010009D01*
X166394792Y-97956074D01*
X166392156Y-97882575D01*
X166391228Y-97833653D01*
X166388089Y-97632465D01*
X166322074Y-97628664D01*
X166256060Y-97624864D01*
X166256060Y-98873350D01*
X166394376Y-98873350D01*
X166397903Y-98803746D01*
X166409785Y-98755431D01*
X166431980Y-98725369D01*
X166466441Y-98710529D01*
X166501258Y-98707564D01*
X166540671Y-98710972D01*
X166566829Y-98724383D01*
X166583186Y-98742104D01*
X166596063Y-98761165D01*
X166603728Y-98782399D01*
X166607139Y-98812151D01*
X166607251Y-98856764D01*
X166606103Y-98894120D01*
X166603468Y-98950396D01*
X166599544Y-98987342D01*
X166592937Y-99010777D01*
X166582251Y-99026520D01*
X166572167Y-99035620D01*
X166530030Y-99055463D01*
X166480160Y-99058668D01*
X166451524Y-99051832D01*
X166423172Y-99027536D01*
X166404391Y-98980272D01*
X166395288Y-98910376D01*
X166394376Y-98873350D01*
X166256060Y-98873350D01*
X166256060Y-99185386D01*
X166325218Y-99185386D01*
X166366740Y-99183744D01*
X166388162Y-99177913D01*
X166394374Y-99166539D01*
X166394376Y-99166202D01*
X166397258Y-99155062D01*
X166409970Y-99156327D01*
X166435243Y-99168567D01*
X166494131Y-99187293D01*
X166560385Y-99189261D01*
X166623241Y-99174816D01*
X166623241Y-99174816D01*
G37*
X166623241Y-99174816D02*
X166649753Y-99161718D01*
X166682447Y-99138894D01*
X166706275Y-99114004D01*
X166722594Y-99082751D01*
X166732760Y-99040834D01*
X166738128Y-98983956D01*
X166740056Y-98907816D01*
X166740169Y-98875083D01*
X166739839Y-98803344D01*
X166738473Y-98752073D01*
X166735500Y-98716596D01*
X166730351Y-98692237D01*
X166722457Y-98674320D01*
X166714243Y-98662098D01*
X166661813Y-98610095D01*
X166600070Y-98578816D01*
X166533464Y-98569408D01*
X166466442Y-98583020D01*
X166445208Y-98592646D01*
X166394376Y-98619141D01*
X166394376Y-98203948D01*
X166431475Y-98223132D01*
X166480357Y-98237975D01*
X166540439Y-98241778D01*
X166600436Y-98234757D01*
X166645744Y-98218987D01*
X166683325Y-98188953D01*
X166715436Y-98145976D01*
X166717850Y-98141564D01*
X166728033Y-98120779D01*
X166735470Y-98099830D01*
X166740589Y-98074452D01*
X166743819Y-98040382D01*
X166745587Y-97993359D01*
X166746323Y-97929118D01*
X166746456Y-97856824D01*
X166746456Y-97626178D01*
X166608139Y-97626178D01*
X166608139Y-98051467D01*
X166569451Y-98084021D01*
X166529262Y-98110060D01*
X166491203Y-98114795D01*
X166452934Y-98102611D01*
X166432538Y-98090680D01*
X166417358Y-98073687D01*
X166406562Y-98048005D01*
X166399317Y-98010009D01*
X166394792Y-97956074D01*
X166392156Y-97882575D01*
X166391228Y-97833653D01*
X166388089Y-97632465D01*
X166322074Y-97628664D01*
X166256060Y-97624864D01*
X166256060Y-98873350D01*
X166394376Y-98873350D01*
X166397903Y-98803746D01*
X166409785Y-98755431D01*
X166431980Y-98725369D01*
X166466441Y-98710529D01*
X166501258Y-98707564D01*
X166540671Y-98710972D01*
X166566829Y-98724383D01*
X166583186Y-98742104D01*
X166596063Y-98761165D01*
X166603728Y-98782399D01*
X166607139Y-98812151D01*
X166607251Y-98856764D01*
X166606103Y-98894120D01*
X166603468Y-98950396D01*
X166599544Y-98987342D01*
X166592937Y-99010777D01*
X166582251Y-99026520D01*
X166572167Y-99035620D01*
X166530030Y-99055463D01*
X166480160Y-99058668D01*
X166451524Y-99051832D01*
X166423172Y-99027536D01*
X166404391Y-98980272D01*
X166395288Y-98910376D01*
X166394376Y-98873350D01*
X166256060Y-98873350D01*
X166256060Y-99185386D01*
X166325218Y-99185386D01*
X166366740Y-99183744D01*
X166388162Y-99177913D01*
X166394374Y-99166539D01*
X166394376Y-99166202D01*
X166397258Y-99155062D01*
X166409970Y-99156327D01*
X166435243Y-99168567D01*
X166494131Y-99187293D01*
X166560385Y-99189261D01*
X166623241Y-99174816D01*
G36*
X167147790Y-98237445D02*
X167206945Y-98221661D01*
X167251977Y-98193052D01*
X167283754Y-98155581D01*
X167293634Y-98139589D01*
X167300927Y-98122837D01*
X167306026Y-98101408D01*
X167309321Y-98071384D01*
X167311203Y-98028846D01*
X167312063Y-97969878D01*
X167312293Y-97890560D01*
X167312297Y-97869516D01*
X167312297Y-97626178D01*
X167251941Y-97626178D01*
X167213443Y-97628874D01*
X167184977Y-97635705D01*
X167177845Y-97639917D01*
X167158348Y-97647187D01*
X167138434Y-97639917D01*
X167105647Y-97630840D01*
X167058022Y-97627187D01*
X167005236Y-97628772D01*
X166956964Y-97635411D01*
X166928782Y-97643928D01*
X166874247Y-97678937D01*
X166840165Y-97727521D01*
X166824843Y-97792118D01*
X166824701Y-97793777D01*
X166826045Y-97822434D01*
X166947644Y-97822434D01*
X166958274Y-97789839D01*
X166975590Y-97771495D01*
X167010348Y-97757621D01*
X167056227Y-97752083D01*
X167103012Y-97754809D01*
X167140486Y-97765726D01*
X167150985Y-97772731D01*
X167169332Y-97805096D01*
X167173980Y-97841889D01*
X167173980Y-97890237D01*
X167104418Y-97890237D01*
X167038333Y-97885150D01*
X166988236Y-97870737D01*
X166957071Y-97848271D01*
X166947644Y-97822434D01*
X166826045Y-97822434D01*
X166828013Y-97864353D01*
X166851290Y-97920155D01*
X166895052Y-97962353D01*
X166901101Y-97966192D01*
X166927093Y-97978691D01*
X166959265Y-97986260D01*
X167004240Y-97989939D01*
X167057669Y-97990784D01*
X167173980Y-97990831D01*
X167173980Y-98039589D01*
X167169047Y-98077419D01*
X167156457Y-98102764D01*
X167154983Y-98104113D01*
X167126966Y-98115200D01*
X167084674Y-98119497D01*
X167037936Y-98117385D01*
X166996582Y-98109244D01*
X166972043Y-98097035D01*
X166958747Y-98087254D01*
X166944706Y-98085387D01*
X166925329Y-98093400D01*
X166896024Y-98113261D01*
X166852197Y-98146937D01*
X166848175Y-98150091D01*
X166850236Y-98161764D01*
X166867432Y-98181178D01*
X166893567Y-98202752D01*
X166922448Y-98220904D01*
X166931522Y-98225191D01*
X166964620Y-98233744D01*
X167013120Y-98239845D01*
X167067305Y-98242292D01*
X167069839Y-98242297D01*
X167147790Y-98237445D01*
X167147790Y-98237445D01*
G37*
X167147790Y-98237445D02*
X167206945Y-98221661D01*
X167251977Y-98193052D01*
X167283754Y-98155581D01*
X167293634Y-98139589D01*
X167300927Y-98122837D01*
X167306026Y-98101408D01*
X167309321Y-98071384D01*
X167311203Y-98028846D01*
X167312063Y-97969878D01*
X167312293Y-97890560D01*
X167312297Y-97869516D01*
X167312297Y-97626178D01*
X167251941Y-97626178D01*
X167213443Y-97628874D01*
X167184977Y-97635705D01*
X167177845Y-97639917D01*
X167158348Y-97647187D01*
X167138434Y-97639917D01*
X167105647Y-97630840D01*
X167058022Y-97627187D01*
X167005236Y-97628772D01*
X166956964Y-97635411D01*
X166928782Y-97643928D01*
X166874247Y-97678937D01*
X166840165Y-97727521D01*
X166824843Y-97792118D01*
X166824701Y-97793777D01*
X166826045Y-97822434D01*
X166947644Y-97822434D01*
X166958274Y-97789839D01*
X166975590Y-97771495D01*
X167010348Y-97757621D01*
X167056227Y-97752083D01*
X167103012Y-97754809D01*
X167140486Y-97765726D01*
X167150985Y-97772731D01*
X167169332Y-97805096D01*
X167173980Y-97841889D01*
X167173980Y-97890237D01*
X167104418Y-97890237D01*
X167038333Y-97885150D01*
X166988236Y-97870737D01*
X166957071Y-97848271D01*
X166947644Y-97822434D01*
X166826045Y-97822434D01*
X166828013Y-97864353D01*
X166851290Y-97920155D01*
X166895052Y-97962353D01*
X166901101Y-97966192D01*
X166927093Y-97978691D01*
X166959265Y-97986260D01*
X167004240Y-97989939D01*
X167057669Y-97990784D01*
X167173980Y-97990831D01*
X167173980Y-98039589D01*
X167169047Y-98077419D01*
X167156457Y-98102764D01*
X167154983Y-98104113D01*
X167126966Y-98115200D01*
X167084674Y-98119497D01*
X167037936Y-98117385D01*
X166996582Y-98109244D01*
X166972043Y-98097035D01*
X166958747Y-98087254D01*
X166944706Y-98085387D01*
X166925329Y-98093400D01*
X166896024Y-98113261D01*
X166852197Y-98146937D01*
X166848175Y-98150091D01*
X166850236Y-98161764D01*
X166867432Y-98181178D01*
X166893567Y-98202752D01*
X166922448Y-98220904D01*
X166931522Y-98225191D01*
X166964620Y-98233744D01*
X167013120Y-98239845D01*
X167067305Y-98242292D01*
X167069839Y-98242297D01*
X167147790Y-98237445D01*
G36*
X167538644Y-98240980D02*
X167557461Y-98235340D01*
X167563527Y-98222947D01*
X167563782Y-98217353D01*
X167564871Y-98201770D01*
X167572368Y-98199324D01*
X167592619Y-98210007D01*
X167604649Y-98217306D01*
X167642600Y-98232937D01*
X167687928Y-98240666D01*
X167735456Y-98241260D01*
X167780005Y-98235487D01*
X167816398Y-98224116D01*
X167839457Y-98207912D01*
X167844004Y-98187645D01*
X167841709Y-98182157D01*
X167824980Y-98159374D01*
X167799037Y-98131353D01*
X167794345Y-98126823D01*
X167769617Y-98105995D01*
X167748282Y-98099265D01*
X167718445Y-98103962D01*
X167706492Y-98107083D01*
X167669295Y-98114579D01*
X167643141Y-98111208D01*
X167621054Y-98099319D01*
X167600822Y-98083365D01*
X167585921Y-98063300D01*
X167575566Y-98035298D01*
X167568971Y-97995533D01*
X167565351Y-97940177D01*
X167563922Y-97865406D01*
X167563782Y-97820260D01*
X167563782Y-97626178D01*
X167438040Y-97626178D01*
X167438040Y-98242317D01*
X167500911Y-98242317D01*
X167538644Y-98240980D01*
X167538644Y-98240980D01*
G37*
X167538644Y-98240980D02*
X167557461Y-98235340D01*
X167563527Y-98222947D01*
X167563782Y-98217353D01*
X167564871Y-98201770D01*
X167572368Y-98199324D01*
X167592619Y-98210007D01*
X167604649Y-98217306D01*
X167642600Y-98232937D01*
X167687928Y-98240666D01*
X167735456Y-98241260D01*
X167780005Y-98235487D01*
X167816398Y-98224116D01*
X167839457Y-98207912D01*
X167844004Y-98187645D01*
X167841709Y-98182157D01*
X167824980Y-98159374D01*
X167799037Y-98131353D01*
X167794345Y-98126823D01*
X167769617Y-98105995D01*
X167748282Y-98099265D01*
X167718445Y-98103962D01*
X167706492Y-98107083D01*
X167669295Y-98114579D01*
X167643141Y-98111208D01*
X167621054Y-98099319D01*
X167600822Y-98083365D01*
X167585921Y-98063300D01*
X167575566Y-98035298D01*
X167568971Y-97995533D01*
X167565351Y-97940177D01*
X167563922Y-97865406D01*
X167563782Y-97820260D01*
X167563782Y-97626178D01*
X167438040Y-97626178D01*
X167438040Y-98242317D01*
X167500911Y-98242317D01*
X167538644Y-98240980D01*
G36*
X168330812Y-97626178D02*
X168261654Y-97626178D01*
X168221512Y-97627355D01*
X168200606Y-97632228D01*
X168193078Y-97642814D01*
X168192495Y-97649971D01*
X168191226Y-97664324D01*
X168183221Y-97667077D01*
X168162185Y-97658229D01*
X168145827Y-97649971D01*
X168083023Y-97630403D01*
X168014752Y-97629271D01*
X167959248Y-97643865D01*
X167907562Y-97679123D01*
X167868162Y-97731165D01*
X167846587Y-97792550D01*
X167846038Y-97795982D01*
X167842833Y-97833429D01*
X167841239Y-97887187D01*
X167841367Y-97927845D01*
X167978721Y-97927845D01*
X167981903Y-97873806D01*
X167989141Y-97829265D01*
X167998940Y-97804112D01*
X168036011Y-97769740D01*
X168080026Y-97757418D01*
X168125416Y-97767382D01*
X168164203Y-97797105D01*
X168178892Y-97817095D01*
X168187481Y-97840950D01*
X168191504Y-97875770D01*
X168192495Y-97928070D01*
X168190722Y-97979861D01*
X168186037Y-98025366D01*
X168179397Y-98055819D01*
X168178290Y-98058548D01*
X168151509Y-98091000D01*
X168112421Y-98108817D01*
X168068685Y-98111694D01*
X168027962Y-98099326D01*
X167997913Y-98071407D01*
X167994796Y-98065852D01*
X167985039Y-98031978D01*
X167979723Y-97983272D01*
X167978721Y-97927845D01*
X167841367Y-97927845D01*
X167841432Y-97948460D01*
X167842336Y-97981437D01*
X167848486Y-98063019D01*
X167861267Y-98124270D01*
X167882529Y-98169551D01*
X167914122Y-98203221D01*
X167944793Y-98222986D01*
X167987646Y-98236880D01*
X168040944Y-98241646D01*
X168095520Y-98237764D01*
X168142208Y-98225718D01*
X168166876Y-98211307D01*
X168192495Y-98188122D01*
X168192495Y-98481227D01*
X168330812Y-98481227D01*
X168330812Y-97626178D01*
X168330812Y-97626178D01*
G37*
X168330812Y-97626178D02*
X168261654Y-97626178D01*
X168221512Y-97627355D01*
X168200606Y-97632228D01*
X168193078Y-97642814D01*
X168192495Y-97649971D01*
X168191226Y-97664324D01*
X168183221Y-97667077D01*
X168162185Y-97658229D01*
X168145827Y-97649971D01*
X168083023Y-97630403D01*
X168014752Y-97629271D01*
X167959248Y-97643865D01*
X167907562Y-97679123D01*
X167868162Y-97731165D01*
X167846587Y-97792550D01*
X167846038Y-97795982D01*
X167842833Y-97833429D01*
X167841239Y-97887187D01*
X167841367Y-97927845D01*
X167978721Y-97927845D01*
X167981903Y-97873806D01*
X167989141Y-97829265D01*
X167998940Y-97804112D01*
X168036011Y-97769740D01*
X168080026Y-97757418D01*
X168125416Y-97767382D01*
X168164203Y-97797105D01*
X168178892Y-97817095D01*
X168187481Y-97840950D01*
X168191504Y-97875770D01*
X168192495Y-97928070D01*
X168190722Y-97979861D01*
X168186037Y-98025366D01*
X168179397Y-98055819D01*
X168178290Y-98058548D01*
X168151509Y-98091000D01*
X168112421Y-98108817D01*
X168068685Y-98111694D01*
X168027962Y-98099326D01*
X167997913Y-98071407D01*
X167994796Y-98065852D01*
X167985039Y-98031978D01*
X167979723Y-97983272D01*
X167978721Y-97927845D01*
X167841367Y-97927845D01*
X167841432Y-97948460D01*
X167842336Y-97981437D01*
X167848486Y-98063019D01*
X167861267Y-98124270D01*
X167882529Y-98169551D01*
X167914122Y-98203221D01*
X167944793Y-98222986D01*
X167987646Y-98236880D01*
X168040944Y-98241646D01*
X168095520Y-98237764D01*
X168142208Y-98225718D01*
X168166876Y-98211307D01*
X168192495Y-98188122D01*
X168192495Y-98481227D01*
X168330812Y-98481227D01*
X168330812Y-97626178D01*
G36*
X168813524Y-98239763D02*
X168863255Y-98236029D01*
X168993291Y-97846227D01*
X169013678Y-97915386D01*
X169025946Y-97958126D01*
X169042085Y-98015885D01*
X169059512Y-98079375D01*
X169068726Y-98113430D01*
X169103388Y-98242317D01*
X169246391Y-98242317D01*
X169203646Y-98107143D01*
X169182596Y-98040658D01*
X169157167Y-97960461D01*
X169130610Y-97876807D01*
X169106902Y-97802218D01*
X169052902Y-97632465D01*
X168994598Y-97628672D01*
X168936295Y-97624878D01*
X168904679Y-97729266D01*
X168885182Y-97794111D01*
X168863904Y-97865600D01*
X168845308Y-97928737D01*
X168844574Y-97931250D01*
X168830684Y-97974031D01*
X168818429Y-98003221D01*
X168809846Y-98014259D01*
X168808082Y-98012982D01*
X168801891Y-97995870D01*
X168790128Y-97959213D01*
X168774225Y-97907622D01*
X168755614Y-97845706D01*
X168745543Y-97811648D01*
X168691007Y-97626178D01*
X168575264Y-97626178D01*
X168482737Y-97918529D01*
X168456744Y-98000538D01*
X168433066Y-98075013D01*
X168412820Y-98138456D01*
X168397126Y-98187368D01*
X168387102Y-98218251D01*
X168384055Y-98227274D01*
X168386467Y-98236513D01*
X168405408Y-98240559D01*
X168444823Y-98240154D01*
X168450993Y-98239848D01*
X168524086Y-98236029D01*
X168571957Y-98059990D01*
X168589553Y-97995789D01*
X168605277Y-97939351D01*
X168617746Y-97895578D01*
X168625574Y-97869370D01*
X168627020Y-97865097D01*
X168633014Y-97870010D01*
X168645101Y-97895468D01*
X168661893Y-97938003D01*
X168682003Y-97994150D01*
X168699003Y-98044870D01*
X168763794Y-98243496D01*
X168813524Y-98239763D01*
X168813524Y-98239763D01*
G37*
X168813524Y-98239763D02*
X168863255Y-98236029D01*
X168993291Y-97846227D01*
X169013678Y-97915386D01*
X169025946Y-97958126D01*
X169042085Y-98015885D01*
X169059512Y-98079375D01*
X169068726Y-98113430D01*
X169103388Y-98242317D01*
X169246391Y-98242317D01*
X169203646Y-98107143D01*
X169182596Y-98040658D01*
X169157167Y-97960461D01*
X169130610Y-97876807D01*
X169106902Y-97802218D01*
X169052902Y-97632465D01*
X168994598Y-97628672D01*
X168936295Y-97624878D01*
X168904679Y-97729266D01*
X168885182Y-97794111D01*
X168863904Y-97865600D01*
X168845308Y-97928737D01*
X168844574Y-97931250D01*
X168830684Y-97974031D01*
X168818429Y-98003221D01*
X168809846Y-98014259D01*
X168808082Y-98012982D01*
X168801891Y-97995870D01*
X168790128Y-97959213D01*
X168774225Y-97907622D01*
X168755614Y-97845706D01*
X168745543Y-97811648D01*
X168691007Y-97626178D01*
X168575264Y-97626178D01*
X168482737Y-97918529D01*
X168456744Y-98000538D01*
X168433066Y-98075013D01*
X168412820Y-98138456D01*
X168397126Y-98187368D01*
X168387102Y-98218251D01*
X168384055Y-98227274D01*
X168386467Y-98236513D01*
X168405408Y-98240559D01*
X168444823Y-98240154D01*
X168450993Y-98239848D01*
X168524086Y-98236029D01*
X168571957Y-98059990D01*
X168589553Y-97995789D01*
X168605277Y-97939351D01*
X168617746Y-97895578D01*
X168625574Y-97869370D01*
X168627020Y-97865097D01*
X168633014Y-97870010D01*
X168645101Y-97895468D01*
X168661893Y-97938003D01*
X168682003Y-97994150D01*
X168699003Y-98044870D01*
X168763794Y-98243496D01*
X168813524Y-98239763D01*
G36*
X169570411Y-98238583D02*
X169623411Y-98225710D01*
X169638731Y-98218890D01*
X169668428Y-98201026D01*
X169691220Y-98180907D01*
X169708083Y-98155038D01*
X169719998Y-98119927D01*
X169727942Y-98072080D01*
X169732894Y-98008004D01*
X169735831Y-97924206D01*
X169736947Y-97868232D01*
X169741052Y-97626178D01*
X169670932Y-97626178D01*
X169628393Y-97627962D01*
X169606476Y-97634058D01*
X169600812Y-97644294D01*
X169597821Y-97655363D01*
X169584451Y-97653246D01*
X169566233Y-97644371D01*
X169520624Y-97630767D01*
X169462007Y-97627101D01*
X169400354Y-97633097D01*
X169345638Y-97648479D01*
X169340730Y-97650614D01*
X169290723Y-97685745D01*
X169257756Y-97734581D01*
X169242587Y-97791667D01*
X169243746Y-97812176D01*
X169367508Y-97812176D01*
X169378413Y-97784575D01*
X169410745Y-97764796D01*
X169462910Y-97754181D01*
X169490787Y-97752772D01*
X169537247Y-97756380D01*
X169568129Y-97770403D01*
X169575664Y-97777069D01*
X169596076Y-97813334D01*
X169600812Y-97846227D01*
X169600812Y-97890237D01*
X169539513Y-97890237D01*
X169468256Y-97886605D01*
X169418276Y-97875182D01*
X169386696Y-97855176D01*
X169379626Y-97846257D01*
X169367508Y-97812176D01*
X169243746Y-97812176D01*
X169245971Y-97851544D01*
X169268663Y-97908756D01*
X169299624Y-97947420D01*
X169318376Y-97964136D01*
X169336733Y-97975122D01*
X169360619Y-97981820D01*
X169395957Y-97985674D01*
X169448669Y-97988127D01*
X169469577Y-97988832D01*
X169600812Y-97993121D01*
X169600620Y-98032842D01*
X169595537Y-98074595D01*
X169577162Y-98099842D01*
X169540039Y-98115970D01*
X169539043Y-98116258D01*
X169486410Y-98122600D01*
X169434906Y-98114316D01*
X169396630Y-98094173D01*
X169381272Y-98084227D01*
X169364730Y-98085603D01*
X169339275Y-98100013D01*
X169324328Y-98110183D01*
X169295091Y-98131912D01*
X169276980Y-98148200D01*
X169274074Y-98152863D01*
X169286040Y-98176995D01*
X169321396Y-98205815D01*
X169336753Y-98215539D01*
X169380901Y-98232286D01*
X169440398Y-98241773D01*
X169506487Y-98243905D01*
X169570411Y-98238583D01*
X169570411Y-98238583D01*
G37*
X169570411Y-98238583D02*
X169623411Y-98225710D01*
X169638731Y-98218890D01*
X169668428Y-98201026D01*
X169691220Y-98180907D01*
X169708083Y-98155038D01*
X169719998Y-98119927D01*
X169727942Y-98072080D01*
X169732894Y-98008004D01*
X169735831Y-97924206D01*
X169736947Y-97868232D01*
X169741052Y-97626178D01*
X169670932Y-97626178D01*
X169628393Y-97627962D01*
X169606476Y-97634058D01*
X169600812Y-97644294D01*
X169597821Y-97655363D01*
X169584451Y-97653246D01*
X169566233Y-97644371D01*
X169520624Y-97630767D01*
X169462007Y-97627101D01*
X169400354Y-97633097D01*
X169345638Y-97648479D01*
X169340730Y-97650614D01*
X169290723Y-97685745D01*
X169257756Y-97734581D01*
X169242587Y-97791667D01*
X169243746Y-97812176D01*
X169367508Y-97812176D01*
X169378413Y-97784575D01*
X169410745Y-97764796D01*
X169462910Y-97754181D01*
X169490787Y-97752772D01*
X169537247Y-97756380D01*
X169568129Y-97770403D01*
X169575664Y-97777069D01*
X169596076Y-97813334D01*
X169600812Y-97846227D01*
X169600812Y-97890237D01*
X169539513Y-97890237D01*
X169468256Y-97886605D01*
X169418276Y-97875182D01*
X169386696Y-97855176D01*
X169379626Y-97846257D01*
X169367508Y-97812176D01*
X169243746Y-97812176D01*
X169245971Y-97851544D01*
X169268663Y-97908756D01*
X169299624Y-97947420D01*
X169318376Y-97964136D01*
X169336733Y-97975122D01*
X169360619Y-97981820D01*
X169395957Y-97985674D01*
X169448669Y-97988127D01*
X169469577Y-97988832D01*
X169600812Y-97993121D01*
X169600620Y-98032842D01*
X169595537Y-98074595D01*
X169577162Y-98099842D01*
X169540039Y-98115970D01*
X169539043Y-98116258D01*
X169486410Y-98122600D01*
X169434906Y-98114316D01*
X169396630Y-98094173D01*
X169381272Y-98084227D01*
X169364730Y-98085603D01*
X169339275Y-98100013D01*
X169324328Y-98110183D01*
X169295091Y-98131912D01*
X169276980Y-98148200D01*
X169274074Y-98152863D01*
X169286040Y-98176995D01*
X169321396Y-98205815D01*
X169336753Y-98215539D01*
X169380901Y-98232286D01*
X169440398Y-98241773D01*
X169506487Y-98243905D01*
X169570411Y-98238583D01*
G36*
X170167255Y-98242514D02*
X170215595Y-98232985D01*
X170243114Y-98218875D01*
X170272064Y-98195432D01*
X170230876Y-98143429D01*
X170205482Y-98111936D01*
X170188238Y-98096572D01*
X170171102Y-98094224D01*
X170146027Y-98101783D01*
X170134257Y-98106059D01*
X170086270Y-98112369D01*
X170042324Y-98098844D01*
X170010060Y-98068290D01*
X170004819Y-98058548D01*
X169999112Y-98032742D01*
X169994706Y-97985183D01*
X169991811Y-97919242D01*
X169990631Y-97838290D01*
X169990614Y-97826774D01*
X169990614Y-97626178D01*
X169852297Y-97626178D01*
X169852297Y-98242317D01*
X169921456Y-98242317D01*
X169961333Y-98241275D01*
X169982107Y-98236642D01*
X169989789Y-98226151D01*
X169990614Y-98216255D01*
X169990614Y-98190194D01*
X170023745Y-98216255D01*
X170061735Y-98234035D01*
X170112770Y-98242826D01*
X170167255Y-98242514D01*
X170167255Y-98242514D01*
G37*
X170167255Y-98242514D02*
X170215595Y-98232985D01*
X170243114Y-98218875D01*
X170272064Y-98195432D01*
X170230876Y-98143429D01*
X170205482Y-98111936D01*
X170188238Y-98096572D01*
X170171102Y-98094224D01*
X170146027Y-98101783D01*
X170134257Y-98106059D01*
X170086270Y-98112369D01*
X170042324Y-98098844D01*
X170010060Y-98068290D01*
X170004819Y-98058548D01*
X169999112Y-98032742D01*
X169994706Y-97985183D01*
X169991811Y-97919242D01*
X169990631Y-97838290D01*
X169990614Y-97826774D01*
X169990614Y-97626178D01*
X169852297Y-97626178D01*
X169852297Y-98242317D01*
X169921456Y-98242317D01*
X169961333Y-98241275D01*
X169982107Y-98236642D01*
X169989789Y-98226151D01*
X169990614Y-98216255D01*
X169990614Y-98190194D01*
X170023745Y-98216255D01*
X170061735Y-98234035D01*
X170112770Y-98242826D01*
X170167255Y-98242514D01*
G36*
X170564581Y-98239030D02*
X170624685Y-98223403D01*
X170675021Y-98191152D01*
X170699393Y-98167060D01*
X170739345Y-98110105D01*
X170762242Y-98044035D01*
X170770108Y-97962818D01*
X170770148Y-97956252D01*
X170770218Y-97890237D01*
X170390264Y-97890237D01*
X170398363Y-97855658D01*
X170412987Y-97824341D01*
X170438581Y-97791709D01*
X170443935Y-97786500D01*
X170489943Y-97758306D01*
X170542410Y-97753525D01*
X170602803Y-97772074D01*
X170613040Y-97777069D01*
X170644439Y-97792255D01*
X170665470Y-97800906D01*
X170669139Y-97801707D01*
X170681948Y-97793937D01*
X170706378Y-97774928D01*
X170718779Y-97764540D01*
X170744476Y-97740679D01*
X170752915Y-97724923D01*
X170747058Y-97710429D01*
X170743928Y-97706466D01*
X170722725Y-97689121D01*
X170687738Y-97668041D01*
X170663337Y-97655735D01*
X170594072Y-97634054D01*
X170517388Y-97627029D01*
X170444765Y-97635353D01*
X170424426Y-97641314D01*
X170361476Y-97675048D01*
X170314815Y-97726955D01*
X170284173Y-97797541D01*
X170269282Y-97887308D01*
X170267647Y-97934247D01*
X170272421Y-98002587D01*
X170392990Y-98002587D01*
X170404652Y-97997535D01*
X170435998Y-97993571D01*
X170481571Y-97991232D01*
X170512446Y-97990831D01*
X170567981Y-97991217D01*
X170603033Y-97993025D01*
X170622262Y-97997227D01*
X170630330Y-98004797D01*
X170631901Y-98015782D01*
X170621121Y-98049619D01*
X170593980Y-98083060D01*
X170558277Y-98108728D01*
X170522560Y-98119228D01*
X170474048Y-98109914D01*
X170432053Y-98082987D01*
X170402936Y-98044173D01*
X170392990Y-98002587D01*
X170272421Y-98002587D01*
X170274599Y-98033764D01*
X170296055Y-98113051D01*
X170332470Y-98172737D01*
X170384297Y-98213451D01*
X170451990Y-98235821D01*
X170488662Y-98240129D01*
X170564581Y-98239030D01*
X170564581Y-98239030D01*
G37*
X170564581Y-98239030D02*
X170624685Y-98223403D01*
X170675021Y-98191152D01*
X170699393Y-98167060D01*
X170739345Y-98110105D01*
X170762242Y-98044035D01*
X170770108Y-97962818D01*
X170770148Y-97956252D01*
X170770218Y-97890237D01*
X170390264Y-97890237D01*
X170398363Y-97855658D01*
X170412987Y-97824341D01*
X170438581Y-97791709D01*
X170443935Y-97786500D01*
X170489943Y-97758306D01*
X170542410Y-97753525D01*
X170602803Y-97772074D01*
X170613040Y-97777069D01*
X170644439Y-97792255D01*
X170665470Y-97800906D01*
X170669139Y-97801707D01*
X170681948Y-97793937D01*
X170706378Y-97774928D01*
X170718779Y-97764540D01*
X170744476Y-97740679D01*
X170752915Y-97724923D01*
X170747058Y-97710429D01*
X170743928Y-97706466D01*
X170722725Y-97689121D01*
X170687738Y-97668041D01*
X170663337Y-97655735D01*
X170594072Y-97634054D01*
X170517388Y-97627029D01*
X170444765Y-97635353D01*
X170424426Y-97641314D01*
X170361476Y-97675048D01*
X170314815Y-97726955D01*
X170284173Y-97797541D01*
X170269282Y-97887308D01*
X170267647Y-97934247D01*
X170272421Y-98002587D01*
X170392990Y-98002587D01*
X170404652Y-97997535D01*
X170435998Y-97993571D01*
X170481571Y-97991232D01*
X170512446Y-97990831D01*
X170567981Y-97991217D01*
X170603033Y-97993025D01*
X170622262Y-97997227D01*
X170630330Y-98004797D01*
X170631901Y-98015782D01*
X170621121Y-98049619D01*
X170593980Y-98083060D01*
X170558277Y-98108728D01*
X170522560Y-98119228D01*
X170474048Y-98109914D01*
X170432053Y-98082987D01*
X170402936Y-98044173D01*
X170392990Y-98002587D01*
X170272421Y-98002587D01*
X170274599Y-98033764D01*
X170296055Y-98113051D01*
X170332470Y-98172737D01*
X170384297Y-98213451D01*
X170451990Y-98235821D01*
X170488662Y-98240129D01*
X170564581Y-98239030D01*
G36*
X165993739Y-99178852D02*
X166059521Y-99149769D01*
X166109460Y-99101207D01*
X166143626Y-99033092D01*
X166162093Y-98945349D01*
X166163417Y-98931649D01*
X166164454Y-98835061D01*
X166151007Y-98750398D01*
X166123892Y-98681779D01*
X166109373Y-98659706D01*
X166058799Y-98612989D01*
X165994391Y-98582732D01*
X165922334Y-98570176D01*
X165848815Y-98576561D01*
X165792928Y-98596228D01*
X165744868Y-98629371D01*
X165705588Y-98672825D01*
X165704908Y-98673842D01*
X165688956Y-98700662D01*
X165678590Y-98727632D01*
X165672312Y-98761668D01*
X165668627Y-98809690D01*
X165667003Y-98849069D01*
X165666328Y-98884781D01*
X165792045Y-98884781D01*
X165793274Y-98849230D01*
X165797734Y-98801906D01*
X165805603Y-98771535D01*
X165819793Y-98749928D01*
X165833083Y-98737306D01*
X165880198Y-98710878D01*
X165929495Y-98707347D01*
X165975407Y-98726361D01*
X165998362Y-98747669D01*
X166014904Y-98769141D01*
X166024579Y-98789687D01*
X166028826Y-98816426D01*
X166029080Y-98856477D01*
X166027772Y-98893362D01*
X166024957Y-98946053D01*
X166020495Y-98980228D01*
X166012452Y-99002520D01*
X165998897Y-99019558D01*
X165988155Y-99029297D01*
X165943223Y-99054877D01*
X165894751Y-99056153D01*
X165854106Y-99041001D01*
X165819433Y-99009358D01*
X165798776Y-98957380D01*
X165792045Y-98884781D01*
X165666328Y-98884781D01*
X165665521Y-98927379D01*
X165668052Y-98985944D01*
X165675638Y-99029993D01*
X165689319Y-99064752D01*
X165710135Y-99095449D01*
X165717853Y-99104564D01*
X165766111Y-99149979D01*
X165817872Y-99176507D01*
X165881172Y-99187621D01*
X165912039Y-99188529D01*
X165993739Y-99178852D01*
X165993739Y-99178852D01*
G37*
X165993739Y-99178852D02*
X166059521Y-99149769D01*
X166109460Y-99101207D01*
X166143626Y-99033092D01*
X166162093Y-98945349D01*
X166163417Y-98931649D01*
X166164454Y-98835061D01*
X166151007Y-98750398D01*
X166123892Y-98681779D01*
X166109373Y-98659706D01*
X166058799Y-98612989D01*
X165994391Y-98582732D01*
X165922334Y-98570176D01*
X165848815Y-98576561D01*
X165792928Y-98596228D01*
X165744868Y-98629371D01*
X165705588Y-98672825D01*
X165704908Y-98673842D01*
X165688956Y-98700662D01*
X165678590Y-98727632D01*
X165672312Y-98761668D01*
X165668627Y-98809690D01*
X165667003Y-98849069D01*
X165666328Y-98884781D01*
X165792045Y-98884781D01*
X165793274Y-98849230D01*
X165797734Y-98801906D01*
X165805603Y-98771535D01*
X165819793Y-98749928D01*
X165833083Y-98737306D01*
X165880198Y-98710878D01*
X165929495Y-98707347D01*
X165975407Y-98726361D01*
X165998362Y-98747669D01*
X166014904Y-98769141D01*
X166024579Y-98789687D01*
X166028826Y-98816426D01*
X166029080Y-98856477D01*
X166027772Y-98893362D01*
X166024957Y-98946053D01*
X166020495Y-98980228D01*
X166012452Y-99002520D01*
X165998897Y-99019558D01*
X165988155Y-99029297D01*
X165943223Y-99054877D01*
X165894751Y-99056153D01*
X165854106Y-99041001D01*
X165819433Y-99009358D01*
X165798776Y-98957380D01*
X165792045Y-98884781D01*
X165666328Y-98884781D01*
X165665521Y-98927379D01*
X165668052Y-98985944D01*
X165675638Y-99029993D01*
X165689319Y-99064752D01*
X165710135Y-99095449D01*
X165717853Y-99104564D01*
X165766111Y-99149979D01*
X165817872Y-99176507D01*
X165881172Y-99187621D01*
X165912039Y-99188529D01*
X165993739Y-99178852D01*
G36*
X167175301Y-99171386D02*
X167187832Y-99165486D01*
X167231201Y-99133717D01*
X167272210Y-99087354D01*
X167302832Y-99036304D01*
X167311541Y-99012834D01*
X167319488Y-98970909D01*
X167324226Y-98920243D01*
X167324801Y-98899321D01*
X167324871Y-98833307D01*
X166944917Y-98833307D01*
X166953017Y-98798727D01*
X166972896Y-98757830D01*
X167007653Y-98722486D01*
X167049002Y-98699718D01*
X167075351Y-98694990D01*
X167111084Y-98700727D01*
X167153718Y-98715118D01*
X167168201Y-98721738D01*
X167221760Y-98748487D01*
X167267467Y-98713624D01*
X167293842Y-98690045D01*
X167307876Y-98670583D01*
X167308586Y-98664871D01*
X167296049Y-98651027D01*
X167268572Y-98629988D01*
X167243634Y-98613575D01*
X167176336Y-98584070D01*
X167100890Y-98570716D01*
X167026112Y-98574188D01*
X166966505Y-98592337D01*
X166905059Y-98631216D01*
X166861392Y-98682405D01*
X166834074Y-98748633D01*
X166821678Y-98832629D01*
X166820579Y-98871064D01*
X166824978Y-98959139D01*
X166825518Y-98961701D01*
X166951418Y-98961701D01*
X166954885Y-98953442D01*
X166969137Y-98948887D01*
X166998530Y-98946935D01*
X167047425Y-98946483D01*
X167066252Y-98946475D01*
X167123533Y-98947157D01*
X167159859Y-98949636D01*
X167179396Y-98954557D01*
X167186310Y-98962566D01*
X167186555Y-98965138D01*
X167178664Y-98985577D01*
X167158915Y-99014211D01*
X167150425Y-99024237D01*
X167118906Y-99052592D01*
X167086051Y-99063741D01*
X167068349Y-99064673D01*
X167020461Y-99053019D01*
X166980301Y-99021715D01*
X166954827Y-98976248D01*
X166954375Y-98974767D01*
X166951418Y-98961701D01*
X166825518Y-98961701D01*
X166839608Y-99028490D01*
X166865962Y-99083975D01*
X166898193Y-99123361D01*
X166957783Y-99166069D01*
X167027832Y-99188891D01*
X167102339Y-99190954D01*
X167175301Y-99171386D01*
X167175301Y-99171386D01*
G37*
X167175301Y-99171386D02*
X167187832Y-99165486D01*
X167231201Y-99133717D01*
X167272210Y-99087354D01*
X167302832Y-99036304D01*
X167311541Y-99012834D01*
X167319488Y-98970909D01*
X167324226Y-98920243D01*
X167324801Y-98899321D01*
X167324871Y-98833307D01*
X166944917Y-98833307D01*
X166953017Y-98798727D01*
X166972896Y-98757830D01*
X167007653Y-98722486D01*
X167049002Y-98699718D01*
X167075351Y-98694990D01*
X167111084Y-98700727D01*
X167153718Y-98715118D01*
X167168201Y-98721738D01*
X167221760Y-98748487D01*
X167267467Y-98713624D01*
X167293842Y-98690045D01*
X167307876Y-98670583D01*
X167308586Y-98664871D01*
X167296049Y-98651027D01*
X167268572Y-98629988D01*
X167243634Y-98613575D01*
X167176336Y-98584070D01*
X167100890Y-98570716D01*
X167026112Y-98574188D01*
X166966505Y-98592337D01*
X166905059Y-98631216D01*
X166861392Y-98682405D01*
X166834074Y-98748633D01*
X166821678Y-98832629D01*
X166820579Y-98871064D01*
X166824978Y-98959139D01*
X166825518Y-98961701D01*
X166951418Y-98961701D01*
X166954885Y-98953442D01*
X166969137Y-98948887D01*
X166998530Y-98946935D01*
X167047425Y-98946483D01*
X167066252Y-98946475D01*
X167123533Y-98947157D01*
X167159859Y-98949636D01*
X167179396Y-98954557D01*
X167186310Y-98962566D01*
X167186555Y-98965138D01*
X167178664Y-98985577D01*
X167158915Y-99014211D01*
X167150425Y-99024237D01*
X167118906Y-99052592D01*
X167086051Y-99063741D01*
X167068349Y-99064673D01*
X167020461Y-99053019D01*
X166980301Y-99021715D01*
X166954827Y-98976248D01*
X166954375Y-98974767D01*
X166951418Y-98961701D01*
X166825518Y-98961701D01*
X166839608Y-99028490D01*
X166865962Y-99083975D01*
X166898193Y-99123361D01*
X166957783Y-99166069D01*
X167027832Y-99188891D01*
X167102339Y-99190954D01*
X167175301Y-99171386D01*
G36*
X168546017Y-99187548D02*
X168593634Y-99178518D01*
X168643034Y-99159630D01*
X168648312Y-99157223D01*
X168685774Y-99137524D01*
X168711717Y-99119219D01*
X168720103Y-99107492D01*
X168712117Y-99088368D01*
X168692720Y-99060150D01*
X168684110Y-99049616D01*
X168648628Y-99008153D01*
X168602885Y-99035142D01*
X168559350Y-99053122D01*
X168509050Y-99062733D01*
X168460812Y-99063340D01*
X168423467Y-99054309D01*
X168414505Y-99048673D01*
X168397437Y-99022829D01*
X168395363Y-98993059D01*
X168408134Y-98969803D01*
X168415688Y-98965292D01*
X168438325Y-98959691D01*
X168478115Y-98953108D01*
X168527166Y-98946817D01*
X168536215Y-98945830D01*
X168614996Y-98932202D01*
X168672136Y-98909054D01*
X168710030Y-98874248D01*
X168731079Y-98825646D01*
X168737635Y-98766282D01*
X168728577Y-98698802D01*
X168699164Y-98645812D01*
X168649278Y-98607217D01*
X168578800Y-98582919D01*
X168500565Y-98573333D01*
X168436766Y-98573448D01*
X168385016Y-98582155D01*
X168349673Y-98594175D01*
X168305017Y-98615120D01*
X168263747Y-98639426D01*
X168249079Y-98650124D01*
X168211357Y-98680916D01*
X168256852Y-98726951D01*
X168302347Y-98772987D01*
X168354072Y-98738757D01*
X168405952Y-98713048D01*
X168461351Y-98699601D01*
X168514605Y-98698182D01*
X168560049Y-98708557D01*
X168592016Y-98730493D01*
X168602338Y-98749002D01*
X168600789Y-98778686D01*
X168575140Y-98801385D01*
X168525460Y-98817060D01*
X168471031Y-98824305D01*
X168387264Y-98838127D01*
X168325033Y-98864204D01*
X168283507Y-98903301D01*
X168261853Y-98956180D01*
X168258853Y-99018874D01*
X168273671Y-99084358D01*
X168307454Y-99133856D01*
X168360505Y-99167592D01*
X168433126Y-99185793D01*
X168486928Y-99189361D01*
X168546017Y-99187548D01*
X168546017Y-99187548D01*
G37*
X168546017Y-99187548D02*
X168593634Y-99178518D01*
X168643034Y-99159630D01*
X168648312Y-99157223D01*
X168685774Y-99137524D01*
X168711717Y-99119219D01*
X168720103Y-99107492D01*
X168712117Y-99088368D01*
X168692720Y-99060150D01*
X168684110Y-99049616D01*
X168648628Y-99008153D01*
X168602885Y-99035142D01*
X168559350Y-99053122D01*
X168509050Y-99062733D01*
X168460812Y-99063340D01*
X168423467Y-99054309D01*
X168414505Y-99048673D01*
X168397437Y-99022829D01*
X168395363Y-98993059D01*
X168408134Y-98969803D01*
X168415688Y-98965292D01*
X168438325Y-98959691D01*
X168478115Y-98953108D01*
X168527166Y-98946817D01*
X168536215Y-98945830D01*
X168614996Y-98932202D01*
X168672136Y-98909054D01*
X168710030Y-98874248D01*
X168731079Y-98825646D01*
X168737635Y-98766282D01*
X168728577Y-98698802D01*
X168699164Y-98645812D01*
X168649278Y-98607217D01*
X168578800Y-98582919D01*
X168500565Y-98573333D01*
X168436766Y-98573448D01*
X168385016Y-98582155D01*
X168349673Y-98594175D01*
X168305017Y-98615120D01*
X168263747Y-98639426D01*
X168249079Y-98650124D01*
X168211357Y-98680916D01*
X168256852Y-98726951D01*
X168302347Y-98772987D01*
X168354072Y-98738757D01*
X168405952Y-98713048D01*
X168461351Y-98699601D01*
X168514605Y-98698182D01*
X168560049Y-98708557D01*
X168592016Y-98730493D01*
X168602338Y-98749002D01*
X168600789Y-98778686D01*
X168575140Y-98801385D01*
X168525460Y-98817060D01*
X168471031Y-98824305D01*
X168387264Y-98838127D01*
X168325033Y-98864204D01*
X168283507Y-98903301D01*
X168261853Y-98956180D01*
X168258853Y-99018874D01*
X168273671Y-99084358D01*
X168307454Y-99133856D01*
X168360505Y-99167592D01*
X168433126Y-99185793D01*
X168486928Y-99189361D01*
X168546017Y-99187548D01*
G36*
X169142762Y-99177945D02*
X169206363Y-99143308D01*
X169256123Y-99088628D01*
X169279568Y-99044158D01*
X169289634Y-99004879D01*
X169296156Y-98948884D01*
X169298951Y-98884379D01*
X169297836Y-98819571D01*
X169292626Y-98762666D01*
X169286541Y-98732273D01*
X169266014Y-98690694D01*
X169230463Y-98646532D01*
X169187619Y-98607913D01*
X169145211Y-98582966D01*
X169144177Y-98582570D01*
X169091553Y-98571669D01*
X169029188Y-98571399D01*
X168969924Y-98581324D01*
X168947040Y-98589278D01*
X168888102Y-98622700D01*
X168845890Y-98666489D01*
X168818156Y-98724462D01*
X168802651Y-98800435D01*
X168799143Y-98840229D01*
X168799590Y-98890234D01*
X168934376Y-98890234D01*
X168938917Y-98817268D01*
X168951986Y-98761666D01*
X168972756Y-98726139D01*
X168987552Y-98715980D01*
X169025464Y-98708896D01*
X169070527Y-98710993D01*
X169109487Y-98721188D01*
X169119704Y-98726796D01*
X169146659Y-98759462D01*
X169164451Y-98809455D01*
X169172024Y-98870295D01*
X169168325Y-98935503D01*
X169160057Y-98974747D01*
X169136320Y-99020195D01*
X169098849Y-99048604D01*
X169053720Y-99058427D01*
X169007011Y-99048113D01*
X168971132Y-99022888D01*
X168952277Y-99002075D01*
X168941272Y-98981561D01*
X168936026Y-98953797D01*
X168934449Y-98911238D01*
X168934376Y-98890234D01*
X168799590Y-98890234D01*
X168800094Y-98946420D01*
X168817388Y-99033499D01*
X168851029Y-99101470D01*
X168901018Y-99150336D01*
X168967356Y-99180101D01*
X168981601Y-99183552D01*
X169067210Y-99191655D01*
X169142762Y-99177945D01*
X169142762Y-99177945D01*
G37*
X169142762Y-99177945D02*
X169206363Y-99143308D01*
X169256123Y-99088628D01*
X169279568Y-99044158D01*
X169289634Y-99004879D01*
X169296156Y-98948884D01*
X169298951Y-98884379D01*
X169297836Y-98819571D01*
X169292626Y-98762666D01*
X169286541Y-98732273D01*
X169266014Y-98690694D01*
X169230463Y-98646532D01*
X169187619Y-98607913D01*
X169145211Y-98582966D01*
X169144177Y-98582570D01*
X169091553Y-98571669D01*
X169029188Y-98571399D01*
X168969924Y-98581324D01*
X168947040Y-98589278D01*
X168888102Y-98622700D01*
X168845890Y-98666489D01*
X168818156Y-98724462D01*
X168802651Y-98800435D01*
X168799143Y-98840229D01*
X168799590Y-98890234D01*
X168934376Y-98890234D01*
X168938917Y-98817268D01*
X168951986Y-98761666D01*
X168972756Y-98726139D01*
X168987552Y-98715980D01*
X169025464Y-98708896D01*
X169070527Y-98710993D01*
X169109487Y-98721188D01*
X169119704Y-98726796D01*
X169146659Y-98759462D01*
X169164451Y-98809455D01*
X169172024Y-98870295D01*
X169168325Y-98935503D01*
X169160057Y-98974747D01*
X169136320Y-99020195D01*
X169098849Y-99048604D01*
X169053720Y-99058427D01*
X169007011Y-99048113D01*
X168971132Y-99022888D01*
X168952277Y-99002075D01*
X168941272Y-98981561D01*
X168936026Y-98953797D01*
X168934449Y-98911238D01*
X168934376Y-98890234D01*
X168799590Y-98890234D01*
X168800094Y-98946420D01*
X168817388Y-99033499D01*
X168851029Y-99101470D01*
X168901018Y-99150336D01*
X168967356Y-99180101D01*
X168981601Y-99183552D01*
X169067210Y-99191655D01*
X169142762Y-99177945D01*
G36*
X169525367Y-98989658D02*
X169526555Y-98897437D01*
X169530897Y-98827390D01*
X169539558Y-98776619D01*
X169553704Y-98742228D01*
X169574500Y-98721321D01*
X169603110Y-98711000D01*
X169638535Y-98708364D01*
X169675636Y-98711318D01*
X169703818Y-98722111D01*
X169724243Y-98743640D01*
X169738079Y-98778801D01*
X169746491Y-98830490D01*
X169750643Y-98901606D01*
X169751703Y-98989658D01*
X169751703Y-99185386D01*
X169890020Y-99185386D01*
X169890020Y-98581821D01*
X169820862Y-98581821D01*
X169779170Y-98583511D01*
X169757701Y-98589444D01*
X169751703Y-98600707D01*
X169748091Y-98610739D01*
X169733714Y-98608617D01*
X169704736Y-98594420D01*
X169638319Y-98572520D01*
X169567875Y-98574072D01*
X169500377Y-98597853D01*
X169468233Y-98616638D01*
X169443715Y-98636978D01*
X169425804Y-98662427D01*
X169413479Y-98696542D01*
X169405723Y-98742879D01*
X169401516Y-98804993D01*
X169399840Y-98886439D01*
X169399624Y-98949422D01*
X169399624Y-99185386D01*
X169525367Y-99185386D01*
X169525367Y-98989658D01*
X169525367Y-98989658D01*
G37*
X169525367Y-98989658D02*
X169526555Y-98897437D01*
X169530897Y-98827390D01*
X169539558Y-98776619D01*
X169553704Y-98742228D01*
X169574500Y-98721321D01*
X169603110Y-98711000D01*
X169638535Y-98708364D01*
X169675636Y-98711318D01*
X169703818Y-98722111D01*
X169724243Y-98743640D01*
X169738079Y-98778801D01*
X169746491Y-98830490D01*
X169750643Y-98901606D01*
X169751703Y-98989658D01*
X169751703Y-99185386D01*
X169890020Y-99185386D01*
X169890020Y-98581821D01*
X169820862Y-98581821D01*
X169779170Y-98583511D01*
X169757701Y-98589444D01*
X169751703Y-98600707D01*
X169748091Y-98610739D01*
X169733714Y-98608617D01*
X169704736Y-98594420D01*
X169638319Y-98572520D01*
X169567875Y-98574072D01*
X169500377Y-98597853D01*
X169468233Y-98616638D01*
X169443715Y-98636978D01*
X169425804Y-98662427D01*
X169413479Y-98696542D01*
X169405723Y-98742879D01*
X169401516Y-98804993D01*
X169399840Y-98886439D01*
X169399624Y-98949422D01*
X169399624Y-99185386D01*
X169525367Y-99185386D01*
X169525367Y-98989658D01*
G36*
X170749226Y-99180120D02*
X170822080Y-99149170D01*
X170845027Y-99134105D01*
X170874354Y-99110952D01*
X170892764Y-99092747D01*
X170895961Y-99086817D01*
X170886935Y-99073660D01*
X170863837Y-99051333D01*
X170845344Y-99035750D01*
X170794728Y-98995074D01*
X170754760Y-99028705D01*
X170723874Y-99050416D01*
X170693759Y-99057910D01*
X170659292Y-99056080D01*
X170604561Y-99042472D01*
X170566886Y-99014228D01*
X170543991Y-98968567D01*
X170533597Y-98902711D01*
X170533595Y-98902669D01*
X170534494Y-98829061D01*
X170548463Y-98775054D01*
X170576328Y-98738284D01*
X170595325Y-98725832D01*
X170645776Y-98710327D01*
X170699663Y-98710317D01*
X170746546Y-98725362D01*
X170757644Y-98732713D01*
X170785476Y-98751489D01*
X170807236Y-98754566D01*
X170830704Y-98740591D01*
X170856649Y-98715490D01*
X170897716Y-98673120D01*
X170852121Y-98635536D01*
X170781674Y-98593118D01*
X170702233Y-98572215D01*
X170619215Y-98573728D01*
X170564694Y-98587589D01*
X170500970Y-98621865D01*
X170450005Y-98675788D01*
X170426851Y-98713851D01*
X170408099Y-98768464D01*
X170398715Y-98837631D01*
X170398643Y-98912593D01*
X170407824Y-98984591D01*
X170426199Y-99044863D01*
X170429093Y-99051042D01*
X170471952Y-99111649D01*
X170529979Y-99155776D01*
X170598591Y-99182507D01*
X170673201Y-99190927D01*
X170749226Y-99180120D01*
X170749226Y-99180120D01*
G37*
X170749226Y-99180120D02*
X170822080Y-99149170D01*
X170845027Y-99134105D01*
X170874354Y-99110952D01*
X170892764Y-99092747D01*
X170895961Y-99086817D01*
X170886935Y-99073660D01*
X170863837Y-99051333D01*
X170845344Y-99035750D01*
X170794728Y-98995074D01*
X170754760Y-99028705D01*
X170723874Y-99050416D01*
X170693759Y-99057910D01*
X170659292Y-99056080D01*
X170604561Y-99042472D01*
X170566886Y-99014228D01*
X170543991Y-98968567D01*
X170533597Y-98902711D01*
X170533595Y-98902669D01*
X170534494Y-98829061D01*
X170548463Y-98775054D01*
X170576328Y-98738284D01*
X170595325Y-98725832D01*
X170645776Y-98710327D01*
X170699663Y-98710317D01*
X170746546Y-98725362D01*
X170757644Y-98732713D01*
X170785476Y-98751489D01*
X170807236Y-98754566D01*
X170830704Y-98740591D01*
X170856649Y-98715490D01*
X170897716Y-98673120D01*
X170852121Y-98635536D01*
X170781674Y-98593118D01*
X170702233Y-98572215D01*
X170619215Y-98573728D01*
X170564694Y-98587589D01*
X170500970Y-98621865D01*
X170450005Y-98675788D01*
X170426851Y-98713851D01*
X170408099Y-98768464D01*
X170398715Y-98837631D01*
X170398643Y-98912593D01*
X170407824Y-98984591D01*
X170426199Y-99044863D01*
X170429093Y-99051042D01*
X170471952Y-99111649D01*
X170529979Y-99155776D01*
X170598591Y-99182507D01*
X170673201Y-99190927D01*
X170749226Y-99180120D01*
G36*
X171209898Y-99187543D02*
X171242096Y-99179721D01*
X171303825Y-99151079D01*
X171356610Y-99107333D01*
X171393141Y-99054883D01*
X171398160Y-99043107D01*
X171405045Y-99012260D01*
X171409864Y-98966629D01*
X171411505Y-98920508D01*
X171411505Y-98833307D01*
X171229178Y-98833307D01*
X171153979Y-98833022D01*
X171101003Y-98831296D01*
X171067325Y-98826819D01*
X171050020Y-98818280D01*
X171046163Y-98804370D01*
X171052829Y-98783778D01*
X171064770Y-98759685D01*
X171098080Y-98719475D01*
X171144368Y-98699442D01*
X171200944Y-98700095D01*
X171265031Y-98721899D01*
X171320417Y-98748807D01*
X171366375Y-98712468D01*
X171412333Y-98676128D01*
X171369096Y-98636181D01*
X171311374Y-98598437D01*
X171240386Y-98575680D01*
X171164029Y-98569312D01*
X171090199Y-98580732D01*
X171078287Y-98584607D01*
X171013399Y-98618494D01*
X170965130Y-98669014D01*
X170932465Y-98737675D01*
X170914385Y-98825986D01*
X170914175Y-98827879D01*
X170912556Y-98924122D01*
X170919100Y-98958458D01*
X171046852Y-98958458D01*
X171058584Y-98953178D01*
X171090438Y-98949133D01*
X171137397Y-98946824D01*
X171167154Y-98946475D01*
X171222648Y-98946694D01*
X171257346Y-98948084D01*
X171275601Y-98951749D01*
X171281766Y-98958790D01*
X171280195Y-98970310D01*
X171278878Y-98974767D01*
X171256382Y-99016645D01*
X171221003Y-99050396D01*
X171189780Y-99065227D01*
X171148301Y-99064332D01*
X171106269Y-99045836D01*
X171071012Y-99015214D01*
X171049854Y-98977938D01*
X171046852Y-98958458D01*
X170919100Y-98958458D01*
X170928690Y-99008771D01*
X170960698Y-99079809D01*
X171006701Y-99135221D01*
X171064821Y-99172991D01*
X171133180Y-99191104D01*
X171209898Y-99187543D01*
X171209898Y-99187543D01*
G37*
X171209898Y-99187543D02*
X171242096Y-99179721D01*
X171303825Y-99151079D01*
X171356610Y-99107333D01*
X171393141Y-99054883D01*
X171398160Y-99043107D01*
X171405045Y-99012260D01*
X171409864Y-98966629D01*
X171411505Y-98920508D01*
X171411505Y-98833307D01*
X171229178Y-98833307D01*
X171153979Y-98833022D01*
X171101003Y-98831296D01*
X171067325Y-98826819D01*
X171050020Y-98818280D01*
X171046163Y-98804370D01*
X171052829Y-98783778D01*
X171064770Y-98759685D01*
X171098080Y-98719475D01*
X171144368Y-98699442D01*
X171200944Y-98700095D01*
X171265031Y-98721899D01*
X171320417Y-98748807D01*
X171366375Y-98712468D01*
X171412333Y-98676128D01*
X171369096Y-98636181D01*
X171311374Y-98598437D01*
X171240386Y-98575680D01*
X171164029Y-98569312D01*
X171090199Y-98580732D01*
X171078287Y-98584607D01*
X171013399Y-98618494D01*
X170965130Y-98669014D01*
X170932465Y-98737675D01*
X170914385Y-98825986D01*
X170914175Y-98827879D01*
X170912556Y-98924122D01*
X170919100Y-98958458D01*
X171046852Y-98958458D01*
X171058584Y-98953178D01*
X171090438Y-98949133D01*
X171137397Y-98946824D01*
X171167154Y-98946475D01*
X171222648Y-98946694D01*
X171257346Y-98948084D01*
X171275601Y-98951749D01*
X171281766Y-98958790D01*
X171280195Y-98970310D01*
X171278878Y-98974767D01*
X171256382Y-99016645D01*
X171221003Y-99050396D01*
X171189780Y-99065227D01*
X171148301Y-99064332D01*
X171106269Y-99045836D01*
X171071012Y-99015214D01*
X171049854Y-98977938D01*
X171046852Y-98958458D01*
X170919100Y-98958458D01*
X170928690Y-99008771D01*
X170960698Y-99079809D01*
X171006701Y-99135221D01*
X171064821Y-99172991D01*
X171133180Y-99191104D01*
X171209898Y-99187543D01*
G36*
X167777988Y-99174998D02*
X167809283Y-99160050D01*
X167839591Y-99138459D01*
X167862682Y-99113609D01*
X167879500Y-99081913D01*
X167890994Y-99039786D01*
X167898109Y-98983642D01*
X167901793Y-98909894D01*
X167902992Y-98814956D01*
X167903011Y-98805015D01*
X167903287Y-98581821D01*
X167764970Y-98581821D01*
X167764970Y-98787582D01*
X167764872Y-98863811D01*
X167764191Y-98919061D01*
X167762349Y-98957499D01*
X167758767Y-98983294D01*
X167752868Y-99000616D01*
X167744073Y-99013632D01*
X167731820Y-99026493D01*
X167688953Y-99054127D01*
X167642157Y-99059255D01*
X167597576Y-99041783D01*
X167582072Y-99028779D01*
X167570690Y-99016553D01*
X167562519Y-99003460D01*
X167557026Y-98985385D01*
X167553680Y-98958213D01*
X167551949Y-98917830D01*
X167551303Y-98860121D01*
X167551208Y-98789868D01*
X167551208Y-98581821D01*
X167412891Y-98581821D01*
X167412891Y-99185386D01*
X167482050Y-99185386D01*
X167523572Y-99183744D01*
X167544994Y-99177913D01*
X167551205Y-99166539D01*
X167551208Y-99166202D01*
X167554090Y-99155062D01*
X167566801Y-99156326D01*
X167592074Y-99168566D01*
X167649395Y-99186576D01*
X167714963Y-99188579D01*
X167777988Y-99174998D01*
X167777988Y-99174998D01*
G37*
X167777988Y-99174998D02*
X167809283Y-99160050D01*
X167839591Y-99138459D01*
X167862682Y-99113609D01*
X167879500Y-99081913D01*
X167890994Y-99039786D01*
X167898109Y-98983642D01*
X167901793Y-98909894D01*
X167902992Y-98814956D01*
X167903011Y-98805015D01*
X167903287Y-98581821D01*
X167764970Y-98581821D01*
X167764970Y-98787582D01*
X167764872Y-98863811D01*
X167764191Y-98919061D01*
X167762349Y-98957499D01*
X167758767Y-98983294D01*
X167752868Y-99000616D01*
X167744073Y-99013632D01*
X167731820Y-99026493D01*
X167688953Y-99054127D01*
X167642157Y-99059255D01*
X167597576Y-99041783D01*
X167582072Y-99028779D01*
X167570690Y-99016553D01*
X167562519Y-99003460D01*
X167557026Y-98985385D01*
X167553680Y-98958213D01*
X167551949Y-98917830D01*
X167551303Y-98860121D01*
X167551208Y-98789868D01*
X167551208Y-98581821D01*
X167412891Y-98581821D01*
X167412891Y-99185386D01*
X167482050Y-99185386D01*
X167523572Y-99183744D01*
X167544994Y-99177913D01*
X167551205Y-99166539D01*
X167551208Y-99166202D01*
X167554090Y-99155062D01*
X167566801Y-99156326D01*
X167592074Y-99168566D01*
X167649395Y-99186576D01*
X167714963Y-99188579D01*
X167777988Y-99174998D01*
G36*
X170331460Y-99185970D02*
X170374711Y-99172755D01*
X170402558Y-99156059D01*
X170411629Y-99142855D01*
X170409132Y-99127203D01*
X170392931Y-99102615D01*
X170379232Y-99085200D01*
X170350992Y-99053717D01*
X170329775Y-99040471D01*
X170311688Y-99041336D01*
X170258035Y-99054990D01*
X170218630Y-99054370D01*
X170186632Y-99038896D01*
X170175890Y-99029839D01*
X170141505Y-98997973D01*
X170141505Y-98581821D01*
X170003188Y-98581821D01*
X170003188Y-99185386D01*
X170072347Y-99185386D01*
X170113869Y-99183744D01*
X170135291Y-99177913D01*
X170141502Y-99166539D01*
X170141505Y-99166202D01*
X170144439Y-99154287D01*
X170157704Y-99155841D01*
X170176084Y-99164437D01*
X170214046Y-99180432D01*
X170244872Y-99190055D01*
X170284536Y-99192522D01*
X170331460Y-99185970D01*
X170331460Y-99185970D01*
G37*
X170331460Y-99185970D02*
X170374711Y-99172755D01*
X170402558Y-99156059D01*
X170411629Y-99142855D01*
X170409132Y-99127203D01*
X170392931Y-99102615D01*
X170379232Y-99085200D01*
X170350992Y-99053717D01*
X170329775Y-99040471D01*
X170311688Y-99041336D01*
X170258035Y-99054990D01*
X170218630Y-99054370D01*
X170186632Y-99038896D01*
X170175890Y-99029839D01*
X170141505Y-98997973D01*
X170141505Y-98581821D01*
X170003188Y-98581821D01*
X170003188Y-99185386D01*
X170072347Y-99185386D01*
X170113869Y-99183744D01*
X170135291Y-99177913D01*
X170141502Y-99166539D01*
X170141505Y-99166202D01*
X170144439Y-99154287D01*
X170157704Y-99155841D01*
X170176084Y-99164437D01*
X170214046Y-99180432D01*
X170244872Y-99190055D01*
X170284536Y-99192522D01*
X170331460Y-99185970D01*
G36*
X168908964Y-103353982D02*
X168965812Y-103052430D01*
X169385338Y-102879488D01*
X169636984Y-103050605D01*
X169707458Y-103098250D01*
X169771163Y-103140790D01*
X169825126Y-103176285D01*
X169866373Y-103202790D01*
X169891934Y-103218364D01*
X169898895Y-103221722D01*
X169911435Y-103213086D01*
X169938231Y-103189208D01*
X169976280Y-103153141D01*
X170022579Y-103107933D01*
X170074123Y-103056636D01*
X170127909Y-103002299D01*
X170180935Y-102947972D01*
X170230195Y-102896705D01*
X170272687Y-102851549D01*
X170305407Y-102815554D01*
X170325351Y-102791770D01*
X170330119Y-102783810D01*
X170323257Y-102769135D01*
X170304020Y-102736986D01*
X170274430Y-102690508D01*
X170236510Y-102632844D01*
X170192282Y-102567140D01*
X170166654Y-102529664D01*
X170119941Y-102461232D01*
X170078432Y-102399480D01*
X170044140Y-102347481D01*
X170019080Y-102308308D01*
X170005264Y-102285035D01*
X170003188Y-102280145D01*
X170007895Y-102266245D01*
X170020723Y-102233850D01*
X170039738Y-102187515D01*
X170063003Y-102131794D01*
X170088584Y-102071242D01*
X170114545Y-102010414D01*
X170138950Y-101953864D01*
X170159863Y-101906148D01*
X170175349Y-101871819D01*
X170183472Y-101855432D01*
X170183952Y-101854788D01*
X170196707Y-101851659D01*
X170230677Y-101844679D01*
X170282340Y-101834533D01*
X170348176Y-101821908D01*
X170424664Y-101807491D01*
X170469290Y-101799177D01*
X170551021Y-101783616D01*
X170624843Y-101768808D01*
X170687021Y-101755564D01*
X170733822Y-101744695D01*
X170761509Y-101737011D01*
X170767074Y-101734573D01*
X170772526Y-101718070D01*
X170776924Y-101680800D01*
X170780272Y-101627120D01*
X170782574Y-101561388D01*
X170783832Y-101487963D01*
X170784048Y-101411204D01*
X170783227Y-101335468D01*
X170781371Y-101265114D01*
X170778482Y-101204500D01*
X170774565Y-101157984D01*
X170769622Y-101129925D01*
X170766657Y-101124084D01*
X170748934Y-101117083D01*
X170711381Y-101107073D01*
X170658964Y-101095231D01*
X170596652Y-101082733D01*
X170574900Y-101078690D01*
X170470024Y-101059480D01*
X170387180Y-101044009D01*
X170323630Y-101031663D01*
X170276637Y-101021827D01*
X170243463Y-101013886D01*
X170221371Y-101007224D01*
X170207624Y-101001227D01*
X170199484Y-100995281D01*
X170198345Y-100994106D01*
X170186977Y-100975174D01*
X170169635Y-100938331D01*
X170148050Y-100888087D01*
X170123954Y-100828954D01*
X170099079Y-100765444D01*
X170075157Y-100702068D01*
X170053919Y-100643338D01*
X170037097Y-100593765D01*
X170026422Y-100557861D01*
X170023627Y-100540138D01*
X170023860Y-100539517D01*
X170033331Y-100525030D01*
X170054818Y-100493156D01*
X170086063Y-100447211D01*
X170124807Y-100390515D01*
X170168793Y-100326383D01*
X170181319Y-100308158D01*
X170225984Y-100242086D01*
X170265288Y-100181800D01*
X170297088Y-100130765D01*
X170319245Y-100092440D01*
X170329617Y-100070289D01*
X170330119Y-100067568D01*
X170321405Y-100053264D01*
X170297325Y-100024928D01*
X170260976Y-99985604D01*
X170215453Y-99938339D01*
X170163852Y-99886177D01*
X170109267Y-99832165D01*
X170054794Y-99779347D01*
X170003529Y-99730769D01*
X169958567Y-99689477D01*
X169923004Y-99658515D01*
X169899935Y-99640930D01*
X169893554Y-99638059D01*
X169878699Y-99644822D01*
X169848286Y-99663061D01*
X169807268Y-99689703D01*
X169775709Y-99711148D01*
X169718525Y-99750497D01*
X169650806Y-99796829D01*
X169582880Y-99843087D01*
X169546361Y-99867845D01*
X169422752Y-99951453D01*
X169318991Y-99895350D01*
X169271720Y-99870772D01*
X169231523Y-99851669D01*
X169204326Y-99840773D01*
X169197402Y-99839257D01*
X169189077Y-99850451D01*
X169172654Y-99882083D01*
X169149357Y-99931235D01*
X169120414Y-99994990D01*
X169087050Y-100070429D01*
X169050491Y-100154636D01*
X169011964Y-100244692D01*
X168972694Y-100337679D01*
X168933908Y-100430680D01*
X168896830Y-100520777D01*
X168862689Y-100605052D01*
X168832708Y-100680587D01*
X168808116Y-100744466D01*
X168790136Y-100793769D01*
X168779997Y-100825579D01*
X168778366Y-100836504D01*
X168791291Y-100850439D01*
X168819589Y-100873060D01*
X168857346Y-100899667D01*
X168860515Y-100901772D01*
X168958100Y-100979886D01*
X169036786Y-101071018D01*
X169095891Y-101172255D01*
X169134732Y-101280682D01*
X169152628Y-101393386D01*
X169148897Y-101507452D01*
X169122857Y-101619966D01*
X169073825Y-101728015D01*
X169059400Y-101751655D01*
X168984369Y-101847113D01*
X168895730Y-101923768D01*
X168796549Y-101981220D01*
X168689895Y-102019071D01*
X168578836Y-102036922D01*
X168466439Y-102034375D01*
X168355773Y-102011030D01*
X168249906Y-101966490D01*
X168151905Y-101900355D01*
X168121590Y-101873513D01*
X168044438Y-101789488D01*
X167988218Y-101701034D01*
X167949653Y-101601885D01*
X167928174Y-101503697D01*
X167922872Y-101393303D01*
X167940552Y-101282360D01*
X167979419Y-101174619D01*
X168037677Y-101073831D01*
X168113531Y-100983744D01*
X168205183Y-100908108D01*
X168217228Y-100900136D01*
X168255389Y-100874026D01*
X168284399Y-100851405D01*
X168298268Y-100836961D01*
X168298469Y-100836504D01*
X168295492Y-100820879D01*
X168283689Y-100785418D01*
X168264286Y-100733038D01*
X168238512Y-100666655D01*
X168207591Y-100589186D01*
X168172751Y-100503550D01*
X168135217Y-100412663D01*
X168096217Y-100319441D01*
X168056977Y-100226803D01*
X168018724Y-100137665D01*
X167982683Y-100054945D01*
X167950083Y-99981559D01*
X167922148Y-99920425D01*
X167900105Y-99874459D01*
X167885182Y-99846579D01*
X167879172Y-99839257D01*
X167860809Y-99844959D01*
X167826448Y-99860251D01*
X167782016Y-99882401D01*
X167757583Y-99895350D01*
X167653822Y-99951453D01*
X167530213Y-99867845D01*
X167467114Y-99825013D01*
X167398030Y-99777878D01*
X167333293Y-99733497D01*
X167300866Y-99711148D01*
X167255259Y-99680523D01*
X167216640Y-99656253D01*
X167190048Y-99641413D01*
X167181410Y-99638276D01*
X167168839Y-99646739D01*
X167141016Y-99670364D01*
X167100639Y-99706698D01*
X167050405Y-99753289D01*
X166993012Y-99807683D01*
X166956714Y-99842608D01*
X166893210Y-99905004D01*
X166838327Y-99960812D01*
X166794286Y-100007646D01*
X166763305Y-100043118D01*
X166747602Y-100064839D01*
X166746095Y-100069248D01*
X166753086Y-100086015D01*
X166772406Y-100119918D01*
X166801909Y-100167524D01*
X166839455Y-100225401D01*
X166882900Y-100290116D01*
X166895255Y-100308158D01*
X166940273Y-100373733D01*
X166980660Y-100432772D01*
X167014160Y-100481958D01*
X167038514Y-100517972D01*
X167051464Y-100537498D01*
X167052715Y-100539517D01*
X167050844Y-100555078D01*
X167040913Y-100589291D01*
X167024653Y-100637645D01*
X167003795Y-100695629D01*
X166980073Y-100758730D01*
X166955216Y-100822437D01*
X166930958Y-100882239D01*
X166909029Y-100933624D01*
X166891162Y-100972081D01*
X166879087Y-100993098D01*
X166878229Y-100994106D01*
X166870846Y-101000112D01*
X166858375Y-101006052D01*
X166838080Y-101012540D01*
X166807222Y-101020191D01*
X166763066Y-101029620D01*
X166702874Y-101041441D01*
X166623907Y-101056271D01*
X166523430Y-101074723D01*
X166501675Y-101078690D01*
X166437198Y-101091147D01*
X166380989Y-101103334D01*
X166338013Y-101114074D01*
X166313240Y-101122191D01*
X166309918Y-101124084D01*
X166304444Y-101140862D01*
X166299994Y-101178355D01*
X166296572Y-101232206D01*
X166294181Y-101298056D01*
X166292823Y-101371547D01*
X166292501Y-101448320D01*
X166293219Y-101524017D01*
X166294979Y-101594280D01*
X166297784Y-101654750D01*
X166301638Y-101701070D01*
X166306543Y-101728881D01*
X166309500Y-101734573D01*
X166325963Y-101740314D01*
X166363449Y-101749655D01*
X166418225Y-101761785D01*
X166486555Y-101775893D01*
X166564706Y-101791170D01*
X166607284Y-101799177D01*
X166688071Y-101814279D01*
X166760113Y-101827960D01*
X166819889Y-101839533D01*
X166863879Y-101848313D01*
X166888561Y-101853613D01*
X166892623Y-101854788D01*
X166899489Y-101868035D01*
X166914002Y-101899943D01*
X166934229Y-101945953D01*
X166958234Y-102001508D01*
X166984082Y-102062047D01*
X167009840Y-102123014D01*
X167033573Y-102179849D01*
X167053346Y-102227994D01*
X167067224Y-102262890D01*
X167073274Y-102279979D01*
X167073386Y-102280726D01*
X167066528Y-102294207D01*
X167047302Y-102325230D01*
X167017728Y-102370711D01*
X166979827Y-102427568D01*
X166935620Y-102492717D01*
X166909921Y-102530138D01*
X166863093Y-102598753D01*
X166821501Y-102661048D01*
X166787175Y-102713871D01*
X166762143Y-102754073D01*
X166748435Y-102778500D01*
X166746456Y-102783976D01*
X166754966Y-102796722D01*
X166778493Y-102823937D01*
X166814032Y-102862572D01*
X166858577Y-102909577D01*
X166909123Y-102961905D01*
X166962664Y-103016505D01*
X167016195Y-103070330D01*
X167066711Y-103120330D01*
X167111206Y-103163457D01*
X167146675Y-103196661D01*
X167170113Y-103216894D01*
X167177954Y-103221722D01*
X167190720Y-103214933D01*
X167221256Y-103195858D01*
X167266590Y-103166439D01*
X167323756Y-103128619D01*
X167389784Y-103084339D01*
X167439590Y-103050605D01*
X167691236Y-102879488D01*
X167900999Y-102965959D01*
X168110763Y-103052430D01*
X168167611Y-103353982D01*
X168224460Y-103655534D01*
X168852115Y-103655534D01*
X168908964Y-103353982D01*
X168908964Y-103353982D01*
G37*
X168908964Y-103353982D02*
X168965812Y-103052430D01*
X169385338Y-102879488D01*
X169636984Y-103050605D01*
X169707458Y-103098250D01*
X169771163Y-103140790D01*
X169825126Y-103176285D01*
X169866373Y-103202790D01*
X169891934Y-103218364D01*
X169898895Y-103221722D01*
X169911435Y-103213086D01*
X169938231Y-103189208D01*
X169976280Y-103153141D01*
X170022579Y-103107933D01*
X170074123Y-103056636D01*
X170127909Y-103002299D01*
X170180935Y-102947972D01*
X170230195Y-102896705D01*
X170272687Y-102851549D01*
X170305407Y-102815554D01*
X170325351Y-102791770D01*
X170330119Y-102783810D01*
X170323257Y-102769135D01*
X170304020Y-102736986D01*
X170274430Y-102690508D01*
X170236510Y-102632844D01*
X170192282Y-102567140D01*
X170166654Y-102529664D01*
X170119941Y-102461232D01*
X170078432Y-102399480D01*
X170044140Y-102347481D01*
X170019080Y-102308308D01*
X170005264Y-102285035D01*
X170003188Y-102280145D01*
X170007895Y-102266245D01*
X170020723Y-102233850D01*
X170039738Y-102187515D01*
X170063003Y-102131794D01*
X170088584Y-102071242D01*
X170114545Y-102010414D01*
X170138950Y-101953864D01*
X170159863Y-101906148D01*
X170175349Y-101871819D01*
X170183472Y-101855432D01*
X170183952Y-101854788D01*
X170196707Y-101851659D01*
X170230677Y-101844679D01*
X170282340Y-101834533D01*
X170348176Y-101821908D01*
X170424664Y-101807491D01*
X170469290Y-101799177D01*
X170551021Y-101783616D01*
X170624843Y-101768808D01*
X170687021Y-101755564D01*
X170733822Y-101744695D01*
X170761509Y-101737011D01*
X170767074Y-101734573D01*
X170772526Y-101718070D01*
X170776924Y-101680800D01*
X170780272Y-101627120D01*
X170782574Y-101561388D01*
X170783832Y-101487963D01*
X170784048Y-101411204D01*
X170783227Y-101335468D01*
X170781371Y-101265114D01*
X170778482Y-101204500D01*
X170774565Y-101157984D01*
X170769622Y-101129925D01*
X170766657Y-101124084D01*
X170748934Y-101117083D01*
X170711381Y-101107073D01*
X170658964Y-101095231D01*
X170596652Y-101082733D01*
X170574900Y-101078690D01*
X170470024Y-101059480D01*
X170387180Y-101044009D01*
X170323630Y-101031663D01*
X170276637Y-101021827D01*
X170243463Y-101013886D01*
X170221371Y-101007224D01*
X170207624Y-101001227D01*
X170199484Y-100995281D01*
X170198345Y-100994106D01*
X170186977Y-100975174D01*
X170169635Y-100938331D01*
X170148050Y-100888087D01*
X170123954Y-100828954D01*
X170099079Y-100765444D01*
X170075157Y-100702068D01*
X170053919Y-100643338D01*
X170037097Y-100593765D01*
X170026422Y-100557861D01*
X170023627Y-100540138D01*
X170023860Y-100539517D01*
X170033331Y-100525030D01*
X170054818Y-100493156D01*
X170086063Y-100447211D01*
X170124807Y-100390515D01*
X170168793Y-100326383D01*
X170181319Y-100308158D01*
X170225984Y-100242086D01*
X170265288Y-100181800D01*
X170297088Y-100130765D01*
X170319245Y-100092440D01*
X170329617Y-100070289D01*
X170330119Y-100067568D01*
X170321405Y-100053264D01*
X170297325Y-100024928D01*
X170260976Y-99985604D01*
X170215453Y-99938339D01*
X170163852Y-99886177D01*
X170109267Y-99832165D01*
X170054794Y-99779347D01*
X170003529Y-99730769D01*
X169958567Y-99689477D01*
X169923004Y-99658515D01*
X169899935Y-99640930D01*
X169893554Y-99638059D01*
X169878699Y-99644822D01*
X169848286Y-99663061D01*
X169807268Y-99689703D01*
X169775709Y-99711148D01*
X169718525Y-99750497D01*
X169650806Y-99796829D01*
X169582880Y-99843087D01*
X169546361Y-99867845D01*
X169422752Y-99951453D01*
X169318991Y-99895350D01*
X169271720Y-99870772D01*
X169231523Y-99851669D01*
X169204326Y-99840773D01*
X169197402Y-99839257D01*
X169189077Y-99850451D01*
X169172654Y-99882083D01*
X169149357Y-99931235D01*
X169120414Y-99994990D01*
X169087050Y-100070429D01*
X169050491Y-100154636D01*
X169011964Y-100244692D01*
X168972694Y-100337679D01*
X168933908Y-100430680D01*
X168896830Y-100520777D01*
X168862689Y-100605052D01*
X168832708Y-100680587D01*
X168808116Y-100744466D01*
X168790136Y-100793769D01*
X168779997Y-100825579D01*
X168778366Y-100836504D01*
X168791291Y-100850439D01*
X168819589Y-100873060D01*
X168857346Y-100899667D01*
X168860515Y-100901772D01*
X168958100Y-100979886D01*
X169036786Y-101071018D01*
X169095891Y-101172255D01*
X169134732Y-101280682D01*
X169152628Y-101393386D01*
X169148897Y-101507452D01*
X169122857Y-101619966D01*
X169073825Y-101728015D01*
X169059400Y-101751655D01*
X168984369Y-101847113D01*
X168895730Y-101923768D01*
X168796549Y-101981220D01*
X168689895Y-102019071D01*
X168578836Y-102036922D01*
X168466439Y-102034375D01*
X168355773Y-102011030D01*
X168249906Y-101966490D01*
X168151905Y-101900355D01*
X168121590Y-101873513D01*
X168044438Y-101789488D01*
X167988218Y-101701034D01*
X167949653Y-101601885D01*
X167928174Y-101503697D01*
X167922872Y-101393303D01*
X167940552Y-101282360D01*
X167979419Y-101174619D01*
X168037677Y-101073831D01*
X168113531Y-100983744D01*
X168205183Y-100908108D01*
X168217228Y-100900136D01*
X168255389Y-100874026D01*
X168284399Y-100851405D01*
X168298268Y-100836961D01*
X168298469Y-100836504D01*
X168295492Y-100820879D01*
X168283689Y-100785418D01*
X168264286Y-100733038D01*
X168238512Y-100666655D01*
X168207591Y-100589186D01*
X168172751Y-100503550D01*
X168135217Y-100412663D01*
X168096217Y-100319441D01*
X168056977Y-100226803D01*
X168018724Y-100137665D01*
X167982683Y-100054945D01*
X167950083Y-99981559D01*
X167922148Y-99920425D01*
X167900105Y-99874459D01*
X167885182Y-99846579D01*
X167879172Y-99839257D01*
X167860809Y-99844959D01*
X167826448Y-99860251D01*
X167782016Y-99882401D01*
X167757583Y-99895350D01*
X167653822Y-99951453D01*
X167530213Y-99867845D01*
X167467114Y-99825013D01*
X167398030Y-99777878D01*
X167333293Y-99733497D01*
X167300866Y-99711148D01*
X167255259Y-99680523D01*
X167216640Y-99656253D01*
X167190048Y-99641413D01*
X167181410Y-99638276D01*
X167168839Y-99646739D01*
X167141016Y-99670364D01*
X167100639Y-99706698D01*
X167050405Y-99753289D01*
X166993012Y-99807683D01*
X166956714Y-99842608D01*
X166893210Y-99905004D01*
X166838327Y-99960812D01*
X166794286Y-100007646D01*
X166763305Y-100043118D01*
X166747602Y-100064839D01*
X166746095Y-100069248D01*
X166753086Y-100086015D01*
X166772406Y-100119918D01*
X166801909Y-100167524D01*
X166839455Y-100225401D01*
X166882900Y-100290116D01*
X166895255Y-100308158D01*
X166940273Y-100373733D01*
X166980660Y-100432772D01*
X167014160Y-100481958D01*
X167038514Y-100517972D01*
X167051464Y-100537498D01*
X167052715Y-100539517D01*
X167050844Y-100555078D01*
X167040913Y-100589291D01*
X167024653Y-100637645D01*
X167003795Y-100695629D01*
X166980073Y-100758730D01*
X166955216Y-100822437D01*
X166930958Y-100882239D01*
X166909029Y-100933624D01*
X166891162Y-100972081D01*
X166879087Y-100993098D01*
X166878229Y-100994106D01*
X166870846Y-101000112D01*
X166858375Y-101006052D01*
X166838080Y-101012540D01*
X166807222Y-101020191D01*
X166763066Y-101029620D01*
X166702874Y-101041441D01*
X166623907Y-101056271D01*
X166523430Y-101074723D01*
X166501675Y-101078690D01*
X166437198Y-101091147D01*
X166380989Y-101103334D01*
X166338013Y-101114074D01*
X166313240Y-101122191D01*
X166309918Y-101124084D01*
X166304444Y-101140862D01*
X166299994Y-101178355D01*
X166296572Y-101232206D01*
X166294181Y-101298056D01*
X166292823Y-101371547D01*
X166292501Y-101448320D01*
X166293219Y-101524017D01*
X166294979Y-101594280D01*
X166297784Y-101654750D01*
X166301638Y-101701070D01*
X166306543Y-101728881D01*
X166309500Y-101734573D01*
X166325963Y-101740314D01*
X166363449Y-101749655D01*
X166418225Y-101761785D01*
X166486555Y-101775893D01*
X166564706Y-101791170D01*
X166607284Y-101799177D01*
X166688071Y-101814279D01*
X166760113Y-101827960D01*
X166819889Y-101839533D01*
X166863879Y-101848313D01*
X166888561Y-101853613D01*
X166892623Y-101854788D01*
X166899489Y-101868035D01*
X166914002Y-101899943D01*
X166934229Y-101945953D01*
X166958234Y-102001508D01*
X166984082Y-102062047D01*
X167009840Y-102123014D01*
X167033573Y-102179849D01*
X167053346Y-102227994D01*
X167067224Y-102262890D01*
X167073274Y-102279979D01*
X167073386Y-102280726D01*
X167066528Y-102294207D01*
X167047302Y-102325230D01*
X167017728Y-102370711D01*
X166979827Y-102427568D01*
X166935620Y-102492717D01*
X166909921Y-102530138D01*
X166863093Y-102598753D01*
X166821501Y-102661048D01*
X166787175Y-102713871D01*
X166762143Y-102754073D01*
X166748435Y-102778500D01*
X166746456Y-102783976D01*
X166754966Y-102796722D01*
X166778493Y-102823937D01*
X166814032Y-102862572D01*
X166858577Y-102909577D01*
X166909123Y-102961905D01*
X166962664Y-103016505D01*
X167016195Y-103070330D01*
X167066711Y-103120330D01*
X167111206Y-103163457D01*
X167146675Y-103196661D01*
X167170113Y-103216894D01*
X167177954Y-103221722D01*
X167190720Y-103214933D01*
X167221256Y-103195858D01*
X167266590Y-103166439D01*
X167323756Y-103128619D01*
X167389784Y-103084339D01*
X167439590Y-103050605D01*
X167691236Y-102879488D01*
X167900999Y-102965959D01*
X168110763Y-103052430D01*
X168167611Y-103353982D01*
X168224460Y-103655534D01*
X168852115Y-103655534D01*
X168908964Y-103353982D01*
D12*
X188207000Y-111088420D03*
X188207000Y-99219000D03*
D13*
X181857000Y-100704900D03*
D14*
X179317000Y-101974900D03*
X181857000Y-103244900D03*
X179317000Y-104514900D03*
X181857000Y-105784900D03*
X179317000Y-107054900D03*
X181857000Y-108324900D03*
X179317000Y-109594900D03*
D15*
X142969540Y-106444900D03*
X142969540Y-105794900D03*
X142969540Y-105144900D03*
X142969540Y-104494900D03*
X142969540Y-103844900D03*
D16*
X142969540Y-107644900D03*
X142969540Y-102644900D03*
D17*
X140269540Y-108644900D03*
X140269540Y-101644900D03*
D18*
X155007000Y-102344000D03*
X155007000Y-109744000D03*
X166091688Y-103859114D03*
X173237602Y-107152149D03*
X177482000Y-102644000D03*
X177482000Y-106644000D03*
X190246000Y-107061000D03*
X161632000Y-101294000D03*
X174782000Y-105594000D03*
X163632000Y-101294000D03*
X173382000Y-101294000D03*
X192832000Y-102094000D03*
X193982000Y-102394000D03*
X173482000Y-109144000D03*
X163732000Y-100094000D03*
D19*
X142969540Y-103844900D02*
X142969540Y-102644900D01*
D20*
X161632000Y-101294000D02*
X165932000Y-105594000D01*
X165932000Y-105594000D02*
X174782000Y-105594000D01*
X181864000Y-103251000D02*
X181864000Y-104312466D01*
X181864000Y-104312466D02*
X180582466Y-105594000D01*
X180582466Y-105594000D02*
X174782000Y-105594000D01*
D19*
X163289101Y-100951101D02*
X163632000Y-101294000D01*
X155734008Y-105794900D02*
X161079297Y-100449611D01*
X142969540Y-105794900D02*
X155734008Y-105794900D01*
X162787611Y-100449611D02*
X163289101Y-100951101D01*
X161079297Y-100449611D02*
X162787611Y-100449611D01*
D20*
X192832000Y-102094000D02*
X180660174Y-102094000D01*
X180660174Y-102094000D02*
X179794003Y-102960171D01*
X179794003Y-102960171D02*
X178853997Y-102960171D01*
X178853997Y-102960171D02*
X177187826Y-101294000D01*
X177187826Y-101294000D02*
X173382000Y-101294000D01*
X189605829Y-106770171D02*
X181962555Y-106770171D01*
X181962555Y-106770171D02*
X180116997Y-108615729D01*
X180116997Y-108615729D02*
X174010271Y-108615729D01*
X174010271Y-108615729D02*
X173824899Y-108801101D01*
X173824899Y-108801101D02*
X173482000Y-109144000D01*
X193982000Y-102394000D02*
X189605829Y-106770171D01*
D19*
X193834429Y-102246429D02*
X193982000Y-102394000D01*
X155881100Y-105144900D02*
X160932000Y-100094000D01*
X160932000Y-100094000D02*
X163732000Y-100094000D01*
X142969540Y-105144900D02*
X155881100Y-105144900D01*
D21*
G36*
X165874691Y-97602911D02*
X165876233Y-97613942D01*
X165874060Y-97624864D01*
X165874060Y-98190931D01*
X165815763Y-98195994D01*
X165769601Y-98209417D01*
X165722009Y-98216222D01*
X165666122Y-98235889D01*
X165622554Y-98261693D01*
X165576062Y-98281755D01*
X165528002Y-98314898D01*
X165497090Y-98346731D01*
X165461486Y-98373210D01*
X165422206Y-98416664D01*
X165407841Y-98440702D01*
X165388033Y-98460498D01*
X165387353Y-98461514D01*
X165383434Y-98470966D01*
X165376592Y-98478567D01*
X165360640Y-98505386D01*
X165349774Y-98536082D01*
X165332387Y-98563613D01*
X165322021Y-98590584D01*
X165316014Y-98625456D01*
X165302927Y-98658340D01*
X165296649Y-98692376D01*
X165296934Y-98712786D01*
X165291432Y-98732441D01*
X165287747Y-98780463D01*
X165288567Y-98787276D01*
X165286951Y-98793950D01*
X165285327Y-98833329D01*
X165285997Y-98837614D01*
X165285071Y-98841850D01*
X165284396Y-98877562D01*
X165284397Y-98877565D01*
X165283590Y-98920143D01*
X165285712Y-98931982D01*
X165283877Y-98943872D01*
X165286408Y-99002438D01*
X165292227Y-99026263D01*
X165291594Y-99050777D01*
X165299180Y-99094825D01*
X165313223Y-99131368D01*
X165320180Y-99169900D01*
X165333861Y-99204658D01*
X165352575Y-99233770D01*
X165352646Y-99233954D01*
X165352793Y-99234109D01*
X165356715Y-99240210D01*
X165373156Y-99279146D01*
X165393972Y-99309843D01*
X165408624Y-99324296D01*
X165418605Y-99342298D01*
X165426323Y-99351413D01*
X165443395Y-99364989D01*
X165456057Y-99382749D01*
X165504315Y-99428164D01*
X165549821Y-99456612D01*
X165591882Y-99489932D01*
X165643643Y-99516460D01*
X165698565Y-99532090D01*
X165751812Y-99552752D01*
X165815112Y-99563866D01*
X165842875Y-99563240D01*
X165869940Y-99569456D01*
X165900806Y-99570364D01*
X165928737Y-99565657D01*
X165956971Y-99567877D01*
X166038671Y-99558200D01*
X166092725Y-99540632D01*
X166108181Y-99537176D01*
X166109875Y-99538308D01*
X166256060Y-99567386D01*
X166325218Y-99567386D01*
X166332738Y-99565890D01*
X166340313Y-99567088D01*
X166381834Y-99565446D01*
X166420793Y-99556082D01*
X166431090Y-99557235D01*
X166482789Y-99569125D01*
X166549043Y-99571093D01*
X166597169Y-99562997D01*
X166645943Y-99561556D01*
X166708798Y-99547112D01*
X166716448Y-99543675D01*
X166691856Y-99567337D01*
X166690691Y-99569010D01*
X166688987Y-99570127D01*
X166625483Y-99632523D01*
X166623606Y-99635279D01*
X166620847Y-99637156D01*
X166565964Y-99692964D01*
X166563580Y-99696597D01*
X166560042Y-99699122D01*
X166516001Y-99745957D01*
X166512223Y-99752005D01*
X166506573Y-99756359D01*
X166475592Y-99791831D01*
X166466744Y-99807227D01*
X166462523Y-99811148D01*
X166460929Y-99812366D01*
X166460599Y-99812936D01*
X166453731Y-99819314D01*
X166438028Y-99841035D01*
X166416113Y-99888870D01*
X166392833Y-99923887D01*
X166391093Y-99932741D01*
X166386134Y-99941289D01*
X166384627Y-99945698D01*
X166382379Y-99962501D01*
X166375947Y-99976540D01*
X166374433Y-100017528D01*
X166364096Y-100070139D01*
X166366428Y-100081720D01*
X166364861Y-100093430D01*
X166370805Y-100115800D01*
X166370447Y-100125488D01*
X166378979Y-100148446D01*
X166381212Y-100155150D01*
X166393515Y-100216256D01*
X166400506Y-100233023D01*
X166402896Y-100236581D01*
X166403135Y-100237482D01*
X166406156Y-100241436D01*
X166413707Y-100252681D01*
X166421193Y-100275148D01*
X166440513Y-100309050D01*
X166445196Y-100314451D01*
X166447704Y-100321146D01*
X166477207Y-100368752D01*
X166479949Y-100371689D01*
X166481436Y-100375421D01*
X166518982Y-100433298D01*
X166521118Y-100435493D01*
X166522296Y-100438319D01*
X166565741Y-100503033D01*
X166567012Y-100504298D01*
X166567718Y-100505950D01*
X166580073Y-100523992D01*
X166580236Y-100524151D01*
X166580326Y-100524361D01*
X166624985Y-100589413D01*
X166631851Y-100599450D01*
X166623364Y-100622026D01*
X166604136Y-100671306D01*
X166554093Y-100680704D01*
X166454520Y-100698990D01*
X166433148Y-100702887D01*
X166431252Y-100703637D01*
X166429212Y-100703626D01*
X166364735Y-100716083D01*
X166360658Y-100717745D01*
X166356255Y-100717821D01*
X166300046Y-100730008D01*
X166294459Y-100732435D01*
X166288373Y-100732731D01*
X166245397Y-100743471D01*
X166232848Y-100749398D01*
X166219071Y-100751063D01*
X166194298Y-100759180D01*
X166165211Y-100775564D01*
X166136906Y-100783510D01*
X166131339Y-100787887D01*
X166124113Y-100790295D01*
X166120791Y-100792188D01*
X166093145Y-100816157D01*
X166064434Y-100832330D01*
X166047712Y-100853650D01*
X166019744Y-100875643D01*
X166015196Y-100883742D01*
X166008176Y-100889828D01*
X165988531Y-100929103D01*
X165972448Y-100949608D01*
X165971084Y-100954490D01*
X165965059Y-100973014D01*
X165946758Y-101005600D01*
X165941284Y-101022377D01*
X165936797Y-101059901D01*
X165925107Y-101095839D01*
X165920657Y-101133332D01*
X165921484Y-101143891D01*
X165918763Y-101154129D01*
X165915341Y-101207980D01*
X165916040Y-101213211D01*
X165914824Y-101218345D01*
X165912433Y-101284195D01*
X165912985Y-101287612D01*
X165912246Y-101290998D01*
X165910888Y-101364489D01*
X165911379Y-101367223D01*
X165910826Y-101369945D01*
X165910504Y-101446718D01*
X165911012Y-101449330D01*
X165910518Y-101451943D01*
X165911236Y-101527640D01*
X165911855Y-101530603D01*
X165911339Y-101533583D01*
X165913099Y-101603846D01*
X165914008Y-101607885D01*
X165913389Y-101611981D01*
X165916194Y-101672451D01*
X165917904Y-101679356D01*
X165917099Y-101686424D01*
X165920953Y-101732744D01*
X165925829Y-101749742D01*
X165925444Y-101767419D01*
X165930349Y-101795230D01*
X165951373Y-101849287D01*
X165958913Y-101875235D01*
X165965506Y-101900683D01*
X165966809Y-101902410D01*
X165967557Y-101904985D01*
X165970514Y-101910676D01*
X165979717Y-101922162D01*
X165984376Y-101934142D01*
X166014385Y-101965488D01*
X166055259Y-102019679D01*
X166060157Y-102022561D01*
X166063710Y-102026996D01*
X166083891Y-102038090D01*
X166087449Y-102041806D01*
X166097835Y-102046375D01*
X166098782Y-102047418D01*
X166113386Y-102054303D01*
X166124213Y-102060255D01*
X166183717Y-102095270D01*
X166200180Y-102101011D01*
X166217645Y-102103458D01*
X166233598Y-102110979D01*
X166271084Y-102120320D01*
X166276182Y-102120564D01*
X166280857Y-102122620D01*
X166335633Y-102134750D01*
X166338419Y-102134810D01*
X166340983Y-102135894D01*
X166409313Y-102150002D01*
X166411368Y-102150017D01*
X166413269Y-102150797D01*
X166491419Y-102166074D01*
X166492814Y-102166069D01*
X166494107Y-102166589D01*
X166536684Y-102174596D01*
X166536895Y-102174594D01*
X166537090Y-102174672D01*
X166617154Y-102189639D01*
X166623730Y-102190888D01*
X166632549Y-102211544D01*
X166644913Y-102240808D01*
X166620166Y-102277277D01*
X166595027Y-102313884D01*
X166594803Y-102314406D01*
X166594399Y-102314802D01*
X166547571Y-102383417D01*
X166546796Y-102385237D01*
X166545396Y-102386638D01*
X166503804Y-102448934D01*
X166502879Y-102451169D01*
X166501191Y-102452901D01*
X166466865Y-102505724D01*
X166465471Y-102509215D01*
X166462898Y-102511959D01*
X166437866Y-102552160D01*
X166434751Y-102560422D01*
X166429014Y-102567127D01*
X166415306Y-102591554D01*
X166405512Y-102621605D01*
X166389176Y-102648665D01*
X166387197Y-102654142D01*
X166382873Y-102682664D01*
X166371822Y-102709317D01*
X166371816Y-102724999D01*
X166369122Y-102733267D01*
X166371185Y-102759772D01*
X166364858Y-102801507D01*
X166371779Y-102829516D01*
X166371769Y-102858366D01*
X166380499Y-102879463D01*
X166380686Y-102881867D01*
X166385026Y-102890403D01*
X166389492Y-102901197D01*
X166391355Y-102908736D01*
X166392376Y-102916939D01*
X166394158Y-102920076D01*
X166400614Y-102946204D01*
X166417729Y-102969435D01*
X166428759Y-102996090D01*
X166437269Y-103008836D01*
X166454172Y-103025751D01*
X166465981Y-103046545D01*
X166489508Y-103073761D01*
X166494232Y-103077440D01*
X166497348Y-103082552D01*
X166532888Y-103121187D01*
X166535219Y-103122889D01*
X166536759Y-103125334D01*
X166581304Y-103172339D01*
X166582819Y-103173411D01*
X166583824Y-103174973D01*
X166634371Y-103227301D01*
X166635573Y-103228135D01*
X166636376Y-103229362D01*
X166689917Y-103283962D01*
X166691052Y-103284737D01*
X166691811Y-103285879D01*
X166745341Y-103339704D01*
X166746612Y-103340558D01*
X166747470Y-103341828D01*
X166797986Y-103391828D01*
X166799687Y-103392952D01*
X166800846Y-103394629D01*
X166845341Y-103437756D01*
X166848176Y-103439587D01*
X166850142Y-103442329D01*
X166885612Y-103475533D01*
X166892247Y-103479657D01*
X166897055Y-103485822D01*
X166920493Y-103506055D01*
X166931609Y-103512358D01*
X166934994Y-103516500D01*
X166952018Y-103525646D01*
X166969824Y-103542176D01*
X166977665Y-103547004D01*
X167021284Y-103563202D01*
X167050151Y-103579569D01*
X167053060Y-103579929D01*
X167066295Y-103587039D01*
X167092603Y-103589686D01*
X167117391Y-103598891D01*
X167166099Y-103597081D01*
X167214595Y-103601961D01*
X167239914Y-103594339D01*
X167266338Y-103593357D01*
X167310644Y-103573046D01*
X167357317Y-103558995D01*
X167370083Y-103552206D01*
X167380511Y-103543685D01*
X167393103Y-103538916D01*
X167423639Y-103519841D01*
X167426084Y-103517542D01*
X167429202Y-103516299D01*
X167474536Y-103486880D01*
X167475769Y-103485680D01*
X167477363Y-103485028D01*
X167534529Y-103447208D01*
X167535396Y-103446349D01*
X167536520Y-103445881D01*
X167602548Y-103401601D01*
X167603179Y-103400968D01*
X167604004Y-103400620D01*
X167653810Y-103366886D01*
X167654062Y-103366631D01*
X167654390Y-103366492D01*
X167735883Y-103311078D01*
X167755411Y-103319128D01*
X167755413Y-103319128D01*
X167773735Y-103326681D01*
X167792223Y-103424749D01*
X167792223Y-103424751D01*
X167849072Y-103726303D01*
X167863829Y-103762963D01*
X167871538Y-103801719D01*
X167891387Y-103831426D01*
X167904729Y-103864570D01*
X167932390Y-103892790D01*
X167954345Y-103925649D01*
X167984053Y-103945499D01*
X168009062Y-103971014D01*
X168045417Y-103986501D01*
X168078275Y-104008456D01*
X168113316Y-104015426D01*
X168146187Y-104029429D01*
X168185703Y-104029825D01*
X168224460Y-104037534D01*
X168852115Y-104037534D01*
X168890872Y-104029825D01*
X168930388Y-104029429D01*
X168963259Y-104015426D01*
X168998300Y-104008456D01*
X169031158Y-103986501D01*
X169067513Y-103971014D01*
X169092522Y-103945499D01*
X169122230Y-103925649D01*
X169144185Y-103892790D01*
X169171846Y-103864570D01*
X169185188Y-103831426D01*
X169205037Y-103801719D01*
X169212746Y-103762963D01*
X169227503Y-103726303D01*
X169284352Y-103424750D01*
X169284352Y-103424749D01*
X169302840Y-103326681D01*
X169340690Y-103311078D01*
X169422184Y-103366493D01*
X169422666Y-103366697D01*
X169423034Y-103367069D01*
X169493508Y-103414714D01*
X169494534Y-103415146D01*
X169495321Y-103415932D01*
X169559026Y-103458472D01*
X169560275Y-103458989D01*
X169561238Y-103459938D01*
X169615201Y-103495433D01*
X169617124Y-103496213D01*
X169618617Y-103497654D01*
X169659864Y-103524159D01*
X169664190Y-103525861D01*
X169667612Y-103529008D01*
X169693174Y-103544582D01*
X169710890Y-103551066D01*
X169725959Y-103562423D01*
X169732921Y-103565781D01*
X169782274Y-103578547D01*
X169829637Y-103597391D01*
X169853811Y-103597052D01*
X169877220Y-103603107D01*
X169927703Y-103596014D01*
X169978671Y-103595299D01*
X170000876Y-103585734D01*
X170024820Y-103582370D01*
X170068745Y-103556499D01*
X170115560Y-103536333D01*
X170128100Y-103527697D01*
X170142110Y-103513288D01*
X170153248Y-103506728D01*
X170154868Y-103504578D01*
X170165575Y-103498283D01*
X170192370Y-103474405D01*
X170195972Y-103469633D01*
X170201028Y-103466447D01*
X170239078Y-103430380D01*
X170240742Y-103428028D01*
X170243155Y-103426457D01*
X170289454Y-103381249D01*
X170290501Y-103379722D01*
X170292044Y-103378696D01*
X170343588Y-103327399D01*
X170344401Y-103326188D01*
X170345611Y-103325371D01*
X170399396Y-103271034D01*
X170400149Y-103269895D01*
X170401277Y-103269121D01*
X170454303Y-103214793D01*
X170455135Y-103213515D01*
X170456388Y-103212641D01*
X170505647Y-103161375D01*
X170506740Y-103159666D01*
X170508391Y-103158489D01*
X170550883Y-103113333D01*
X170552660Y-103110491D01*
X170555355Y-103108498D01*
X170588075Y-103072503D01*
X170592070Y-103065860D01*
X170598116Y-103061004D01*
X170618059Y-103037220D01*
X170632662Y-103010582D01*
X170653059Y-102988065D01*
X170657827Y-102980105D01*
X170670195Y-102945509D01*
X170689220Y-102914081D01*
X170695038Y-102876014D01*
X170708000Y-102839755D01*
X170706187Y-102803063D01*
X170711738Y-102766743D01*
X170702545Y-102729348D01*
X170700645Y-102690887D01*
X170684927Y-102657678D01*
X170676157Y-102622003D01*
X170669295Y-102607328D01*
X170657661Y-102591496D01*
X170651055Y-102572991D01*
X170631818Y-102540842D01*
X170628207Y-102536852D01*
X170626258Y-102531835D01*
X170596668Y-102485357D01*
X170594681Y-102483280D01*
X170593602Y-102480620D01*
X170555682Y-102422956D01*
X170554212Y-102421464D01*
X170553403Y-102419530D01*
X170509175Y-102353826D01*
X170508162Y-102352820D01*
X170507602Y-102351508D01*
X170481974Y-102314032D01*
X170436239Y-102247033D01*
X170431799Y-102240428D01*
X170440220Y-102220494D01*
X170452849Y-102190905D01*
X170495215Y-102182920D01*
X170539254Y-102174715D01*
X170539967Y-102174430D01*
X170540737Y-102174436D01*
X170622467Y-102158875D01*
X170624239Y-102158158D01*
X170626150Y-102158155D01*
X170699973Y-102143347D01*
X170702109Y-102142458D01*
X170704424Y-102142427D01*
X170766602Y-102129183D01*
X170769877Y-102127774D01*
X170773436Y-102127661D01*
X170820238Y-102116792D01*
X170827753Y-102113395D01*
X170835978Y-102112782D01*
X170863664Y-102105098D01*
X170888082Y-102092784D01*
X170914797Y-102086907D01*
X170920362Y-102084468D01*
X170928848Y-102078546D01*
X170938823Y-102075786D01*
X170969930Y-102051510D01*
X170996749Y-102037986D01*
X171011476Y-102020887D01*
X171042593Y-101999174D01*
X171048169Y-101990453D01*
X171056326Y-101984087D01*
X171081599Y-101939475D01*
X171094021Y-101925053D01*
X171097534Y-101914391D01*
X171105885Y-101904607D01*
X171108805Y-101895610D01*
X171122879Y-101873596D01*
X171124693Y-101863405D01*
X171129793Y-101854402D01*
X171135245Y-101837900D01*
X171139973Y-101799571D01*
X171151894Y-101762837D01*
X171156292Y-101725566D01*
X171155450Y-101714911D01*
X171158183Y-101704579D01*
X171161531Y-101650899D01*
X171160823Y-101645648D01*
X171162038Y-101640490D01*
X171164340Y-101574758D01*
X171163782Y-101571328D01*
X171164518Y-101567932D01*
X171165776Y-101494507D01*
X171165279Y-101491766D01*
X171165830Y-101489038D01*
X171166046Y-101412279D01*
X171165536Y-101409675D01*
X171166026Y-101407063D01*
X171165205Y-101331327D01*
X171164583Y-101328369D01*
X171165094Y-101325394D01*
X171163238Y-101255040D01*
X171162326Y-101251013D01*
X171162938Y-101246928D01*
X171160049Y-101186314D01*
X171158344Y-101179463D01*
X171159135Y-101172447D01*
X171155218Y-101125930D01*
X171150389Y-101109158D01*
X171150772Y-101091710D01*
X171145829Y-101063651D01*
X171125733Y-101011950D01*
X171117121Y-100972099D01*
X171112679Y-100965683D01*
X171110249Y-100957016D01*
X171107284Y-100951175D01*
X171097047Y-100938149D01*
X171091830Y-100924727D01*
X171064695Y-100896372D01*
X171032281Y-100849552D01*
X171022429Y-100843202D01*
X171015186Y-100833985D01*
X170993127Y-100821587D01*
X170988778Y-100817043D01*
X170979859Y-100813117D01*
X170965481Y-100806050D01*
X170960100Y-100803025D01*
X170907003Y-100768800D01*
X170889280Y-100761798D01*
X170885532Y-100761117D01*
X170885252Y-100760959D01*
X170883530Y-100760753D01*
X170867336Y-100757808D01*
X170847323Y-100747971D01*
X170809770Y-100737961D01*
X170802351Y-100737484D01*
X170795561Y-100734464D01*
X170743144Y-100722622D01*
X170738437Y-100722500D01*
X170734086Y-100720690D01*
X170671774Y-100708192D01*
X170669017Y-100708188D01*
X170666458Y-100707165D01*
X170644706Y-100703122D01*
X170644199Y-100703128D01*
X170643726Y-100702941D01*
X170539345Y-100683822D01*
X170472475Y-100671334D01*
X170455622Y-100628305D01*
X170444727Y-100599441D01*
X170483605Y-100542756D01*
X170483607Y-100542754D01*
X170496133Y-100524528D01*
X170496725Y-100523151D01*
X170497792Y-100522095D01*
X170542457Y-100456023D01*
X170543715Y-100453032D01*
X170545983Y-100450712D01*
X170585287Y-100390426D01*
X170586771Y-100386725D01*
X170589500Y-100383817D01*
X170621300Y-100332782D01*
X170623566Y-100326778D01*
X170627797Y-100321959D01*
X170649954Y-100283634D01*
X170655321Y-100267855D01*
X170665198Y-100254429D01*
X170675570Y-100232278D01*
X170685582Y-100191642D01*
X170701329Y-100157718D01*
X170701713Y-100148549D01*
X170705277Y-100139595D01*
X170705779Y-100136874D01*
X170705421Y-100111119D01*
X170711226Y-100087557D01*
X170705771Y-100051737D01*
X170707571Y-100008799D01*
X170703856Y-99998648D01*
X170703706Y-99987839D01*
X170691846Y-99960297D01*
X170688787Y-99940207D01*
X170672787Y-99913746D01*
X170656350Y-99868828D01*
X170647636Y-99854524D01*
X170645124Y-99851792D01*
X170644758Y-99850942D01*
X170640824Y-99847116D01*
X170627188Y-99832286D01*
X170612494Y-99805896D01*
X170588414Y-99777560D01*
X170582070Y-99772534D01*
X170577842Y-99765633D01*
X170541493Y-99726309D01*
X170538268Y-99723966D01*
X170536114Y-99720607D01*
X170490590Y-99673342D01*
X170488456Y-99671857D01*
X170487024Y-99669689D01*
X170435423Y-99617527D01*
X170433702Y-99616364D01*
X170432538Y-99614641D01*
X170381987Y-99564621D01*
X170384286Y-99564300D01*
X170412917Y-99554330D01*
X170443083Y-99551298D01*
X170475889Y-99541274D01*
X170508631Y-99547069D01*
X170555753Y-99562097D01*
X170630363Y-99570517D01*
X170678611Y-99566456D01*
X170726962Y-99569125D01*
X170802987Y-99558318D01*
X170849908Y-99541849D01*
X170898589Y-99531709D01*
X170923685Y-99521048D01*
X170966979Y-99542248D01*
X171035338Y-99560361D01*
X171093382Y-99564003D01*
X171150892Y-99572693D01*
X171227611Y-99569132D01*
X171263321Y-99560290D01*
X171300076Y-99558746D01*
X171332274Y-99550924D01*
X171366357Y-99535100D01*
X171402878Y-99526237D01*
X171464607Y-99497595D01*
X171504323Y-99468589D01*
X171547580Y-99445200D01*
X171600365Y-99401454D01*
X171632897Y-99361423D01*
X171670072Y-99325657D01*
X171706603Y-99273207D01*
X171722359Y-99237155D01*
X171744555Y-99204658D01*
X171749574Y-99192882D01*
X171756783Y-99158474D01*
X171770986Y-99126321D01*
X171777871Y-99095474D01*
X171778384Y-99073431D01*
X171784932Y-99052379D01*
X171789751Y-99006748D01*
X171788525Y-98993328D01*
X171791622Y-98980212D01*
X171793263Y-98934091D01*
X171792158Y-98927279D01*
X171793505Y-98920508D01*
X171793505Y-98833307D01*
X171778942Y-98760092D01*
X171791751Y-98720470D01*
X171789357Y-98690615D01*
X171794035Y-98661031D01*
X171783456Y-98617017D01*
X171779838Y-98571897D01*
X171766201Y-98545230D01*
X171759202Y-98516110D01*
X171732589Y-98479500D01*
X171711977Y-98439193D01*
X171689171Y-98419773D01*
X171671562Y-98395549D01*
X171628325Y-98355602D01*
X171601021Y-98338880D01*
X171578156Y-98316465D01*
X171520434Y-98278721D01*
X171472843Y-98259560D01*
X171427988Y-98234672D01*
X171357000Y-98211915D01*
X171313864Y-98206981D01*
X171272134Y-98195002D01*
X171195777Y-98188634D01*
X171150834Y-98193741D01*
X171115180Y-98192211D01*
X171123182Y-98169121D01*
X171129381Y-98124238D01*
X171142463Y-98080860D01*
X171150329Y-97999643D01*
X171148588Y-97982259D01*
X171152101Y-97965145D01*
X171152141Y-97958579D01*
X171151956Y-97957618D01*
X171152148Y-97956657D01*
X171152218Y-97890642D01*
X171152178Y-97890439D01*
X171152218Y-97890237D01*
X171137717Y-97817334D01*
X171129325Y-97774911D01*
X171133044Y-97762689D01*
X171131348Y-97745319D01*
X171134901Y-97728233D01*
X171124157Y-97671664D01*
X171123936Y-97669397D01*
X171124030Y-97668424D01*
X171123752Y-97667512D01*
X171118561Y-97614345D01*
X171114674Y-97607058D01*
X171114622Y-97606406D01*
X171110070Y-97597492D01*
X171107128Y-97582000D01*
X186730054Y-97582000D01*
X186341332Y-97970044D01*
X186005393Y-98779075D01*
X186004628Y-99655081D01*
X186339155Y-100464698D01*
X186958044Y-101084668D01*
X187767075Y-101420607D01*
X188643081Y-101421372D01*
X189452698Y-101086845D01*
X190072668Y-100467956D01*
X190408607Y-99658925D01*
X190409372Y-98782919D01*
X190074845Y-97973302D01*
X189684225Y-97582000D01*
X195326000Y-97582000D01*
X195326000Y-112522000D01*
X189887721Y-112522000D01*
X190072668Y-112337376D01*
X190408607Y-111528345D01*
X190409372Y-110652339D01*
X190074845Y-109842722D01*
X189455956Y-109222752D01*
X188646925Y-108886813D01*
X187770919Y-108886048D01*
X186961302Y-109220575D01*
X186341332Y-109839464D01*
X186005393Y-110648495D01*
X186004628Y-111524501D01*
X186339155Y-112334118D01*
X186526709Y-112522000D01*
X137922000Y-112522000D01*
X137922000Y-108644900D01*
X139094971Y-108644900D01*
X139182662Y-109085751D01*
X139432384Y-109459487D01*
X139806120Y-109709209D01*
X140246971Y-109796900D01*
X140292109Y-109796900D01*
X140732960Y-109709209D01*
X141106696Y-109459487D01*
X141356418Y-109085751D01*
X141444109Y-108644900D01*
X141356418Y-108204049D01*
X141106696Y-107830313D01*
X140732960Y-107580591D01*
X140292109Y-107492900D01*
X140246971Y-107492900D01*
X139806120Y-107580591D01*
X139432384Y-107830313D01*
X139182662Y-108204049D01*
X139094971Y-108644900D01*
X137922000Y-108644900D01*
X137922000Y-106703650D01*
X141659540Y-106703650D01*
X141659540Y-106771210D01*
X141756213Y-107004599D01*
X141934842Y-107183227D01*
X142045754Y-107229168D01*
X142024183Y-107261451D01*
X141947910Y-107644900D01*
X142024183Y-108028349D01*
X142241389Y-108353421D01*
X142566461Y-108570627D01*
X142949910Y-108646900D01*
X142989170Y-108646900D01*
X143372619Y-108570627D01*
X143697691Y-108353421D01*
X143914897Y-108028349D01*
X143991170Y-107644900D01*
X143914897Y-107261451D01*
X143893326Y-107229168D01*
X144004238Y-107183227D01*
X144182867Y-107004599D01*
X144279540Y-106771210D01*
X144279540Y-106703650D01*
X144120790Y-106544900D01*
X143096540Y-106544900D01*
X143096540Y-106591900D01*
X142842540Y-106591900D01*
X142842540Y-106544900D01*
X141818290Y-106544900D01*
X141659540Y-106703650D01*
X137922000Y-106703650D01*
X137922000Y-106118590D01*
X141659540Y-106118590D01*
X141659540Y-106186150D01*
X141818290Y-106344900D01*
X142138991Y-106344900D01*
X142144993Y-106349001D01*
X142294540Y-106379285D01*
X143644540Y-106379285D01*
X143784248Y-106352997D01*
X143796831Y-106344900D01*
X144120790Y-106344900D01*
X144192190Y-106273500D01*
X155734008Y-106273500D01*
X155917161Y-106237069D01*
X156072429Y-106133321D01*
X160912100Y-101293650D01*
X160911975Y-101436569D01*
X161021342Y-101701258D01*
X161223677Y-101903946D01*
X161488175Y-102013775D01*
X161711048Y-102013970D01*
X165611539Y-105914461D01*
X165758568Y-106012702D01*
X165932000Y-106047200D01*
X174217204Y-106047200D01*
X174373677Y-106203946D01*
X174638175Y-106313775D01*
X174924569Y-106314025D01*
X175189258Y-106204658D01*
X175346991Y-106047200D01*
X178803118Y-106047200D01*
X178679118Y-106098436D01*
X178361650Y-106415349D01*
X178189627Y-106829629D01*
X178189235Y-107278203D01*
X178360536Y-107692782D01*
X178677449Y-108010250D01*
X179044180Y-108162529D01*
X174010276Y-108162529D01*
X174010271Y-108162528D01*
X173836839Y-108197027D01*
X173689810Y-108295268D01*
X173560910Y-108424168D01*
X173339431Y-108423975D01*
X173074742Y-108533342D01*
X172872054Y-108735677D01*
X172762225Y-109000175D01*
X172761975Y-109286569D01*
X172871342Y-109551258D01*
X173073677Y-109753946D01*
X173338175Y-109863775D01*
X173624569Y-109864025D01*
X173889258Y-109754658D01*
X174091946Y-109552323D01*
X174201775Y-109287825D01*
X174201966Y-109068929D01*
X178314488Y-109068929D01*
X178189627Y-109369629D01*
X178189235Y-109818203D01*
X178360536Y-110232782D01*
X178677449Y-110550250D01*
X179091729Y-110722273D01*
X179540303Y-110722665D01*
X179954882Y-110551364D01*
X180272350Y-110234451D01*
X180444373Y-109820171D01*
X180444765Y-109371597D01*
X180302201Y-109026566D01*
X180437458Y-108936190D01*
X180757365Y-108616283D01*
X180900536Y-108962782D01*
X181217449Y-109280250D01*
X181631729Y-109452273D01*
X182080303Y-109452665D01*
X182494882Y-109281364D01*
X182812350Y-108964451D01*
X182984373Y-108550171D01*
X182984765Y-108101597D01*
X182813464Y-107687018D01*
X182496551Y-107369550D01*
X182148585Y-107225063D01*
X182150277Y-107223371D01*
X189605829Y-107223371D01*
X189779261Y-107188873D01*
X189926290Y-107090632D01*
X193903090Y-103113832D01*
X194124569Y-103114025D01*
X194389258Y-103004658D01*
X194591946Y-102802323D01*
X194701775Y-102537825D01*
X194702025Y-102251431D01*
X194592658Y-101986742D01*
X194390323Y-101784054D01*
X194125825Y-101674225D01*
X193839431Y-101673975D01*
X193574742Y-101783342D01*
X193509488Y-101848483D01*
X193442658Y-101686742D01*
X193240323Y-101484054D01*
X192975825Y-101374225D01*
X192689431Y-101373975D01*
X192424742Y-101483342D01*
X192267009Y-101640800D01*
X182937221Y-101640800D01*
X182961671Y-101605017D01*
X182991955Y-101455470D01*
X182991955Y-99954330D01*
X182965667Y-99814622D01*
X182883100Y-99686310D01*
X182757117Y-99600229D01*
X182607570Y-99569945D01*
X181106430Y-99569945D01*
X180966722Y-99596233D01*
X180838410Y-99678800D01*
X180752329Y-99804783D01*
X180722045Y-99954330D01*
X180722045Y-101455470D01*
X180748333Y-101595178D01*
X180777690Y-101640800D01*
X180660174Y-101640800D01*
X180486742Y-101675298D01*
X180429141Y-101713785D01*
X180273464Y-101337018D01*
X179956551Y-101019550D01*
X179542271Y-100847527D01*
X179093697Y-100847135D01*
X178679118Y-101018436D01*
X178361650Y-101335349D01*
X178217427Y-101682679D01*
X177508287Y-100973539D01*
X177361258Y-100875298D01*
X177187826Y-100840800D01*
X173946796Y-100840800D01*
X173790323Y-100684054D01*
X173525825Y-100574225D01*
X173239431Y-100573975D01*
X172974742Y-100683342D01*
X172772054Y-100885677D01*
X172662225Y-101150175D01*
X172661975Y-101436569D01*
X172771342Y-101701258D01*
X172973677Y-101903946D01*
X173238175Y-102013775D01*
X173524569Y-102014025D01*
X173789258Y-101904658D01*
X173946991Y-101747200D01*
X177000104Y-101747200D01*
X178533536Y-103280632D01*
X178680565Y-103378873D01*
X178853997Y-103413372D01*
X178854002Y-103413371D01*
X179030201Y-103413371D01*
X178679118Y-103558436D01*
X178361650Y-103875349D01*
X178189627Y-104289629D01*
X178189235Y-104738203D01*
X178355585Y-105140800D01*
X175346796Y-105140800D01*
X175190323Y-104984054D01*
X174925825Y-104874225D01*
X174639431Y-104873975D01*
X174374742Y-104983342D01*
X174217009Y-105140800D01*
X166119722Y-105140800D01*
X162351832Y-101372910D01*
X162352025Y-101151431D01*
X162259793Y-100928211D01*
X162589369Y-100928211D01*
X162912137Y-101250979D01*
X162911975Y-101436569D01*
X163021342Y-101701258D01*
X163223677Y-101903946D01*
X163488175Y-102013775D01*
X163774569Y-102014025D01*
X164039258Y-101904658D01*
X164241946Y-101702323D01*
X164351775Y-101437825D01*
X164352025Y-101151431D01*
X164242658Y-100886742D01*
X164083776Y-100727583D01*
X164139258Y-100704658D01*
X164341946Y-100502323D01*
X164451775Y-100237825D01*
X164452025Y-99951431D01*
X164342658Y-99686742D01*
X164140323Y-99484054D01*
X163875825Y-99374225D01*
X163589431Y-99373975D01*
X163324742Y-99483342D01*
X163192454Y-99615400D01*
X160932000Y-99615400D01*
X160784085Y-99644822D01*
X160748847Y-99651831D01*
X160593578Y-99755579D01*
X155682858Y-104666300D01*
X144028925Y-104666300D01*
X144028925Y-104294900D01*
X144004541Y-104165311D01*
X144028925Y-104044900D01*
X144028925Y-103644900D01*
X144002637Y-103505192D01*
X143920070Y-103376880D01*
X143794087Y-103290799D01*
X143746035Y-103281068D01*
X143914897Y-103028349D01*
X143991170Y-102644900D01*
X143914897Y-102261451D01*
X143697691Y-101936379D01*
X143372619Y-101719173D01*
X142989170Y-101642900D01*
X142949910Y-101642900D01*
X142566461Y-101719173D01*
X142241389Y-101936379D01*
X142024183Y-102261451D01*
X141947910Y-102644900D01*
X142024183Y-103028349D01*
X142192181Y-103279775D01*
X142154832Y-103286803D01*
X142026520Y-103369370D01*
X141940439Y-103495353D01*
X141910155Y-103644900D01*
X141910155Y-104044900D01*
X141934539Y-104174489D01*
X141910155Y-104294900D01*
X141910155Y-104694900D01*
X141934539Y-104824489D01*
X141910155Y-104944900D01*
X141910155Y-105344900D01*
X141934539Y-105474489D01*
X141910155Y-105594900D01*
X141910155Y-105731260D01*
X141756213Y-105885201D01*
X141659540Y-106118590D01*
X137922000Y-106118590D01*
X137922000Y-101644900D01*
X139094971Y-101644900D01*
X139182662Y-102085751D01*
X139432384Y-102459487D01*
X139806120Y-102709209D01*
X140246971Y-102796900D01*
X140292109Y-102796900D01*
X140732960Y-102709209D01*
X141106696Y-102459487D01*
X141356418Y-102085751D01*
X141444109Y-101644900D01*
X141356418Y-101204049D01*
X141106696Y-100830313D01*
X140732960Y-100580591D01*
X140292109Y-100492900D01*
X140246971Y-100492900D01*
X139806120Y-100580591D01*
X139432384Y-100830313D01*
X139182662Y-101204049D01*
X139094971Y-101644900D01*
X137922000Y-101644900D01*
X137922000Y-97582000D01*
X165880116Y-97582000D01*
X165874691Y-97602911D01*
X165874691Y-97602911D01*
G37*
X165874691Y-97602911D02*
X165876233Y-97613942D01*
X165874060Y-97624864D01*
X165874060Y-98190931D01*
X165815763Y-98195994D01*
X165769601Y-98209417D01*
X165722009Y-98216222D01*
X165666122Y-98235889D01*
X165622554Y-98261693D01*
X165576062Y-98281755D01*
X165528002Y-98314898D01*
X165497090Y-98346731D01*
X165461486Y-98373210D01*
X165422206Y-98416664D01*
X165407841Y-98440702D01*
X165388033Y-98460498D01*
X165387353Y-98461514D01*
X165383434Y-98470966D01*
X165376592Y-98478567D01*
X165360640Y-98505386D01*
X165349774Y-98536082D01*
X165332387Y-98563613D01*
X165322021Y-98590584D01*
X165316014Y-98625456D01*
X165302927Y-98658340D01*
X165296649Y-98692376D01*
X165296934Y-98712786D01*
X165291432Y-98732441D01*
X165287747Y-98780463D01*
X165288567Y-98787276D01*
X165286951Y-98793950D01*
X165285327Y-98833329D01*
X165285997Y-98837614D01*
X165285071Y-98841850D01*
X165284396Y-98877562D01*
X165284397Y-98877565D01*
X165283590Y-98920143D01*
X165285712Y-98931982D01*
X165283877Y-98943872D01*
X165286408Y-99002438D01*
X165292227Y-99026263D01*
X165291594Y-99050777D01*
X165299180Y-99094825D01*
X165313223Y-99131368D01*
X165320180Y-99169900D01*
X165333861Y-99204658D01*
X165352575Y-99233770D01*
X165352646Y-99233954D01*
X165352793Y-99234109D01*
X165356715Y-99240210D01*
X165373156Y-99279146D01*
X165393972Y-99309843D01*
X165408624Y-99324296D01*
X165418605Y-99342298D01*
X165426323Y-99351413D01*
X165443395Y-99364989D01*
X165456057Y-99382749D01*
X165504315Y-99428164D01*
X165549821Y-99456612D01*
X165591882Y-99489932D01*
X165643643Y-99516460D01*
X165698565Y-99532090D01*
X165751812Y-99552752D01*
X165815112Y-99563866D01*
X165842875Y-99563240D01*
X165869940Y-99569456D01*
X165900806Y-99570364D01*
X165928737Y-99565657D01*
X165956971Y-99567877D01*
X166038671Y-99558200D01*
X166092725Y-99540632D01*
X166108181Y-99537176D01*
X166109875Y-99538308D01*
X166256060Y-99567386D01*
X166325218Y-99567386D01*
X166332738Y-99565890D01*
X166340313Y-99567088D01*
X166381834Y-99565446D01*
X166420793Y-99556082D01*
X166431090Y-99557235D01*
X166482789Y-99569125D01*
X166549043Y-99571093D01*
X166597169Y-99562997D01*
X166645943Y-99561556D01*
X166708798Y-99547112D01*
X166716448Y-99543675D01*
X166691856Y-99567337D01*
X166690691Y-99569010D01*
X166688987Y-99570127D01*
X166625483Y-99632523D01*
X166623606Y-99635279D01*
X166620847Y-99637156D01*
X166565964Y-99692964D01*
X166563580Y-99696597D01*
X166560042Y-99699122D01*
X166516001Y-99745957D01*
X166512223Y-99752005D01*
X166506573Y-99756359D01*
X166475592Y-99791831D01*
X166466744Y-99807227D01*
X166462523Y-99811148D01*
X166460929Y-99812366D01*
X166460599Y-99812936D01*
X166453731Y-99819314D01*
X166438028Y-99841035D01*
X166416113Y-99888870D01*
X166392833Y-99923887D01*
X166391093Y-99932741D01*
X166386134Y-99941289D01*
X166384627Y-99945698D01*
X166382379Y-99962501D01*
X166375947Y-99976540D01*
X166374433Y-100017528D01*
X166364096Y-100070139D01*
X166366428Y-100081720D01*
X166364861Y-100093430D01*
X166370805Y-100115800D01*
X166370447Y-100125488D01*
X166378979Y-100148446D01*
X166381212Y-100155150D01*
X166393515Y-100216256D01*
X166400506Y-100233023D01*
X166402896Y-100236581D01*
X166403135Y-100237482D01*
X166406156Y-100241436D01*
X166413707Y-100252681D01*
X166421193Y-100275148D01*
X166440513Y-100309050D01*
X166445196Y-100314451D01*
X166447704Y-100321146D01*
X166477207Y-100368752D01*
X166479949Y-100371689D01*
X166481436Y-100375421D01*
X166518982Y-100433298D01*
X166521118Y-100435493D01*
X166522296Y-100438319D01*
X166565741Y-100503033D01*
X166567012Y-100504298D01*
X166567718Y-100505950D01*
X166580073Y-100523992D01*
X166580236Y-100524151D01*
X166580326Y-100524361D01*
X166624985Y-100589413D01*
X166631851Y-100599450D01*
X166623364Y-100622026D01*
X166604136Y-100671306D01*
X166554093Y-100680704D01*
X166454520Y-100698990D01*
X166433148Y-100702887D01*
X166431252Y-100703637D01*
X166429212Y-100703626D01*
X166364735Y-100716083D01*
X166360658Y-100717745D01*
X166356255Y-100717821D01*
X166300046Y-100730008D01*
X166294459Y-100732435D01*
X166288373Y-100732731D01*
X166245397Y-100743471D01*
X166232848Y-100749398D01*
X166219071Y-100751063D01*
X166194298Y-100759180D01*
X166165211Y-100775564D01*
X166136906Y-100783510D01*
X166131339Y-100787887D01*
X166124113Y-100790295D01*
X166120791Y-100792188D01*
X166093145Y-100816157D01*
X166064434Y-100832330D01*
X166047712Y-100853650D01*
X166019744Y-100875643D01*
X166015196Y-100883742D01*
X166008176Y-100889828D01*
X165988531Y-100929103D01*
X165972448Y-100949608D01*
X165971084Y-100954490D01*
X165965059Y-100973014D01*
X165946758Y-101005600D01*
X165941284Y-101022377D01*
X165936797Y-101059901D01*
X165925107Y-101095839D01*
X165920657Y-101133332D01*
X165921484Y-101143891D01*
X165918763Y-101154129D01*
X165915341Y-101207980D01*
X165916040Y-101213211D01*
X165914824Y-101218345D01*
X165912433Y-101284195D01*
X165912985Y-101287612D01*
X165912246Y-101290998D01*
X165910888Y-101364489D01*
X165911379Y-101367223D01*
X165910826Y-101369945D01*
X165910504Y-101446718D01*
X165911012Y-101449330D01*
X165910518Y-101451943D01*
X165911236Y-101527640D01*
X165911855Y-101530603D01*
X165911339Y-101533583D01*
X165913099Y-101603846D01*
X165914008Y-101607885D01*
X165913389Y-101611981D01*
X165916194Y-101672451D01*
X165917904Y-101679356D01*
X165917099Y-101686424D01*
X165920953Y-101732744D01*
X165925829Y-101749742D01*
X165925444Y-101767419D01*
X165930349Y-101795230D01*
X165951373Y-101849287D01*
X165958913Y-101875235D01*
X165965506Y-101900683D01*
X165966809Y-101902410D01*
X165967557Y-101904985D01*
X165970514Y-101910676D01*
X165979717Y-101922162D01*
X165984376Y-101934142D01*
X166014385Y-101965488D01*
X166055259Y-102019679D01*
X166060157Y-102022561D01*
X166063710Y-102026996D01*
X166083891Y-102038090D01*
X166087449Y-102041806D01*
X166097835Y-102046375D01*
X166098782Y-102047418D01*
X166113386Y-102054303D01*
X166124213Y-102060255D01*
X166183717Y-102095270D01*
X166200180Y-102101011D01*
X166217645Y-102103458D01*
X166233598Y-102110979D01*
X166271084Y-102120320D01*
X166276182Y-102120564D01*
X166280857Y-102122620D01*
X166335633Y-102134750D01*
X166338419Y-102134810D01*
X166340983Y-102135894D01*
X166409313Y-102150002D01*
X166411368Y-102150017D01*
X166413269Y-102150797D01*
X166491419Y-102166074D01*
X166492814Y-102166069D01*
X166494107Y-102166589D01*
X166536684Y-102174596D01*
X166536895Y-102174594D01*
X166537090Y-102174672D01*
X166617154Y-102189639D01*
X166623730Y-102190888D01*
X166632549Y-102211544D01*
X166644913Y-102240808D01*
X166620166Y-102277277D01*
X166595027Y-102313884D01*
X166594803Y-102314406D01*
X166594399Y-102314802D01*
X166547571Y-102383417D01*
X166546796Y-102385237D01*
X166545396Y-102386638D01*
X166503804Y-102448934D01*
X166502879Y-102451169D01*
X166501191Y-102452901D01*
X166466865Y-102505724D01*
X166465471Y-102509215D01*
X166462898Y-102511959D01*
X166437866Y-102552160D01*
X166434751Y-102560422D01*
X166429014Y-102567127D01*
X166415306Y-102591554D01*
X166405512Y-102621605D01*
X166389176Y-102648665D01*
X166387197Y-102654142D01*
X166382873Y-102682664D01*
X166371822Y-102709317D01*
X166371816Y-102724999D01*
X166369122Y-102733267D01*
X166371185Y-102759772D01*
X166364858Y-102801507D01*
X166371779Y-102829516D01*
X166371769Y-102858366D01*
X166380499Y-102879463D01*
X166380686Y-102881867D01*
X166385026Y-102890403D01*
X166389492Y-102901197D01*
X166391355Y-102908736D01*
X166392376Y-102916939D01*
X166394158Y-102920076D01*
X166400614Y-102946204D01*
X166417729Y-102969435D01*
X166428759Y-102996090D01*
X166437269Y-103008836D01*
X166454172Y-103025751D01*
X166465981Y-103046545D01*
X166489508Y-103073761D01*
X166494232Y-103077440D01*
X166497348Y-103082552D01*
X166532888Y-103121187D01*
X166535219Y-103122889D01*
X166536759Y-103125334D01*
X166581304Y-103172339D01*
X166582819Y-103173411D01*
X166583824Y-103174973D01*
X166634371Y-103227301D01*
X166635573Y-103228135D01*
X166636376Y-103229362D01*
X166689917Y-103283962D01*
X166691052Y-103284737D01*
X166691811Y-103285879D01*
X166745341Y-103339704D01*
X166746612Y-103340558D01*
X166747470Y-103341828D01*
X166797986Y-103391828D01*
X166799687Y-103392952D01*
X166800846Y-103394629D01*
X166845341Y-103437756D01*
X166848176Y-103439587D01*
X166850142Y-103442329D01*
X166885612Y-103475533D01*
X166892247Y-103479657D01*
X166897055Y-103485822D01*
X166920493Y-103506055D01*
X166931609Y-103512358D01*
X166934994Y-103516500D01*
X166952018Y-103525646D01*
X166969824Y-103542176D01*
X166977665Y-103547004D01*
X167021284Y-103563202D01*
X167050151Y-103579569D01*
X167053060Y-103579929D01*
X167066295Y-103587039D01*
X167092603Y-103589686D01*
X167117391Y-103598891D01*
X167166099Y-103597081D01*
X167214595Y-103601961D01*
X167239914Y-103594339D01*
X167266338Y-103593357D01*
X167310644Y-103573046D01*
X167357317Y-103558995D01*
X167370083Y-103552206D01*
X167380511Y-103543685D01*
X167393103Y-103538916D01*
X167423639Y-103519841D01*
X167426084Y-103517542D01*
X167429202Y-103516299D01*
X167474536Y-103486880D01*
X167475769Y-103485680D01*
X167477363Y-103485028D01*
X167534529Y-103447208D01*
X167535396Y-103446349D01*
X167536520Y-103445881D01*
X167602548Y-103401601D01*
X167603179Y-103400968D01*
X167604004Y-103400620D01*
X167653810Y-103366886D01*
X167654062Y-103366631D01*
X167654390Y-103366492D01*
X167735883Y-103311078D01*
X167755411Y-103319128D01*
X167755413Y-103319128D01*
X167773735Y-103326681D01*
X167792223Y-103424749D01*
X167792223Y-103424751D01*
X167849072Y-103726303D01*
X167863829Y-103762963D01*
X167871538Y-103801719D01*
X167891387Y-103831426D01*
X167904729Y-103864570D01*
X167932390Y-103892790D01*
X167954345Y-103925649D01*
X167984053Y-103945499D01*
X168009062Y-103971014D01*
X168045417Y-103986501D01*
X168078275Y-104008456D01*
X168113316Y-104015426D01*
X168146187Y-104029429D01*
X168185703Y-104029825D01*
X168224460Y-104037534D01*
X168852115Y-104037534D01*
X168890872Y-104029825D01*
X168930388Y-104029429D01*
X168963259Y-104015426D01*
X168998300Y-104008456D01*
X169031158Y-103986501D01*
X169067513Y-103971014D01*
X169092522Y-103945499D01*
X169122230Y-103925649D01*
X169144185Y-103892790D01*
X169171846Y-103864570D01*
X169185188Y-103831426D01*
X169205037Y-103801719D01*
X169212746Y-103762963D01*
X169227503Y-103726303D01*
X169284352Y-103424750D01*
X169284352Y-103424749D01*
X169302840Y-103326681D01*
X169340690Y-103311078D01*
X169422184Y-103366493D01*
X169422666Y-103366697D01*
X169423034Y-103367069D01*
X169493508Y-103414714D01*
X169494534Y-103415146D01*
X169495321Y-103415932D01*
X169559026Y-103458472D01*
X169560275Y-103458989D01*
X169561238Y-103459938D01*
X169615201Y-103495433D01*
X169617124Y-103496213D01*
X169618617Y-103497654D01*
X169659864Y-103524159D01*
X169664190Y-103525861D01*
X169667612Y-103529008D01*
X169693174Y-103544582D01*
X169710890Y-103551066D01*
X169725959Y-103562423D01*
X169732921Y-103565781D01*
X169782274Y-103578547D01*
X169829637Y-103597391D01*
X169853811Y-103597052D01*
X169877220Y-103603107D01*
X169927703Y-103596014D01*
X169978671Y-103595299D01*
X170000876Y-103585734D01*
X170024820Y-103582370D01*
X170068745Y-103556499D01*
X170115560Y-103536333D01*
X170128100Y-103527697D01*
X170142110Y-103513288D01*
X170153248Y-103506728D01*
X170154868Y-103504578D01*
X170165575Y-103498283D01*
X170192370Y-103474405D01*
X170195972Y-103469633D01*
X170201028Y-103466447D01*
X170239078Y-103430380D01*
X170240742Y-103428028D01*
X170243155Y-103426457D01*
X170289454Y-103381249D01*
X170290501Y-103379722D01*
X170292044Y-103378696D01*
X170343588Y-103327399D01*
X170344401Y-103326188D01*
X170345611Y-103325371D01*
X170399396Y-103271034D01*
X170400149Y-103269895D01*
X170401277Y-103269121D01*
X170454303Y-103214793D01*
X170455135Y-103213515D01*
X170456388Y-103212641D01*
X170505647Y-103161375D01*
X170506740Y-103159666D01*
X170508391Y-103158489D01*
X170550883Y-103113333D01*
X170552660Y-103110491D01*
X170555355Y-103108498D01*
X170588075Y-103072503D01*
X170592070Y-103065860D01*
X170598116Y-103061004D01*
X170618059Y-103037220D01*
X170632662Y-103010582D01*
X170653059Y-102988065D01*
X170657827Y-102980105D01*
X170670195Y-102945509D01*
X170689220Y-102914081D01*
X170695038Y-102876014D01*
X170708000Y-102839755D01*
X170706187Y-102803063D01*
X170711738Y-102766743D01*
X170702545Y-102729348D01*
X170700645Y-102690887D01*
X170684927Y-102657678D01*
X170676157Y-102622003D01*
X170669295Y-102607328D01*
X170657661Y-102591496D01*
X170651055Y-102572991D01*
X170631818Y-102540842D01*
X170628207Y-102536852D01*
X170626258Y-102531835D01*
X170596668Y-102485357D01*
X170594681Y-102483280D01*
X170593602Y-102480620D01*
X170555682Y-102422956D01*
X170554212Y-102421464D01*
X170553403Y-102419530D01*
X170509175Y-102353826D01*
X170508162Y-102352820D01*
X170507602Y-102351508D01*
X170481974Y-102314032D01*
X170436239Y-102247033D01*
X170431799Y-102240428D01*
X170440220Y-102220494D01*
X170452849Y-102190905D01*
X170495215Y-102182920D01*
X170539254Y-102174715D01*
X170539967Y-102174430D01*
X170540737Y-102174436D01*
X170622467Y-102158875D01*
X170624239Y-102158158D01*
X170626150Y-102158155D01*
X170699973Y-102143347D01*
X170702109Y-102142458D01*
X170704424Y-102142427D01*
X170766602Y-102129183D01*
X170769877Y-102127774D01*
X170773436Y-102127661D01*
X170820238Y-102116792D01*
X170827753Y-102113395D01*
X170835978Y-102112782D01*
X170863664Y-102105098D01*
X170888082Y-102092784D01*
X170914797Y-102086907D01*
X170920362Y-102084468D01*
X170928848Y-102078546D01*
X170938823Y-102075786D01*
X170969930Y-102051510D01*
X170996749Y-102037986D01*
X171011476Y-102020887D01*
X171042593Y-101999174D01*
X171048169Y-101990453D01*
X171056326Y-101984087D01*
X171081599Y-101939475D01*
X171094021Y-101925053D01*
X171097534Y-101914391D01*
X171105885Y-101904607D01*
X171108805Y-101895610D01*
X171122879Y-101873596D01*
X171124693Y-101863405D01*
X171129793Y-101854402D01*
X171135245Y-101837900D01*
X171139973Y-101799571D01*
X171151894Y-101762837D01*
X171156292Y-101725566D01*
X171155450Y-101714911D01*
X171158183Y-101704579D01*
X171161531Y-101650899D01*
X171160823Y-101645648D01*
X171162038Y-101640490D01*
X171164340Y-101574758D01*
X171163782Y-101571328D01*
X171164518Y-101567932D01*
X171165776Y-101494507D01*
X171165279Y-101491766D01*
X171165830Y-101489038D01*
X171166046Y-101412279D01*
X171165536Y-101409675D01*
X171166026Y-101407063D01*
X171165205Y-101331327D01*
X171164583Y-101328369D01*
X171165094Y-101325394D01*
X171163238Y-101255040D01*
X171162326Y-101251013D01*
X171162938Y-101246928D01*
X171160049Y-101186314D01*
X171158344Y-101179463D01*
X171159135Y-101172447D01*
X171155218Y-101125930D01*
X171150389Y-101109158D01*
X171150772Y-101091710D01*
X171145829Y-101063651D01*
X171125733Y-101011950D01*
X171117121Y-100972099D01*
X171112679Y-100965683D01*
X171110249Y-100957016D01*
X171107284Y-100951175D01*
X171097047Y-100938149D01*
X171091830Y-100924727D01*
X171064695Y-100896372D01*
X171032281Y-100849552D01*
X171022429Y-100843202D01*
X171015186Y-100833985D01*
X170993127Y-100821587D01*
X170988778Y-100817043D01*
X170979859Y-100813117D01*
X170965481Y-100806050D01*
X170960100Y-100803025D01*
X170907003Y-100768800D01*
X170889280Y-100761798D01*
X170885532Y-100761117D01*
X170885252Y-100760959D01*
X170883530Y-100760753D01*
X170867336Y-100757808D01*
X170847323Y-100747971D01*
X170809770Y-100737961D01*
X170802351Y-100737484D01*
X170795561Y-100734464D01*
X170743144Y-100722622D01*
X170738437Y-100722500D01*
X170734086Y-100720690D01*
X170671774Y-100708192D01*
X170669017Y-100708188D01*
X170666458Y-100707165D01*
X170644706Y-100703122D01*
X170644199Y-100703128D01*
X170643726Y-100702941D01*
X170539345Y-100683822D01*
X170472475Y-100671334D01*
X170455622Y-100628305D01*
X170444727Y-100599441D01*
X170483605Y-100542756D01*
X170483607Y-100542754D01*
X170496133Y-100524528D01*
X170496725Y-100523151D01*
X170497792Y-100522095D01*
X170542457Y-100456023D01*
X170543715Y-100453032D01*
X170545983Y-100450712D01*
X170585287Y-100390426D01*
X170586771Y-100386725D01*
X170589500Y-100383817D01*
X170621300Y-100332782D01*
X170623566Y-100326778D01*
X170627797Y-100321959D01*
X170649954Y-100283634D01*
X170655321Y-100267855D01*
X170665198Y-100254429D01*
X170675570Y-100232278D01*
X170685582Y-100191642D01*
X170701329Y-100157718D01*
X170701713Y-100148549D01*
X170705277Y-100139595D01*
X170705779Y-100136874D01*
X170705421Y-100111119D01*
X170711226Y-100087557D01*
X170705771Y-100051737D01*
X170707571Y-100008799D01*
X170703856Y-99998648D01*
X170703706Y-99987839D01*
X170691846Y-99960297D01*
X170688787Y-99940207D01*
X170672787Y-99913746D01*
X170656350Y-99868828D01*
X170647636Y-99854524D01*
X170645124Y-99851792D01*
X170644758Y-99850942D01*
X170640824Y-99847116D01*
X170627188Y-99832286D01*
X170612494Y-99805896D01*
X170588414Y-99777560D01*
X170582070Y-99772534D01*
X170577842Y-99765633D01*
X170541493Y-99726309D01*
X170538268Y-99723966D01*
X170536114Y-99720607D01*
X170490590Y-99673342D01*
X170488456Y-99671857D01*
X170487024Y-99669689D01*
X170435423Y-99617527D01*
X170433702Y-99616364D01*
X170432538Y-99614641D01*
X170381987Y-99564621D01*
X170384286Y-99564300D01*
X170412917Y-99554330D01*
X170443083Y-99551298D01*
X170475889Y-99541274D01*
X170508631Y-99547069D01*
X170555753Y-99562097D01*
X170630363Y-99570517D01*
X170678611Y-99566456D01*
X170726962Y-99569125D01*
X170802987Y-99558318D01*
X170849908Y-99541849D01*
X170898589Y-99531709D01*
X170923685Y-99521048D01*
X170966979Y-99542248D01*
X171035338Y-99560361D01*
X171093382Y-99564003D01*
X171150892Y-99572693D01*
X171227611Y-99569132D01*
X171263321Y-99560290D01*
X171300076Y-99558746D01*
X171332274Y-99550924D01*
X171366357Y-99535100D01*
X171402878Y-99526237D01*
X171464607Y-99497595D01*
X171504323Y-99468589D01*
X171547580Y-99445200D01*
X171600365Y-99401454D01*
X171632897Y-99361423D01*
X171670072Y-99325657D01*
X171706603Y-99273207D01*
X171722359Y-99237155D01*
X171744555Y-99204658D01*
X171749574Y-99192882D01*
X171756783Y-99158474D01*
X171770986Y-99126321D01*
X171777871Y-99095474D01*
X171778384Y-99073431D01*
X171784932Y-99052379D01*
X171789751Y-99006748D01*
X171788525Y-98993328D01*
X171791622Y-98980212D01*
X171793263Y-98934091D01*
X171792158Y-98927279D01*
X171793505Y-98920508D01*
X171793505Y-98833307D01*
X171778942Y-98760092D01*
X171791751Y-98720470D01*
X171789357Y-98690615D01*
X171794035Y-98661031D01*
X171783456Y-98617017D01*
X171779838Y-98571897D01*
X171766201Y-98545230D01*
X171759202Y-98516110D01*
X171732589Y-98479500D01*
X171711977Y-98439193D01*
X171689171Y-98419773D01*
X171671562Y-98395549D01*
X171628325Y-98355602D01*
X171601021Y-98338880D01*
X171578156Y-98316465D01*
X171520434Y-98278721D01*
X171472843Y-98259560D01*
X171427988Y-98234672D01*
X171357000Y-98211915D01*
X171313864Y-98206981D01*
X171272134Y-98195002D01*
X171195777Y-98188634D01*
X171150834Y-98193741D01*
X171115180Y-98192211D01*
X171123182Y-98169121D01*
X171129381Y-98124238D01*
X171142463Y-98080860D01*
X171150329Y-97999643D01*
X171148588Y-97982259D01*
X171152101Y-97965145D01*
X171152141Y-97958579D01*
X171151956Y-97957618D01*
X171152148Y-97956657D01*
X171152218Y-97890642D01*
X171152178Y-97890439D01*
X171152218Y-97890237D01*
X171137717Y-97817334D01*
X171129325Y-97774911D01*
X171133044Y-97762689D01*
X171131348Y-97745319D01*
X171134901Y-97728233D01*
X171124157Y-97671664D01*
X171123936Y-97669397D01*
X171124030Y-97668424D01*
X171123752Y-97667512D01*
X171118561Y-97614345D01*
X171114674Y-97607058D01*
X171114622Y-97606406D01*
X171110070Y-97597492D01*
X171107128Y-97582000D01*
X186730054Y-97582000D01*
X186341332Y-97970044D01*
X186005393Y-98779075D01*
X186004628Y-99655081D01*
X186339155Y-100464698D01*
X186958044Y-101084668D01*
X187767075Y-101420607D01*
X188643081Y-101421372D01*
X189452698Y-101086845D01*
X190072668Y-100467956D01*
X190408607Y-99658925D01*
X190409372Y-98782919D01*
X190074845Y-97973302D01*
X189684225Y-97582000D01*
X195326000Y-97582000D01*
X195326000Y-112522000D01*
X189887721Y-112522000D01*
X190072668Y-112337376D01*
X190408607Y-111528345D01*
X190409372Y-110652339D01*
X190074845Y-109842722D01*
X189455956Y-109222752D01*
X188646925Y-108886813D01*
X187770919Y-108886048D01*
X186961302Y-109220575D01*
X186341332Y-109839464D01*
X186005393Y-110648495D01*
X186004628Y-111524501D01*
X186339155Y-112334118D01*
X186526709Y-112522000D01*
X137922000Y-112522000D01*
X137922000Y-108644900D01*
X139094971Y-108644900D01*
X139182662Y-109085751D01*
X139432384Y-109459487D01*
X139806120Y-109709209D01*
X140246971Y-109796900D01*
X140292109Y-109796900D01*
X140732960Y-109709209D01*
X141106696Y-109459487D01*
X141356418Y-109085751D01*
X141444109Y-108644900D01*
X141356418Y-108204049D01*
X141106696Y-107830313D01*
X140732960Y-107580591D01*
X140292109Y-107492900D01*
X140246971Y-107492900D01*
X139806120Y-107580591D01*
X139432384Y-107830313D01*
X139182662Y-108204049D01*
X139094971Y-108644900D01*
X137922000Y-108644900D01*
X137922000Y-106703650D01*
X141659540Y-106703650D01*
X141659540Y-106771210D01*
X141756213Y-107004599D01*
X141934842Y-107183227D01*
X142045754Y-107229168D01*
X142024183Y-107261451D01*
X141947910Y-107644900D01*
X142024183Y-108028349D01*
X142241389Y-108353421D01*
X142566461Y-108570627D01*
X142949910Y-108646900D01*
X142989170Y-108646900D01*
X143372619Y-108570627D01*
X143697691Y-108353421D01*
X143914897Y-108028349D01*
X143991170Y-107644900D01*
X143914897Y-107261451D01*
X143893326Y-107229168D01*
X144004238Y-107183227D01*
X144182867Y-107004599D01*
X144279540Y-106771210D01*
X144279540Y-106703650D01*
X144120790Y-106544900D01*
X143096540Y-106544900D01*
X143096540Y-106591900D01*
X142842540Y-106591900D01*
X142842540Y-106544900D01*
X141818290Y-106544900D01*
X141659540Y-106703650D01*
X137922000Y-106703650D01*
X137922000Y-106118590D01*
X141659540Y-106118590D01*
X141659540Y-106186150D01*
X141818290Y-106344900D01*
X142138991Y-106344900D01*
X142144993Y-106349001D01*
X142294540Y-106379285D01*
X143644540Y-106379285D01*
X143784248Y-106352997D01*
X143796831Y-106344900D01*
X144120790Y-106344900D01*
X144192190Y-106273500D01*
X155734008Y-106273500D01*
X155917161Y-106237069D01*
X156072429Y-106133321D01*
X160912100Y-101293650D01*
X160911975Y-101436569D01*
X161021342Y-101701258D01*
X161223677Y-101903946D01*
X161488175Y-102013775D01*
X161711048Y-102013970D01*
X165611539Y-105914461D01*
X165758568Y-106012702D01*
X165932000Y-106047200D01*
X174217204Y-106047200D01*
X174373677Y-106203946D01*
X174638175Y-106313775D01*
X174924569Y-106314025D01*
X175189258Y-106204658D01*
X175346991Y-106047200D01*
X178803118Y-106047200D01*
X178679118Y-106098436D01*
X178361650Y-106415349D01*
X178189627Y-106829629D01*
X178189235Y-107278203D01*
X178360536Y-107692782D01*
X178677449Y-108010250D01*
X179044180Y-108162529D01*
X174010276Y-108162529D01*
X174010271Y-108162528D01*
X173836839Y-108197027D01*
X173689810Y-108295268D01*
X173560910Y-108424168D01*
X173339431Y-108423975D01*
X173074742Y-108533342D01*
X172872054Y-108735677D01*
X172762225Y-109000175D01*
X172761975Y-109286569D01*
X172871342Y-109551258D01*
X173073677Y-109753946D01*
X173338175Y-109863775D01*
X173624569Y-109864025D01*
X173889258Y-109754658D01*
X174091946Y-109552323D01*
X174201775Y-109287825D01*
X174201966Y-109068929D01*
X178314488Y-109068929D01*
X178189627Y-109369629D01*
X178189235Y-109818203D01*
X178360536Y-110232782D01*
X178677449Y-110550250D01*
X179091729Y-110722273D01*
X179540303Y-110722665D01*
X179954882Y-110551364D01*
X180272350Y-110234451D01*
X180444373Y-109820171D01*
X180444765Y-109371597D01*
X180302201Y-109026566D01*
X180437458Y-108936190D01*
X180757365Y-108616283D01*
X180900536Y-108962782D01*
X181217449Y-109280250D01*
X181631729Y-109452273D01*
X182080303Y-109452665D01*
X182494882Y-109281364D01*
X182812350Y-108964451D01*
X182984373Y-108550171D01*
X182984765Y-108101597D01*
X182813464Y-107687018D01*
X182496551Y-107369550D01*
X182148585Y-107225063D01*
X182150277Y-107223371D01*
X189605829Y-107223371D01*
X189779261Y-107188873D01*
X189926290Y-107090632D01*
X193903090Y-103113832D01*
X194124569Y-103114025D01*
X194389258Y-103004658D01*
X194591946Y-102802323D01*
X194701775Y-102537825D01*
X194702025Y-102251431D01*
X194592658Y-101986742D01*
X194390323Y-101784054D01*
X194125825Y-101674225D01*
X193839431Y-101673975D01*
X193574742Y-101783342D01*
X193509488Y-101848483D01*
X193442658Y-101686742D01*
X193240323Y-101484054D01*
X192975825Y-101374225D01*
X192689431Y-101373975D01*
X192424742Y-101483342D01*
X192267009Y-101640800D01*
X182937221Y-101640800D01*
X182961671Y-101605017D01*
X182991955Y-101455470D01*
X182991955Y-99954330D01*
X182965667Y-99814622D01*
X182883100Y-99686310D01*
X182757117Y-99600229D01*
X182607570Y-99569945D01*
X181106430Y-99569945D01*
X180966722Y-99596233D01*
X180838410Y-99678800D01*
X180752329Y-99804783D01*
X180722045Y-99954330D01*
X180722045Y-101455470D01*
X180748333Y-101595178D01*
X180777690Y-101640800D01*
X180660174Y-101640800D01*
X180486742Y-101675298D01*
X180429141Y-101713785D01*
X180273464Y-101337018D01*
X179956551Y-101019550D01*
X179542271Y-100847527D01*
X179093697Y-100847135D01*
X178679118Y-101018436D01*
X178361650Y-101335349D01*
X178217427Y-101682679D01*
X177508287Y-100973539D01*
X177361258Y-100875298D01*
X177187826Y-100840800D01*
X173946796Y-100840800D01*
X173790323Y-100684054D01*
X173525825Y-100574225D01*
X173239431Y-100573975D01*
X172974742Y-100683342D01*
X172772054Y-100885677D01*
X172662225Y-101150175D01*
X172661975Y-101436569D01*
X172771342Y-101701258D01*
X172973677Y-101903946D01*
X173238175Y-102013775D01*
X173524569Y-102014025D01*
X173789258Y-101904658D01*
X173946991Y-101747200D01*
X177000104Y-101747200D01*
X178533536Y-103280632D01*
X178680565Y-103378873D01*
X178853997Y-103413372D01*
X178854002Y-103413371D01*
X179030201Y-103413371D01*
X178679118Y-103558436D01*
X178361650Y-103875349D01*
X178189627Y-104289629D01*
X178189235Y-104738203D01*
X178355585Y-105140800D01*
X175346796Y-105140800D01*
X175190323Y-104984054D01*
X174925825Y-104874225D01*
X174639431Y-104873975D01*
X174374742Y-104983342D01*
X174217009Y-105140800D01*
X166119722Y-105140800D01*
X162351832Y-101372910D01*
X162352025Y-101151431D01*
X162259793Y-100928211D01*
X162589369Y-100928211D01*
X162912137Y-101250979D01*
X162911975Y-101436569D01*
X163021342Y-101701258D01*
X163223677Y-101903946D01*
X163488175Y-102013775D01*
X163774569Y-102014025D01*
X164039258Y-101904658D01*
X164241946Y-101702323D01*
X164351775Y-101437825D01*
X164352025Y-101151431D01*
X164242658Y-100886742D01*
X164083776Y-100727583D01*
X164139258Y-100704658D01*
X164341946Y-100502323D01*
X164451775Y-100237825D01*
X164452025Y-99951431D01*
X164342658Y-99686742D01*
X164140323Y-99484054D01*
X163875825Y-99374225D01*
X163589431Y-99373975D01*
X163324742Y-99483342D01*
X163192454Y-99615400D01*
X160932000Y-99615400D01*
X160784085Y-99644822D01*
X160748847Y-99651831D01*
X160593578Y-99755579D01*
X155682858Y-104666300D01*
X144028925Y-104666300D01*
X144028925Y-104294900D01*
X144004541Y-104165311D01*
X144028925Y-104044900D01*
X144028925Y-103644900D01*
X144002637Y-103505192D01*
X143920070Y-103376880D01*
X143794087Y-103290799D01*
X143746035Y-103281068D01*
X143914897Y-103028349D01*
X143991170Y-102644900D01*
X143914897Y-102261451D01*
X143697691Y-101936379D01*
X143372619Y-101719173D01*
X142989170Y-101642900D01*
X142949910Y-101642900D01*
X142566461Y-101719173D01*
X142241389Y-101936379D01*
X142024183Y-102261451D01*
X141947910Y-102644900D01*
X142024183Y-103028349D01*
X142192181Y-103279775D01*
X142154832Y-103286803D01*
X142026520Y-103369370D01*
X141940439Y-103495353D01*
X141910155Y-103644900D01*
X141910155Y-104044900D01*
X141934539Y-104174489D01*
X141910155Y-104294900D01*
X141910155Y-104694900D01*
X141934539Y-104824489D01*
X141910155Y-104944900D01*
X141910155Y-105344900D01*
X141934539Y-105474489D01*
X141910155Y-105594900D01*
X141910155Y-105731260D01*
X141756213Y-105885201D01*
X141659540Y-106118590D01*
X137922000Y-106118590D01*
X137922000Y-101644900D01*
X139094971Y-101644900D01*
X139182662Y-102085751D01*
X139432384Y-102459487D01*
X139806120Y-102709209D01*
X140246971Y-102796900D01*
X140292109Y-102796900D01*
X140732960Y-102709209D01*
X141106696Y-102459487D01*
X141356418Y-102085751D01*
X141444109Y-101644900D01*
X141356418Y-101204049D01*
X141106696Y-100830313D01*
X140732960Y-100580591D01*
X140292109Y-100492900D01*
X140246971Y-100492900D01*
X139806120Y-100580591D01*
X139432384Y-100830313D01*
X139182662Y-101204049D01*
X139094971Y-101644900D01*
X137922000Y-101644900D01*
X137922000Y-97582000D01*
X165880116Y-97582000D01*
X165874691Y-97602911D01*
M02*
